<svg width="116" height="134" viewBox="0 0 116 134" fill="none" xmlns="http://www.w3.org/2000/svg">
<path d="M81.1389 38.417H76.0999V45.7975H81.1389V38.417Z" fill="white"/>
<path d="M88.9313 38.417H83.8923V45.7975H88.9313V38.417Z" fill="white"/>
<path d="M96.7238 38.417H91.6848V45.7975H96.7238V38.417Z" fill="white"/>
<path d="M104.516 38.417H99.4773V45.7975H104.516V38.417Z" fill="white"/>
<path d="M112.317 38.417H107.278V45.7975H112.317V38.417Z" fill="white"/>
<path d="M81.1389 51.1504H76.0999V58.5309H81.1389V51.1504Z" fill="white"/>
<path d="M88.9313 51.1504H83.8923V58.5309H88.9313V51.1504Z" fill="white"/>
<path d="M96.7238 51.1504H91.6848V58.5309H96.7238V51.1504Z" fill="white"/>
<path d="M104.516 51.1504H99.4773V58.5309H104.516V51.1504Z" fill="white"/>
<path d="M112.317 51.1504H107.278V58.5309H112.317V51.1504Z" fill="white"/>
<path d="M81.1389 63.876H76.0999V71.2565H81.1389V63.876Z" fill="white"/>
<path d="M88.9313 63.876H83.8923V71.2565H88.9313V63.876Z" fill="white"/>
<path d="M96.7238 63.876H91.6848V71.2565H96.7238V63.876Z" fill="white"/>
<path d="M104.516 63.876H99.4773V71.2565H104.516V63.876Z" fill="white"/>
<path d="M112.317 63.876H107.278V71.2565H112.317V63.876Z" fill="white"/>
<path d="M81.1389 76.6094H76.0999V83.9899H81.1389V76.6094Z" fill="white"/>
<path d="M88.9313 76.6094H83.8923V83.9899H88.9313V76.6094Z" fill="white"/>
<path d="M96.7238 76.6094H91.6848V83.9899H96.7238V76.6094Z" fill="white"/>
<path d="M104.516 76.6094H99.4773V83.9899H104.516V76.6094Z" fill="white"/>
<path d="M112.317 76.6094H107.278V83.9899H112.317V76.6094Z" fill="white"/>
<path d="M97.0514 104.104H91.3572V112.37H97.0514V104.104Z" fill="white"/>
<path d="M41.5835 35.1074H0V112.37H41.5835V35.1074Z" fill="#951A4A"/>
<path d="M7.72235 38.417H2.68335V45.7975H7.72235V38.417Z" fill="white"/>
<path d="M15.5148 38.417H10.4758V45.7975H15.5148V38.417Z" fill="white"/>
<path d="M23.3073 38.417H18.2683V45.7975H23.3073V38.417Z" fill="white"/>
<path d="M31.1076 38.417H26.0686V45.7975H31.1076V38.417Z" fill="white"/>
<path d="M38.9001 38.417H33.8611V45.7975H38.9001V38.417Z" fill="white"/>
<path d="M7.72235 51.1504H2.68335V58.5309H7.72235V51.1504Z" fill="white"/>
<path d="M15.5148 51.1504H10.4758V58.5309H15.5148V51.1504Z" fill="white"/>
<path d="M23.3073 51.1504H18.2683V58.5309H23.3073V51.1504Z" fill="white"/>
<path d="M31.1076 51.1504H26.0686V58.5309H31.1076V51.1504Z" fill="white"/>
<path d="M38.9001 51.1504H33.8611V58.5309H38.9001V51.1504Z" fill="white"/>
<path d="M7.72235 63.876H2.68335V71.2565H7.72235V63.876Z" fill="white"/>
<path d="M15.5148 63.876H10.4758V71.2565H15.5148V63.876Z" fill="white"/>
<path d="M23.3073 63.876H18.2683V71.2565H23.3073V63.876Z" fill="white"/>
<path d="M31.1076 63.876H26.0686V71.2565H31.1076V63.876Z" fill="white"/>
<path d="M38.9001 63.876H33.8611V71.2565H38.9001V63.876Z" fill="white"/>
<path d="M7.72235 76.6094H2.68335V83.9899H7.72235V76.6094Z" fill="white"/>
<path d="M15.5148 76.6094H10.4758V83.9899H15.5148V76.6094Z" fill="white"/>
<path d="M23.3073 76.6094H18.2683V83.9899H23.3073V76.6094Z" fill="white"/>
<path d="M31.1076 76.6094H26.0686V83.9899H31.1076V76.6094Z" fill="white"/>
<path d="M38.9001 76.6094H33.8611V83.9899H38.9001V76.6094Z" fill="white"/>
<path d="M23.6349 104.104H17.9407V112.37H23.6349V104.104Z" fill="white"/>
<path d="M86.5493 124.004L86.5493 2.85547L28.4526 2.85547L28.4526 124.004L86.5493 124.004Z" fill="white"/>
<path d="M82.8315 7.2793H32.1763V119.579H82.8315V7.2793Z" fill="#121C36"/>
<path d="M41.5834 30.2129H35.4446V39.2015H41.5834V30.2129Z" fill="white"/>
<path d="M51.0764 30.2129H44.9375V39.2015H51.0764V30.2129Z" fill="white"/>
<path d="M60.5695 30.2129H54.4307V39.2015H60.5695V30.2129Z" fill="white"/>
<path d="M70.0624 30.2129H63.9236V39.2015H70.0624V30.2129Z" fill="white"/>
<path d="M79.5553 30.2129H73.4165V39.2015H79.5553V30.2129Z" fill="white"/>
<path d="M41.5834 45.7207H35.4446V54.7094H41.5834V45.7207Z" fill="white"/>
<path d="M51.0764 45.7207H44.9375V54.7094H51.0764V45.7207Z" fill="white"/>
<path d="M60.5695 45.7207H54.4307V54.7094H60.5695V45.7207Z" fill="white"/>
<path d="M70.0624 45.7207H63.9236V54.7094H70.0624V45.7207Z" fill="white"/>
<path d="M79.5553 45.7207H73.4165V54.7094H79.5553V45.7207Z" fill="white"/>
<path d="M41.5834 14.707H35.4446V23.6957H41.5834V14.707Z" fill="white"/>
<path d="M51.0764 14.707H44.9375V23.6957H51.0764V14.707Z" fill="white"/>
<path d="M60.5695 14.707H54.4307V23.6957H60.5695V14.707Z" fill="white"/>
<path d="M70.0624 14.707H63.9236V23.6957H70.0624V14.707Z" fill="white"/>
<path d="M79.5553 14.707H73.4165V23.6957H79.5553V14.707Z" fill="white"/>
<path d="M41.5834 61.2266H35.4446V70.2152H41.5834V61.2266Z" fill="white"/>
<path d="M51.0764 61.2266H44.9375V70.2152H51.0764V61.2266Z" fill="white"/>
<path d="M60.5695 61.2266H54.4307V70.2152H60.5695V61.2266Z" fill="white"/>
<path d="M70.0624 61.2266H63.9236V70.2152H70.0624V61.2266Z" fill="white"/>
<path d="M79.5553 61.2266H73.4165V70.2152H79.5553V61.2266Z" fill="white"/>
<path d="M41.5834 76.7334H35.4446V85.7221H41.5834V76.7334Z" fill="white"/>
<path d="M51.0764 76.7334H44.9375V85.7221H51.0764V76.7334Z" fill="white"/>
<path d="M60.5695 76.7334H54.4307V85.7221H60.5695V76.7334Z" fill="white"/>
<path d="M70.0624 76.7334H63.9236V85.7221H70.0624V76.7334Z" fill="white"/>
<path d="M79.5553 76.7334H73.4165V85.7221H79.5553V76.7334Z" fill="white"/>
<path d="M60.975 110.218H54.0327V120.286H60.975V110.218Z" fill="white"/>
<path d="M75.0703 0H39.9221V5.71017H75.0703V0Z" fill="#121C36"/>
<path d="M40.9127 96.708H36.1077V101.494H40.9127V96.708Z" fill="white"/>
<path d="M50.4134 96.708H45.6084V101.494H50.4134V96.708Z" fill="white"/>
<path d="M59.9063 96.708H55.1013V101.494H59.9063V96.708Z" fill="white"/>
<path d="M69.3992 96.708H64.5942V101.494H69.3992V96.708Z" fill="white"/>
<path d="M78.8924 96.708H74.0874V101.494H78.8924V96.708Z" fill="white"/>
<path d="M85.4311 126.632C102.07 122.728 112.355 106.229 108.405 89.781C104.455 73.3334 87.7649 63.1655 71.1265 67.0703C54.4881 70.9751 44.2022 87.4741 48.1523 103.922C52.1025 120.369 68.7927 130.537 85.4311 126.632Z" fill="white"/>
<path d="M105.035 96.9894C105.11 82.3792 93.1894 70.4753 78.4097 70.4014C63.6301 70.3275 51.5881 82.1114 51.5134 96.7217C51.4386 111.332 63.3592 123.236 78.1389 123.31C92.9186 123.384 104.96 111.6 105.035 96.9894Z" fill="white"/>
<path d="M78.2726 72.1304C92.0631 72.1304 103.28 83.2185 103.28 96.8509C103.28 110.483 92.0631 121.571 78.2726 121.571C64.482 121.571 53.2654 110.483 53.2654 96.8509C53.2654 83.2185 64.482 72.1304 78.2726 72.1304ZM78.2726 68.6631C62.5264 68.6631 49.7578 81.2852 49.7578 96.8509C49.7578 112.417 62.5264 125.039 78.2726 125.039C94.0188 125.039 106.787 112.417 106.787 96.8509C106.787 81.2852 94.0251 68.6631 78.2726 68.6631Z" fill="#951A4A"/>
<path d="M96.101 85.8174H65.897C65.2673 85.8174 64.7568 86.3236 64.7568 86.948V88.6029H92.5854C94.4714 88.6029 96.0058 90.1244 96.0058 91.9946V103.723H96.1011C96.7308 103.723 97.2412 103.216 97.2412 102.592V86.948C97.2412 86.3236 96.7307 85.8174 96.101 85.8174V85.8174Z" fill="#951A4A"/>
<path d="M62.3813 96.5889C64.9359 96.5889 67.0142 94.528 67.0142 91.9948V90.8643H62.3813C61.7517 90.8643 61.2412 91.3705 61.2412 91.9948V96.5889H62.3813Z" fill="#951A4A"/>
<path d="M85.6723 91.9948V90.8643H69.2944V91.9948C69.2944 95.7748 66.1932 98.85 62.3813 98.85H61.2412V100.784H62.3813C66.1933 100.784 69.2944 103.859 69.2944 107.639V108.77H85.6722V107.639C85.6722 103.859 88.7735 100.784 92.5854 100.784H93.7255V98.85H92.5854C88.7735 98.85 85.6723 95.7748 85.6723 91.9948V91.9948ZM80.3762 102.685C78.7775 104.271 76.1896 104.271 74.5905 102.685C72.9917 101.1 72.9916 98.5338 74.5905 96.9483C76.1856 95.3665 78.781 95.3666 80.3762 96.9483C81.9713 98.53 81.9713 101.104 80.3762 102.685Z" fill="#951A4A"/>
<path d="M87.9526 91.9948C87.9526 94.528 90.0309 96.5889 92.5855 96.5889H93.7257V91.9948C93.7257 91.3705 93.2152 90.8643 92.5855 90.8643H87.9526V91.9948Z" fill="#951A4A"/>
<path d="M92.5853 103.045C90.0307 103.045 87.9524 105.106 87.9524 107.639V108.77H92.5853C93.215 108.77 93.7254 108.263 93.7254 107.639V103.045H92.5853Z" fill="#951A4A"/>
<path d="M67.0142 107.639C67.0142 105.106 64.9359 103.045 62.3813 103.045H61.2412V107.639C61.2412 108.263 61.7517 108.77 62.3813 108.77H67.0142V107.639Z" fill="#951A4A"/>
</svg>
