<svg width="113" height="132" viewBox="0 0 113 132" fill="none" xmlns="http://www.w3.org/2000/svg">
<path d="M81.1389 38.417H76.0999V45.7975H81.1389V38.417Z" fill="white"/>
<path d="M88.9313 38.417H83.8923V45.7975H88.9313V38.417Z" fill="white"/>
<path d="M96.7238 38.417H91.6848V45.7975H96.7238V38.417Z" fill="white"/>
<path d="M104.516 38.417H99.4773V45.7975H104.516V38.417Z" fill="white"/>
<path d="M112.317 38.417H107.278V45.7975H112.317V38.417Z" fill="white"/>
<path d="M81.1389 51.1504H76.0999V58.5309H81.1389V51.1504Z" fill="white"/>
<path d="M88.9313 51.1504H83.8923V58.5309H88.9313V51.1504Z" fill="white"/>
<path d="M96.7238 51.1504H91.6848V58.5309H96.7238V51.1504Z" fill="white"/>
<path d="M104.516 51.1504H99.4773V58.5309H104.516V51.1504Z" fill="white"/>
<path d="M112.317 51.1504H107.278V58.5309H112.317V51.1504Z" fill="white"/>
<path d="M81.1389 63.876H76.0999V71.2565H81.1389V63.876Z" fill="white"/>
<path d="M88.9313 63.876H83.8923V71.2565H88.9313V63.876Z" fill="white"/>
<path d="M96.7238 63.876H91.6848V71.2565H96.7238V63.876Z" fill="white"/>
<path d="M104.516 63.876H99.4773V71.2565H104.516V63.876Z" fill="white"/>
<path d="M112.317 63.876H107.278V71.2565H112.317V63.876Z" fill="white"/>
<path d="M81.1389 76.6094H76.0999V83.9899H81.1389V76.6094Z" fill="white"/>
<path d="M88.9313 76.6094H83.8923V83.9899H88.9313V76.6094Z" fill="white"/>
<path d="M96.7238 76.6094H91.6848V83.9899H96.7238V76.6094Z" fill="white"/>
<path d="M104.516 76.6094H99.4773V83.9899H104.516V76.6094Z" fill="white"/>
<path d="M112.317 76.6094H107.278V83.9899H112.317V76.6094Z" fill="white"/>
<path d="M97.0514 104.104H91.3572V112.37H97.0514V104.104Z" fill="white"/>
<path d="M41.5835 35.1074H0V112.37H41.5835V35.1074Z" fill="#951A4A"/>
<path d="M7.72235 38.417H2.68335V45.7975H7.72235V38.417Z" fill="white"/>
<path d="M15.5148 38.417H10.4758V45.7975H15.5148V38.417Z" fill="white"/>
<path d="M23.3073 38.417H18.2683V45.7975H23.3073V38.417Z" fill="white"/>
<path d="M31.1076 38.417H26.0686V45.7975H31.1076V38.417Z" fill="white"/>
<path d="M38.9001 38.417H33.8611V45.7975H38.9001V38.417Z" fill="white"/>
<path d="M7.72235 51.1504H2.68335V58.5309H7.72235V51.1504Z" fill="white"/>
<path d="M15.5148 51.1504H10.4758V58.5309H15.5148V51.1504Z" fill="white"/>
<path d="M23.3073 51.1504H18.2683V58.5309H23.3073V51.1504Z" fill="white"/>
<path d="M31.1076 51.1504H26.0686V58.5309H31.1076V51.1504Z" fill="white"/>
<path d="M38.9001 51.1504H33.8611V58.5309H38.9001V51.1504Z" fill="white"/>
<path d="M7.72235 63.876H2.68335V71.2565H7.72235V63.876Z" fill="white"/>
<path d="M15.5148 63.876H10.4758V71.2565H15.5148V63.876Z" fill="white"/>
<path d="M23.3073 63.876H18.2683V71.2565H23.3073V63.876Z" fill="white"/>
<path d="M31.1076 63.876H26.0686V71.2565H31.1076V63.876Z" fill="white"/>
<path d="M38.9001 63.876H33.8611V71.2565H38.9001V63.876Z" fill="white"/>
<path d="M7.72235 76.6094H2.68335V83.9899H7.72235V76.6094Z" fill="white"/>
<path d="M15.5148 76.6094H10.4758V83.9899H15.5148V76.6094Z" fill="white"/>
<path d="M23.3073 76.6094H18.2683V83.9899H23.3073V76.6094Z" fill="white"/>
<path d="M31.1076 76.6094H26.0686V83.9899H31.1076V76.6094Z" fill="white"/>
<path d="M38.9001 76.6094H33.8611V83.9899H38.9001V76.6094Z" fill="white"/>
<path d="M23.6349 104.104H17.9407V112.37H23.6349V104.104Z" fill="white"/>
<path d="M86.5493 124.004L86.5493 2.85547L28.4526 2.85547L28.4526 124.004L86.5493 124.004Z" fill="white"/>
<path d="M82.8315 7.2793H32.1763V119.579H82.8315V7.2793Z" fill="#121C36"/>
<path d="M41.5834 30.2129H35.4446V39.2015H41.5834V30.2129Z" fill="white"/>
<path d="M51.0764 30.2129H44.9375V39.2015H51.0764V30.2129Z" fill="white"/>
<path d="M60.5695 30.2129H54.4307V39.2015H60.5695V30.2129Z" fill="white"/>
<path d="M70.0624 30.2129H63.9236V39.2015H70.0624V30.2129Z" fill="white"/>
<path d="M79.5553 30.2129H73.4165V39.2015H79.5553V30.2129Z" fill="white"/>
<path d="M41.5834 45.7207H35.4446V54.7094H41.5834V45.7207Z" fill="white"/>
<path d="M51.0764 45.7207H44.9375V54.7094H51.0764V45.7207Z" fill="white"/>
<path d="M60.5695 45.7207H54.4307V54.7094H60.5695V45.7207Z" fill="white"/>
<path d="M70.0624 45.7207H63.9236V54.7094H70.0624V45.7207Z" fill="white"/>
<path d="M79.5553 45.7207H73.4165V54.7094H79.5553V45.7207Z" fill="white"/>
<path d="M41.5834 14.707H35.4446V23.6957H41.5834V14.707Z" fill="white"/>
<path d="M51.0764 14.707H44.9375V23.6957H51.0764V14.707Z" fill="white"/>
<path d="M60.5695 14.707H54.4307V23.6957H60.5695V14.707Z" fill="white"/>
<path d="M70.0624 14.707H63.9236V23.6957H70.0624V14.707Z" fill="white"/>
<path d="M79.5553 14.707H73.4165V23.6957H79.5553V14.707Z" fill="white"/>
<path d="M41.5834 61.2266H35.4446V70.2152H41.5834V61.2266Z" fill="white"/>
<path d="M51.0764 61.2266H44.9375V70.2152H51.0764V61.2266Z" fill="white"/>
<path d="M60.5695 61.2266H54.4307V70.2152H60.5695V61.2266Z" fill="white"/>
<path d="M70.0624 61.2266H63.9236V70.2152H70.0624V61.2266Z" fill="white"/>
<path d="M79.5553 61.2266H73.4165V70.2152H79.5553V61.2266Z" fill="white"/>
<path d="M41.5834 76.7334H35.4446V85.7221H41.5834V76.7334Z" fill="white"/>
<path d="M51.0764 76.7334H44.9375V85.7221H51.0764V76.7334Z" fill="white"/>
<path d="M60.5695 76.7334H54.4307V85.7221H60.5695V76.7334Z" fill="white"/>
<path d="M70.0624 76.7334H63.9236V85.7221H70.0624V76.7334Z" fill="white"/>
<path d="M79.5553 76.7334H73.4165V85.7221H79.5553V76.7334Z" fill="white"/>
<path d="M60.975 110.218H54.0327V120.286H60.975V110.218Z" fill="white"/>
<path d="M75.0703 0H39.9221V5.71017H75.0703V0Z" fill="#121C36"/>
<path d="M40.9127 96.708H36.1077V101.494H40.9127V96.708Z" fill="white"/>
<path d="M50.4134 96.708H45.6084V101.494H50.4134V96.708Z" fill="white"/>
<path d="M59.9063 96.708H55.1013V101.494H59.9063V96.708Z" fill="white"/>
<path d="M69.3992 96.708H64.5942V101.494H69.3992V96.708Z" fill="white"/>
<path d="M78.8924 96.708H74.0874V101.494H78.8924V96.708Z" fill="white"/>
<path d="M56.7899 131.731C52.7674 131.035 49.0745 128.959 46.3906 125.886C39.915 118.477 40.6931 107.201 48.125 100.738C52.2068 97.1918 57.6142 95.6879 62.9556 96.6139C64.3207 96.8503 65.6461 97.2444 66.9122 97.7829L93.1247 75L98.1496 76.898L100.273 75.046L103.999 79.3083L102.324 87.5703L98.2617 91.0971L95.5251 90.9461L93.9095 92.345L93.9161 94.8735L89.2209 98.952L86.5106 97.5925L86.7282 99.6021L81.8682 103.819L79.8569 102.774L79.5536 103.037L79.7118 107.207L77.1137 109.46C78.9073 115.988 76.8103 123.088 71.614 127.6C67.5387 131.153 62.1313 132.657 56.7899 131.731Z" fill="white"/>
<path d="M100.022 78.7568L98.6963 79.9127L93.6714 78.0146L67.3204 100.909C61.8603 97.8619 54.8439 98.3873 49.8586 102.722C43.5082 108.239 42.8488 117.84 48.3815 124.165C53.9141 130.49 63.5484 131.146 69.8922 125.63C74.8775 121.295 76.3547 114.438 74.073 108.633L77.0339 106.058L76.8756 101.888L79.4804 99.622L81.4916 100.666L83.9579 98.5252L83.7337 96.4301L86.0483 94.4205L88.8246 95.8128L91.2711 93.6849L91.2645 91.1564L94.5946 88.2666L97.3313 88.4177L99.9096 86.1781L101.149 80.0572L100.022 78.7568Z" fill="#951A4A"/>
<path d="M62.4603 111.923C63.7066 113.348 63.5616 115.509 62.1306 116.756C60.6996 118.004 58.5301 117.853 57.2837 116.428C56.0374 114.996 56.1891 112.842 57.6135 111.594C59.0444 110.346 61.2206 110.497 62.4603 111.923Z" fill="white"/>
<path d="M96.1048 82.1979C96.0718 82.3424 95.9993 82.4803 95.8806 82.5854L71.2968 104.18C71.0001 104.436 70.5517 104.409 70.2945 104.114C70.0373 103.818 70.0637 103.372 70.3539 103.116L94.9376 81.528C95.2343 81.2719 95.6827 81.2982 95.9399 81.5937C96.0916 81.7579 96.1443 81.9877 96.1048 82.1979Z" fill="white"/>
</svg>
