<svg width="120" height="122" viewBox="0 0 120 122" fill="none" xmlns="http://www.w3.org/2000/svg">
<path d="M92.2168 81.4337H89.4335V78.6504C89.4335 77.1124 88.1891 75.8672 86.6503 75.8672H5.56654C5.56654 78.6504 5.56654 77.1124 5.56654 78.6504V81.4337H0C0 85.5002 5.29289e-05 82.6789 5.29289e-05 84.2169C5.29289e-05 85.7557 5.29289e-05 84.2169 0.000226319 87.0002H92.2168C93.7555 87.0002 95 85.7557 95 84.2169C95 82.6789 93.7555 81.4337 92.2168 81.4337Z" fill="#121C36"/>
<path d="M11.1331 48.0352H22.4516V70.3004H11.1331V48.0352Z" fill="#121C36"/>
<path d="M72.7348 48.0352H83.8671V70.3004H72.7348V48.0352Z" fill="#121C36"/>
<path d="M41.9336 48.0352H53.0666V70.3004H41.9336V48.0352Z" fill="#121C36"/>
<path d="M89.4335 39.6857V31.3359H5.56654V39.6857C5.56654 41.2237 5.56635 39.6857 5.56635 42.4689H89.4335C89.4335 38.5001 89.4335 41.2237 89.4335 39.6857Z" fill="#121C36"/>
<path d="M89.4311 114.632C106.07 110.728 116.355 94.2287 112.405 77.781C108.455 61.3334 91.7649 51.1655 75.1265 55.0703C58.4881 58.9751 48.2022 75.4741 52.1523 91.9217C56.1025 108.369 72.7927 118.537 89.4311 114.632Z" fill="white"/>
<path d="M109.035 84.9894C109.11 70.3792 97.1894 58.4753 82.4097 58.4014C67.6301 58.3275 55.5881 70.1114 55.5134 84.7217C55.4386 99.3319 67.3592 111.236 82.1389 111.31C96.9186 111.384 108.96 99.5996 109.035 84.9894Z" fill="white"/>
<path d="M82.2726 60.1304C96.0631 60.1304 107.28 71.2185 107.28 84.8509C107.28 98.4833 96.0631 109.571 82.2726 109.571C68.482 109.571 57.2654 98.4833 57.2654 84.8509C57.2654 71.2185 68.482 60.1304 82.2726 60.1304ZM82.2726 56.6631C66.5264 56.6631 53.7578 69.2852 53.7578 84.8509C53.7578 100.417 66.5264 113.039 82.2726 113.039C98.0188 113.039 110.787 100.417 110.787 84.8509C110.787 69.2852 98.0251 56.6631 82.2726 56.6631Z" fill="#951A4A"/>
<path d="M100.101 73.8174H69.897C69.2673 73.8174 68.7568 74.3236 68.7568 74.948V76.6029H96.5854C98.4714 76.6029 100.006 78.1244 100.006 79.9946V91.7226H100.101C100.731 91.7226 101.241 91.2164 101.241 90.592V74.948C101.241 74.3236 100.731 73.8174 100.101 73.8174V73.8174Z" fill="#951A4A"/>
<path d="M66.3813 84.5889C68.9359 84.5889 71.0142 82.528 71.0142 79.9948V78.8643H66.3813C65.7517 78.8643 65.2412 79.3705 65.2412 79.9948V84.5889H66.3813Z" fill="#951A4A"/>
<path d="M89.6723 79.9948V78.8643H73.2944V79.9948C73.2944 83.7748 70.1932 86.85 66.3813 86.85H65.2412V88.7838H66.3813C70.1933 88.7838 73.2944 91.859 73.2944 95.639V96.7696H89.6722V95.639C89.6722 91.859 92.7735 88.7838 96.5854 88.7838H97.7255V86.85H96.5854C92.7735 86.85 89.6723 83.7748 89.6723 79.9948V79.9948ZM84.3762 90.6854C82.7775 92.2708 80.1896 92.271 78.5905 90.6854C76.9917 89.1 76.9916 86.5338 78.5905 84.9483C80.1856 83.3665 82.781 83.3666 84.3762 84.9483C85.9713 86.53 85.9713 89.1037 84.3762 90.6854Z" fill="#951A4A"/>
<path d="M91.9526 79.9948C91.9526 82.528 94.0309 84.5889 96.5855 84.5889H97.7257V79.9948C97.7257 79.3705 97.2152 78.8643 96.5855 78.8643H91.9526V79.9948Z" fill="#951A4A"/>
<path d="M96.5853 91.0449C94.0307 91.0449 91.9524 93.1058 91.9524 95.639V96.7695H96.5853C97.215 96.7695 97.7254 96.2633 97.7254 95.639V91.0449H96.5853Z" fill="#951A4A"/>
<path d="M71.0142 95.639C71.0142 93.1058 68.9359 91.0449 66.3813 91.0449H65.2412V95.639C65.2412 96.2633 65.7517 96.7695 66.3813 96.7695H71.0142V95.639Z" fill="#951A4A"/>
<path d="M47.5 0L95 29H0L47.5 0Z" fill="#121C36"/>
<path d="M39.1506 16.6681C39.1506 21.272 42.8964 25.2027 47.5004 25.2027C52.1043 25.2027 55.8501 21.272 55.8501 16.6681C55.8501 12.0634 52.1043 8.31836 47.5004 8.31836C42.8964 8.31836 39.1506 12.0634 39.1506 16.6681Z" fill="white"/>
<path d="M47.5 13.8848C45.9649 13.8848 44.7168 15.1322 44.7168 16.668C44.7168 18.2031 45.9649 19.4505 47.5 19.4505C49.0359 19.4505 50.2833 18.2031 50.2833 16.668C50.2833 15.1322 49.0359 13.8848 47.5 13.8848Z" fill="#121C36"/>
</svg>
