<svg width="108" height="123" viewBox="0 0 108 123" fill="none" xmlns="http://www.w3.org/2000/svg">
<path d="M0 7.05141V111.709L17.2996 113.237V0L0 7.05141ZM5.09488 89.4416L1.28092 89.4987V82.6471L5.09488 82.4615V89.4416ZM5.09488 78.9644L1.28092 79.2213V72.3697L5.09488 71.9986V78.9644ZM5.09488 68.5015L1.28092 68.9297V62.0781L5.09488 61.5214V68.5015ZM5.09488 58.0243L1.28092 58.638V51.7865L5.09488 51.0442V58.0243ZM5.09488 47.5471L1.28092 48.3464V41.4806L5.09488 40.567V47.5471ZM5.09488 37.0841L1.28092 38.0691V31.2175L5.09488 30.1041V37.0841ZM5.09488 26.6069L1.28092 27.7774V20.9258L5.09488 19.6269V26.6069ZM5.09488 16.144L1.28092 17.5001V10.6485L5.09488 9.16398V16.144ZM10.3481 89.3417L6.34701 89.3987V82.3759L10.3481 82.176V89.3417V89.3417ZM10.3481 78.6218L6.34701 78.893V71.8701L10.3481 71.4705V78.6218V78.6218ZM10.3481 67.9019L6.34701 68.3587V61.3359L10.3481 60.7506V67.9019V67.9019ZM10.3481 57.1678L6.34701 57.8101V50.7873L10.3481 50.0022V57.1678V57.1678ZM10.3481 46.448L6.34701 47.2901V40.2673L10.3481 39.2966V46.448V46.448ZM10.3481 35.7281L6.34701 36.7558V29.7472L10.3481 28.5768V35.7281V35.7281ZM10.3481 24.994L6.34701 26.2215V19.1987L10.3481 17.8426V24.994V24.994ZM10.3481 14.2741L6.34701 15.7015V8.67866L10.3481 7.13705V14.2741V14.2741ZM15.8603 89.256L11.6722 89.3274V82.1332L15.8603 81.9334V89.256ZM15.8603 78.2649L11.6722 78.5362V71.342L15.8603 70.928V78.2649ZM15.8603 67.2596L11.6722 67.7449V60.5508L15.8603 59.937V67.2596ZM15.8603 56.2828L11.6722 56.9537V49.7595L15.8603 48.9459V56.2828ZM15.8603 45.2775L11.6722 46.1625V38.9683L15.8603 37.9406V45.2775ZM15.8603 34.2864L11.6722 35.3712V28.1771L15.8603 26.9495V34.2864ZM15.8603 23.2953L11.6722 24.5943V17.4001L15.8603 15.9727V23.2953ZM15.8603 12.3043L11.6722 13.8031V6.60891L15.8603 4.98166V12.3043Z" fill="#121C36"/>
<path d="M60.9084 79.8784C68.853 79.8784 75.3008 77.7516 75.3008 75.1394C75.3008 72.5272 68.853 70.4004 60.9084 70.4004C52.9639 70.4004 46.5161 72.513 46.5161 75.1394C46.5161 77.7516 52.9639 79.8784 60.9084 79.8784Z" fill="#951A4A"/>
<path d="M73.9333 80.4346C72.9259 81.1911 71.3427 81.8477 69.3566 82.333C66.9531 82.9326 63.9739 83.2751 60.7356 83.2751C57.4973 83.2751 54.5181 82.9326 52.1146 82.333C50.1428 81.8477 48.5453 81.1911 47.5378 80.4346C46.7606 79.8636 46.3433 79.207 46.3433 78.5361V82.333C46.3433 84.9595 52.791 87.072 60.7356 87.072C68.6945 87.072 75.1279 84.9452 75.1279 82.333V78.5361C75.1279 79.2213 74.6961 79.8636 73.9333 80.4346Z" fill="#951A4A"/>
<path d="M73.9332 109.582C72.9258 110.339 71.3426 110.995 69.3565 111.481C66.953 112.08 63.9737 112.423 60.7355 112.423C58.7062 112.423 56.7776 112.28 55.0073 112.023C55.0073 113.379 55.0217 114.664 55.0217 115.82C56.7776 116.077 58.7062 116.22 60.7355 116.22C68.6944 116.22 75.1278 114.093 75.1278 111.481V107.684C75.1278 108.354 74.696 109.011 73.9332 109.582Z" fill="#951A4A"/>
<path d="M73.9335 102.303C72.926 103.059 71.3429 103.716 69.3567 104.201C66.9532 104.786 63.974 105.143 60.7357 105.143C58.692 105.143 56.749 105.001 54.9932 104.744C54.9932 106.014 55.0076 107.284 55.0076 108.541C56.7634 108.797 58.7064 108.94 60.7357 108.94C68.6947 108.94 75.128 106.828 75.128 104.201V100.404C75.128 101.075 74.6963 101.718 73.9335 102.303Z" fill="#951A4A"/>
<path d="M73.9334 95.0088C72.926 95.7653 71.3428 96.4219 69.3567 96.9073C66.9532 97.5068 63.974 97.8494 60.7357 97.8494C58.692 97.8494 56.7346 97.7066 54.9644 97.4497C54.9644 98.6201 54.9644 99.9048 54.9644 101.247C56.7346 101.504 58.6776 101.646 60.7213 101.646C68.6802 101.646 75.1136 99.5337 75.1136 96.9073V93.1104C75.128 93.7955 74.6962 94.4236 73.9334 95.0088Z" fill="#951A4A"/>
<path d="M73.9333 87.7285C72.9259 88.4708 71.3427 89.1274 69.3566 89.627C66.9531 90.2122 63.9739 90.5691 60.7356 90.5691C57.4973 90.5691 54.5181 90.2122 52.1146 89.627C50.1428 89.1274 48.5453 88.4851 47.5378 87.7285C46.7606 87.1433 46.3433 86.501 46.3433 85.8301V89.4414C49.6823 90.1123 52.9493 91.4113 54.3022 93.8664C56.2452 94.1947 58.4184 94.366 60.7356 94.366C68.6945 94.366 75.1279 92.2392 75.1279 89.627V85.8301C75.1279 86.501 74.6961 87.1433 73.9333 87.7285Z" fill="#951A4A"/>
<path d="M18.8971 96.4787C18.8971 92.7817 22.38 90.5121 26.9424 89.2703L20.3075 89.2417V81.8906L28.9285 82.0048V88.7992C29.8209 88.6279 30.742 88.4852 31.6631 88.371V82.0333L40.0538 82.1475V88.1569C40.9461 88.214 41.8385 88.2996 42.7164 88.4138V82.176H42.8171V78.5932H42.7164V71.4562L44.2132 71.499C45.5085 69.986 47.6098 68.8726 50.114 68.1161L42.7164 67.8877V60.7363L50.8912 61.0646V67.9019C51.7548 67.6736 52.6471 67.4737 53.5682 67.3167V4.05385L17.2708 0V113.237L18.7244 113.208L18.8971 96.4787ZM42.7164 7.13705L50.8912 8.00778V15.0877L42.7164 14.2741V7.13705ZM42.7164 17.8569L50.8912 18.6134V25.6934L42.7164 25.0082V17.8569ZM42.7164 28.5768L50.8912 29.2334V36.3133L42.7164 35.7424V28.5768ZM42.7164 39.2966L50.8912 39.839V46.919L42.7164 46.448V39.2966ZM42.7164 50.0308L50.8912 50.4733V57.5532L42.7164 57.1964V50.0308ZM31.6631 5.9523L40.0538 6.8373V14.0172L31.6631 13.2036V5.9523ZM31.6631 16.8292L40.0538 17.6143V24.7799L31.6631 24.0804V16.8292ZM31.6631 27.6918L40.0538 28.3627V35.5425L31.6631 34.943V27.6918ZM31.6631 38.5686L40.0538 39.1253V46.3052L31.6631 45.8056V38.5686ZM31.6631 49.4312L40.0538 49.8737V57.0536L31.6631 56.6825V49.4312ZM31.6631 60.3081L40.0538 60.6507V67.8306L31.6631 67.5594V60.3081ZM31.6631 71.185L40.0538 71.4134V78.579L31.6631 78.422V71.185ZM20.3075 4.75328L28.9285 5.66682V12.9323L20.3075 12.0902V4.75328V4.75328ZM20.3075 15.7729L28.9285 16.5722V23.8378L20.3075 23.1098V15.7729V15.7729ZM20.3075 26.7925L28.9285 27.4777V34.7575L20.3075 34.1437V26.7925V26.7925ZM20.3075 37.8121L28.9285 38.3974V45.6629L20.3075 45.1633V37.8121V37.8121ZM20.3075 48.8317L28.9285 49.2885V56.554L20.3075 56.1686V48.8317V48.8317ZM20.3075 59.8513L28.9285 60.1939V67.4594L20.3075 67.1882V59.8513V59.8513ZM20.3075 70.871L28.9285 71.0993V78.3791L20.3075 78.2221V70.871V70.871Z" fill="#121C36"/>
<path d="M36.9883 101.218C44.9328 101.218 51.395 99.0914 51.395 96.4792C51.395 93.8528 44.9472 91.7402 36.9883 91.7402C29.0437 91.7402 22.5959 93.8528 22.5959 96.4792C22.5959 99.1057 29.0437 101.218 36.9883 101.218Z" fill="#951A4A"/>
<path d="M49.999 101.789C48.9915 102.546 47.4084 103.202 45.4222 103.688C43.0187 104.287 40.0395 104.63 36.8012 104.63C33.563 104.63 30.5838 104.287 28.1802 103.688C26.1941 103.202 24.6109 102.546 23.6035 101.789C22.8263 101.218 22.3945 100.562 22.3945 99.8906V103.688C22.3945 106.314 28.8423 108.427 36.7869 108.427C44.7314 108.427 51.1792 106.3 51.1792 103.688V99.8906C51.208 100.562 50.7762 101.204 49.999 101.789Z" fill="#951A4A"/>
<path d="M49.999 109.068C48.9915 109.825 47.4084 110.482 45.4222 110.967C43.0187 111.566 40.0395 111.909 36.8012 111.909C33.563 111.909 30.5838 111.552 28.1802 110.967C26.1941 110.482 24.6109 109.825 23.6035 109.068C22.8263 108.483 22.3945 107.841 22.3945 107.17V110.967C22.3945 113.593 28.8423 115.706 36.7869 115.706C44.7314 115.706 51.1792 113.579 51.1792 110.967V107.17C51.208 107.841 50.7762 108.483 49.999 109.068Z" fill="#951A4A"/>
<path d="M49.999 116.362C48.9915 117.105 47.4084 117.775 45.4222 118.261C43.0187 118.86 40.0395 119.203 36.8012 119.203C33.563 119.203 30.5838 118.86 28.1802 118.261C26.1941 117.775 24.6109 117.119 23.6035 116.362C22.8263 115.777 22.3945 115.135 22.3945 114.464V118.261C22.3945 120.873 28.8423 123 36.7869 123C44.7314 123 51.1792 120.873 51.1792 118.261V114.464C51.208 115.135 50.7762 115.777 49.999 116.362Z" fill="#951A4A"/>
<path d="M93.5933 107.855C101.538 107.855 107.986 105.728 107.986 103.116C107.986 100.504 101.538 98.377 93.5933 98.377C85.6487 98.377 79.2009 100.504 79.2009 103.116C79.2153 105.728 85.6487 107.855 93.5933 107.855Z" fill="#951A4A"/>
<path d="M106.618 108.426C105.611 109.182 104.013 109.839 102.042 110.31C99.6381 110.909 96.6589 111.266 93.4206 111.266C90.1824 111.266 87.2031 110.909 84.7996 110.31C82.8135 109.825 81.2303 109.168 80.2229 108.426C79.4601 107.841 79.0139 107.198 79.0139 106.527V110.324C79.0139 112.951 85.4617 115.063 93.4062 115.063C101.365 115.063 107.799 112.936 107.799 110.324V106.527C107.813 107.198 107.396 107.841 106.618 108.426Z" fill="#951A4A"/>
<path d="M106.618 115.706C105.611 116.463 104.013 117.119 102.042 117.605C99.6381 118.204 96.6589 118.547 93.4206 118.547C90.1824 118.547 87.2031 118.204 84.7996 117.605C82.8135 117.119 81.2303 116.463 80.2229 115.706C79.4601 115.135 79.0139 114.479 79.0139 113.808V117.605C79.0139 120.231 85.4617 122.344 93.4062 122.344C101.365 122.344 107.799 120.217 107.799 117.605V113.808C107.813 114.479 107.396 115.135 106.618 115.706Z" fill="#951A4A"/>
</svg>
