<svg width="86" height="97" viewBox="0 0 86 97" fill="none" xmlns="http://www.w3.org/2000/svg">
<path d="M32.71 50.8295V51.5295L23.33 52.8195V48.2695L24.78 48.0295C23.28 47.2295 21.85 46.2795 20.51 45.1795V46.4895L12.24 47.9195V43.6495L17.73 42.5595C17.16 41.9595 16.64 41.3295 16.14 40.6895L12.24 41.5095V37.2295L13.71 36.8895C13.37 36.2595 13.06 35.6195 12.78 34.9595L12.24 35.0895V33.6295C11.64 31.9995 11.2 30.3195 10.93 28.6195L0 31.7495V92.8595L36.04 96.0495V51.2195C34.92 51.1595 33.81 51.0295 32.71 50.8295ZM9.74 79.9894L2.4 79.9194V75.8895L9.74 75.7694V79.9894ZM9.74 73.6595L2.4 73.8695V69.8295L9.74 69.4395V73.6595ZM9.74 67.3394L2.4 67.8094V63.7695L9.74 63.1195V67.3394ZM9.74 61.0095L2.4 61.7495V57.7094L9.74 56.7895V61.0095ZM9.74 54.6895L2.4 55.6895V51.6595L9.74 50.4695V54.6895ZM9.74 48.3595L2.4 49.6395V45.5995L9.74 44.1395V48.3595ZM9.74 42.0295L2.4 43.5795V39.5395L9.74 37.8095V42.0295ZM9.74 35.7095L2.4 37.5195V33.4895L9.74 31.4895V35.7095ZM20.51 80.0894L12.24 80.0095V75.7295L20.51 75.6095V80.0894ZM20.51 73.3695L12.24 73.5894V69.3195L20.51 68.8895V73.3695ZM20.51 66.6495L12.24 67.1795V62.8995L20.51 62.1694V66.6495ZM20.51 59.9295L12.24 60.7595V56.4795L20.51 55.4495V59.9295ZM20.51 53.2095L12.24 54.3395V50.0595L20.51 48.7195V53.2095ZM32.71 80.1994L23.33 80.1095V75.5594L32.71 75.4194V80.1994ZM32.71 73.0294L23.33 73.2895V68.7394L32.71 68.2595V73.0294ZM32.71 65.8695L23.33 66.4695V61.9194L32.71 61.0895V65.8695ZM32.71 58.6995L23.33 59.6395V55.0994L32.71 53.9194V58.6995ZM22.01 25.4495C22.14 27.2395 22.59 28.9995 23.33 30.6595V27.7995L32.71 25.2495V30.0295L24.1 32.1595C24.5 32.8395 24.96 33.4995 25.47 34.1195L32.71 32.4195V37.1995L29.83 37.8095C31.73 38.8995 33.85 39.5795 36.04 39.7895V21.4395L22.01 25.4495Z" fill="#121C36"/>
<path d="M10.93 28.6194L0 31.7494L1.67 26.8894L10.57 24.1094C10.56 25.6194 10.68 27.1294 10.93 28.6194Z" fill="#121C36"/>
<path d="M36.0399 16.1494V21.4394L22.0099 25.4494C21.8799 23.7594 22.0199 22.0594 22.4399 20.3994L36.0399 16.1494Z" fill="#121C36"/>
<path d="M52.96 21.4394C53.26 23.0394 53.3 24.6894 53.09 26.3194L36.04 21.4394V16.1494L52.96 21.4394Z" fill="#121C36"/>
<path d="M72.0699 31.7491L64.1099 29.4691C64.3899 28.0191 64.5499 26.5491 64.5899 25.0791L70.6999 26.9891L72.0699 31.7491Z" fill="#121C36"/>
<path d="M69.77 37.5487L63.95 36.1187L66.98 38.9088L69.77 39.5588V41.4688L72.07 43.5888V31.7488L64.11 29.4688C63.95 30.2588 63.76 31.0388 63.53 31.8188L69.77 33.5087V37.5487Z" fill="#121C36"/>
<path d="M62.08 39.0792L62.43 38.4392V37.8392L62.72 37.9092L63.72 36.0592L62.43 35.7392V34.9092C61.76 36.4792 60.93 37.9992 59.94 39.4492V41.5292L58.6 41.2492C58.24 41.6992 57.86 42.1292 57.47 42.5592C57.31 42.7392 57.14 42.9092 56.97 43.0792L59 43.4792C60.19 42.1292 61.23 40.6592 62.08 39.0792Z" fill="#121C36"/>
<path d="M69.77 66.7897V67.8197L62.43 67.3397V63.1297L66.15 63.4597L63.63 61.1397L62.43 61.0197V60.0297L59.94 57.7397V60.7697L51.68 59.9397V55.4597L58.38 56.2997L55.62 53.7597L51.68 53.2197V50.1397L51.15 49.6497L51.68 49.2997V48.7497L52.35 48.8597L54.12 47.6997C54.42 47.5097 54.71 47.2997 55 47.0897L52.63 46.6797C51.43 47.4897 50.16 48.1997 48.85 48.7897V52.8397L39.49 51.5497V51.1897C38.85 51.2497 38.21 51.2697 37.57 51.2697C37.05 51.2697 36.54 51.2597 36.03 51.2197V96.0497L72.06 92.8597V68.9097L69.77 66.7897ZM48.86 80.1097L39.5 80.1997V75.4197L48.86 75.5597V80.1097ZM48.86 73.2897L39.5 73.0397V68.2597L48.86 68.7497V73.2897ZM48.86 66.4697L39.5 65.8697V61.0997L48.86 61.9297V66.4697ZM48.86 59.6597L39.5 58.7097V53.9397L48.86 55.1097V59.6597ZM59.94 80.0097L51.68 80.0897V75.6097L59.94 75.7297V80.0097ZM59.94 73.5997L51.68 73.3697V68.8997L59.94 69.3197V73.5997ZM59.94 67.1897L51.68 66.6497V62.1797L59.94 62.9097V67.1897ZM69.77 79.9197L62.43 79.9897V75.7797L69.77 75.8897V79.9197ZM69.77 73.8697L62.43 73.6697V69.4497L69.77 69.8297V73.8697Z" fill="#121C36"/>
<path d="M39.5 39.7395V39.6095L39.91 39.6895C41.5 39.4595 43.04 38.9695 44.47 38.2795L39.5 37.2295V32.4495L48.86 34.6495V35.0695C48.95 34.9895 49.02 34.9195 49.09 34.8395C50.16 33.6695 51.03 32.3795 51.68 31.0195V28.5995L52.53 28.8295C52.79 28.0095 52.97 27.1695 53.09 26.3195L36.04 21.4395V39.7895C36.55 39.8395 37.06 39.8695 37.58 39.8695C38.22 39.8695 38.86 39.8295 39.5 39.7395ZM39.5 25.2895L48.86 27.8295V32.3795L39.5 30.0695V25.2895Z" fill="#121C36"/>
<path d="M60.6801 45.7594C59.1501 47.4194 57.4501 48.8394 55.6401 50.0194L74.9001 67.7494C77.0901 69.7694 80.5001 69.6294 82.5201 67.4394L84.0901 65.7394C86.1101 63.5494 85.9701 60.1394 83.7801 58.1294L64.5201 40.3994C63.4901 42.2994 62.2101 44.0994 60.6801 45.7594Z" fill="#951A4A"/>
<path d="M19.7501 7.81915C10.6701 17.6591 11.2901 32.9992 21.1501 42.0792C31.0101 51.1592 46.3601 50.5292 55.4401 40.6791C64.5201 30.8391 63.9001 15.4991 54.0401 6.41915C44.1801 -2.66085 28.8301 -2.03085 19.7501 7.81915ZM51.1201 36.7091C44.2301 44.1791 32.5901 44.6491 25.1101 37.7691C17.6401 30.8791 17.1601 19.2491 24.0501 11.7791C30.9401 4.30915 42.5801 3.83915 50.0601 10.7191C57.5401 17.6091 58.0101 29.2391 51.1201 36.7091Z" fill="#951A4A"/>
</svg>
