<svg width="145" height="119" viewBox="0 0 145 119" fill="none" xmlns="http://www.w3.org/2000/svg">
<path d="M4.12591 59.6182L2.14502 62.5866V81.4388H6.1068V62.5866L4.12591 59.6182Z" fill="#121C36"/>
<path d="M10.7876 59.6182L8.81299 62.5866V81.4388H12.7748V62.5866L10.7876 59.6182Z" fill="#121C36"/>
<path d="M17.4558 59.6182L15.4812 62.5866V81.4388H19.4367V62.5866L17.4558 59.6182Z" fill="#121C36"/>
<path d="M24.124 59.6182L22.1431 62.5866V81.4388H26.1049V62.5866L24.124 59.6182Z" fill="#121C36"/>
<path d="M30.7859 59.6182L28.8113 62.5866V81.4388H32.7668V62.5866L30.7859 59.6182Z" fill="#121C36"/>
<path d="M37.4541 59.6182L35.4795 62.5866V81.4388H39.4287V62.5866L37.4541 59.6182Z" fill="#121C36"/>
<path d="M44.1157 59.6182L42.1411 62.5866V81.4388H46.0966V62.5866L44.1157 59.6182Z" fill="#121C36"/>
<path d="M48.8093 73.7308V81.4388H52.7648V62.5866L50.7839 59.6182L48.8093 62.5866V73.7308Z" fill="#121C36"/>
<path d="M57.4458 59.6182L55.4712 62.5866V81.4388H59.4267V62.5866L57.4458 59.6182Z" fill="#121C36"/>
<path d="M64.114 59.6182L62.1394 62.5866V81.4388H66.0949V62.5866L64.114 59.6182Z" fill="#121C36"/>
<path d="M70.7822 59.6182L68.8013 62.5866V81.4388H72.7567V62.5866L70.7822 59.6182Z" fill="#121C36"/>
<path d="M77.4441 59.6182L75.4695 62.5866V81.4388H79.425V62.5866L77.4441 59.6182Z" fill="#121C36"/>
<path d="M82.7874 76.3252H0V77.9092H82.7874V76.3252Z" fill="#121C36"/>
<path d="M82.7874 65.6367H0V67.2207H82.7874V65.6367Z" fill="#121C36"/>
<path d="M111.554 39.4004H35.0315V84.7379H111.554V39.4004Z" fill="#121C36"/>
<path d="M28.1047 37.2366H118.481L73.293 0L28.1047 37.2366Z" fill="#121C36"/>
<path d="M87.3285 67.5957H102.046V47.0411H87.3285V67.5957Z" fill="white"/>
<path d="M93.9144 67.5957H95.46V47.0411H93.9144V67.5957Z" fill="#121C36"/>
<path d="M87.3284 56.5561V58.084H102.046V56.5561H87.3284Z" fill="#121C36"/>
<path d="M49.4703 84.7402H65.166V58.0865H49.4703V84.7402Z" fill="white"/>
<path d="M52.4116 74.8158C52.9552 74.8158 53.3958 74.3803 53.3958 73.843C53.3958 73.3057 52.9552 72.8701 52.4116 72.8701C51.8681 72.8701 51.4275 73.3057 51.4275 73.843C51.4275 74.3803 51.8681 74.8158 52.4116 74.8158Z" fill="#121C36"/>
<path d="M91.7959 13.7879L100.092 20.6228V8.2002H91.7959V13.7879Z" fill="#121C36"/>
<path d="M90.9896 9.28125L100.888 9.28125V7.11727L90.9896 7.11727V9.28125Z" fill="#121C36"/>
<path d="M31.8933 90.7842L114.687 90.7842V86.9988L31.8933 86.9988V90.7842Z" fill="#121C36"/>
<path d="M114.19 111.22C130.828 107.315 141.114 90.8165 137.164 74.3689C133.214 57.9213 116.524 47.7534 99.8853 51.6582C83.2469 55.563 72.961 72.0619 76.9111 88.5096C80.8612 104.957 97.5515 115.125 114.19 111.22Z" fill="white"/>
<path d="M133.794 81.5773C133.869 66.9671 121.948 55.0632 107.169 54.9893C92.3889 54.9154 80.3469 66.6993 80.2721 81.3095C80.1973 95.9198 92.118 107.824 106.898 107.898C121.677 107.971 133.719 96.1875 133.794 81.5773Z" fill="white"/>
<path d="M107.031 56.7183C120.822 56.7183 132.039 67.8064 132.039 81.4388C132.039 95.0712 120.822 106.159 107.031 106.159C93.2408 106.159 82.0242 95.0712 82.0242 81.4388C82.0242 67.8064 93.2408 56.7183 107.031 56.7183ZM107.031 53.251C91.2852 53.251 78.5166 65.8731 78.5166 81.4388C78.5166 97.0044 91.2852 109.627 107.031 109.627C122.778 109.627 135.546 97.0044 135.546 81.4388C135.546 65.8731 122.784 53.251 107.031 53.251Z" fill="#951A4A"/>
<path d="M124.86 70.4053H94.6558C94.0261 70.4053 93.5156 70.9115 93.5156 71.5359V73.1907H121.344C123.23 73.1907 124.765 74.7123 124.765 76.5825V88.3105H124.86C125.49 88.3105 126 87.8043 126 87.1799V71.5359C126 70.9115 125.49 70.4053 124.86 70.4053V70.4053Z" fill="#951A4A"/>
<path d="M91.1401 81.1768C93.6947 81.1768 95.7729 79.1159 95.7729 76.5827V75.4521H91.1401C90.5105 75.4521 90 75.9584 90 76.5827V81.1768H91.1401Z" fill="#951A4A"/>
<path d="M114.431 76.5827V75.4521H98.0532V76.5827C98.0532 80.3627 94.952 83.4379 91.1401 83.4379H90V85.3717H91.1401C94.952 85.3717 98.0532 88.4469 98.0532 92.2269V93.3574H114.431V92.2269C114.431 88.4469 117.532 85.3717 121.344 85.3717H122.484V83.4379H121.344C117.532 83.4379 114.431 80.3627 114.431 76.5827V76.5827ZM109.135 87.2733C107.536 88.8586 104.948 88.8589 103.349 87.2733C101.75 85.6879 101.75 83.1217 103.349 81.5362C104.944 79.9544 107.54 79.9545 109.135 81.5362C110.73 83.1179 110.73 85.6916 109.135 87.2733Z" fill="#951A4A"/>
<path d="M116.711 76.5827C116.711 79.1159 118.79 81.1768 121.344 81.1768H122.484V76.5827C122.484 75.9584 121.974 75.4521 121.344 75.4521H116.711V76.5827Z" fill="#951A4A"/>
<path d="M121.344 87.6328C118.789 87.6328 116.711 89.6937 116.711 92.2269V93.3574H121.344C121.974 93.3574 122.484 92.8512 122.484 92.2269V87.6328H121.344Z" fill="#951A4A"/>
<path d="M95.7729 92.2269C95.7729 89.6937 93.6947 87.6328 91.1401 87.6328H90V92.2269C90 92.8512 90.5105 93.3574 91.1401 93.3574H95.7729V92.2269Z" fill="#951A4A"/>
</svg>
