<svg width="130" height="101" viewBox="0 0 130 101" fill="none" xmlns="http://www.w3.org/2000/svg">
<path d="M4.06595 59.5898L2.11377 62.5569V81.4002H6.01813V62.5569L4.06595 59.5898Z" fill="#121C36"/>
<path d="M10.6313 59.5898L8.6853 62.5569V81.4002H12.5897V62.5569L10.6313 59.5898Z" fill="#121C36"/>
<path d="M17.2028 59.5898L15.2568 62.5569V81.4002H19.155V62.5569L17.2028 59.5898Z" fill="#121C36"/>
<path d="M23.7744 59.5898L21.8223 62.5569V81.4002H25.7266V62.5569L23.7744 59.5898Z" fill="#121C36"/>
<path d="M30.3395 59.5898L28.3936 62.5569V81.4002H32.2917V62.5569L30.3395 59.5898Z" fill="#121C36"/>
<path d="M36.9113 59.5898L34.9653 62.5569V81.4002H38.8573V62.5569L36.9113 59.5898Z" fill="#121C36"/>
<path d="M43.4765 59.5898L41.5305 62.5569V81.4002H45.4287V62.5569L43.4765 59.5898Z" fill="#121C36"/>
<path d="M48.1021 73.6958V81.4002H52.0002V62.5569L50.048 59.5898L48.1021 62.5569V73.6958Z" fill="#121C36"/>
<path d="M56.6134 59.5898L54.6675 62.5569V81.4002H58.5656V62.5569L56.6134 59.5898Z" fill="#121C36"/>
<path d="M63.1847 59.5898L61.2388 62.5569V81.4002H65.1369V62.5569L63.1847 59.5898Z" fill="#121C36"/>
<path d="M69.7564 59.5898L67.8042 62.5569V81.4002H71.7023V62.5569L69.7564 59.5898Z" fill="#121C36"/>
<path d="M76.3217 59.5898L74.3757 62.5569V81.4002H78.2739V62.5569L76.3217 59.5898Z" fill="#121C36"/>
<path d="M81.5876 76.2891H0V77.8723H81.5876V76.2891Z" fill="#121C36"/>
<path d="M81.5876 65.6055H0V67.1887H81.5876V65.6055Z" fill="#121C36"/>
<path d="M109.938 39.3818H34.5239V84.698H109.938V39.3818Z" fill="#121C36"/>
<path d="M27.6973 37.2191H116.764L72.2307 0L27.6973 37.2191Z" fill="#121C36"/>
<path d="M86.0628 67.5645H100.567V47.0195H86.0628V67.5645Z" fill="white"/>
<path d="M92.5535 67.5645H94.0767V47.0195H92.5535V67.5645Z" fill="#121C36"/>
<path d="M86.0627 56.5295V58.0566H100.567V56.5295H86.0627Z" fill="#121C36"/>
<path d="M48.7534 84.7002H64.2217V58.059H48.7534V84.7002Z" fill="white"/>
<path d="M51.652 74.7807C52.1877 74.7807 52.6219 74.3454 52.6219 73.8083C52.6219 73.2713 52.1877 72.8359 51.652 72.8359C51.1164 72.8359 50.6821 73.2713 50.6821 73.8083C50.6821 74.3454 51.1164 74.7807 51.652 74.7807Z" fill="#121C36"/>
<path d="M90.4658 13.7823L98.6414 20.614V8.19727H90.4658V13.7823Z" fill="#121C36"/>
<path d="M89.6711 9.27637L99.4258 9.27637V7.11341L89.6711 7.11341V9.27637Z" fill="#121C36"/>
<path d="M31.4311 90.7412L113.025 90.7412V86.9576L31.4311 86.9576V90.7412Z" fill="#121C36"/>
<path d="M82.7919 100.731C78.7693 100.035 75.0765 97.9592 72.3926 94.8856C65.917 87.4774 66.6951 76.2008 74.1269 69.7383C78.2088 66.1918 83.6162 64.6879 88.9576 65.6139C90.3226 65.8503 91.6481 66.2444 92.9142 66.7829L119.127 44L124.152 45.898L126.275 44.046L130.001 48.3083L128.326 56.5703L124.264 60.0971L121.527 59.9461L119.911 61.345L119.918 63.8735L115.223 67.952L112.513 66.5925L112.73 68.6021L107.87 72.8185L105.859 71.7743L105.556 72.037L105.714 76.2074L103.116 78.4601C104.909 84.9882 102.812 92.0878 97.616 96.5997C93.5406 100.153 88.1333 101.657 82.7919 100.731Z" fill="white"/>
<path d="M126.024 47.7568L124.698 48.9127L119.673 47.0146L93.3224 69.9092C87.8622 66.8619 80.8459 67.3873 75.8605 71.7219C69.5102 77.2386 68.8508 86.8404 74.3834 93.165C79.9161 99.4896 89.5504 100.146 95.8942 94.6296C100.879 90.295 102.357 83.4384 100.075 77.6327L103.036 75.0582L102.878 70.8878L105.482 68.622L107.494 69.6662L109.96 67.5252L109.736 65.4301L112.05 63.4205L114.827 64.8128L117.273 62.6849L117.266 60.1564L120.597 57.2666L123.333 57.4177L125.912 55.1781L127.151 49.0572L126.024 47.7568Z" fill="#951A4A"/>
<path d="M88.4623 80.9227C89.7086 82.3478 89.5635 84.5086 88.1325 85.7564C86.7016 87.0042 84.532 86.8532 83.2857 85.428C82.0394 83.9963 82.191 81.8421 83.6154 80.5943C85.0464 79.3464 87.2225 79.4975 88.4623 80.9227Z" fill="white"/>
<path d="M122.107 51.1979C122.074 51.3424 122.001 51.4803 121.883 51.5854L97.2988 73.1796C97.0021 73.4357 96.5536 73.4095 96.2965 73.1139C96.0393 72.8184 96.0657 72.3718 96.3558 72.1156L120.94 50.528C121.236 50.2719 121.685 50.2982 121.942 50.5937C122.094 50.7579 122.146 50.9877 122.107 51.1979Z" fill="white"/>
</svg>
