<svg width="108" height="88" viewBox="0 0 108 88" fill="none" xmlns="http://www.w3.org/2000/svg">
<path d="M54.7202 11.1602H31.4702V13.5802H54.7202V11.1602Z" fill="#121C36"/>
<path d="M60.23 17.3301H25.96V19.7501H60.23V17.3301Z" fill="#121C36"/>
<path d="M43.0899 33.5H6.3999V35.92H43.0899V33.5Z" fill="#121C36"/>
<path d="M62.4899 41.9902H6.3999V44.4102H62.4899V41.9902Z" fill="#121C36"/>
<path d="M34.4399 50.4697H6.3999V52.8897H34.4399V50.4697Z" fill="#121C36"/>
<path d="M19.91 0L19.32 0.82L0.35 27.91L0 28.4V29.01L0.02 85.9V87.81H72.81V55.44C72.59 55.52 72.37 55.59 72.14 55.63L71.91 55.87C71.82 56.64 71.49 57.35 70.95 57.92L70.89 57.98V85.9H1.94L1.92 29.01L20.89 1.91H70.89V40.75L72.81 38.64V0H19.91Z" fill="#121C36"/>
<path d="M20.8899 1.91016V2.18016V29.0102H1.91992L20.8899 1.91016Z" fill="#121C36"/>
<path d="M10.6499 68.4697V77.3597H16.5399V72.5697H19.5899V77.3597H25.4799V68.4697H10.6499ZM15.2999 73.1697H12.4499V70.1297H15.2999V73.1697ZM23.6699 73.1697H20.8099V70.1297H23.6699V73.1697Z" fill="#121C36"/>
<path d="M9.30005 68.0502H26.83L18.07 60.7402L9.30005 68.0502Z" fill="#121C36"/>
<path d="M22.0867 73.1602H22.3867V70.1202H22.0867V73.1602Z" fill="#121C36"/>
<path d="M20.8135 71.4939V71.7939H23.6635V71.4939H20.8135Z" fill="#121C36"/>
<path d="M13.7205 73.1602H14.0205V70.1202H13.7205V73.1602Z" fill="#121C36"/>
<path d="M12.4502 71.49V71.79H15.3002V71.49H12.4502Z" fill="#121C36"/>
<path d="M16.9199 75.3997C16.9199 75.4997 17.0099 75.5797 17.1099 75.5797C17.2199 75.5797 17.2999 75.4997 17.2999 75.3997C17.2999 75.2997 17.2099 75.2197 17.1099 75.2197C17.0099 75.2297 16.9199 75.3097 16.9199 75.3997Z" fill="#121C36"/>
<path d="M21.6499 63.3097L23.2599 64.6597V62.2197H21.6499V63.3097Z" fill="#121C36"/>
<path d="M21.4938 62.4258H23.4138V62.0058H21.4938V62.4258Z" fill="#121C36"/>
<path d="M10.0413 78.5508H26.0913V77.8108H10.0413V78.5508Z" fill="#121C36"/>
<path d="M30.37 82.1898H5.77002V57.5898H30.37V82.1898ZM7.04002 80.9098H29.09V58.8698H7.04002V80.9098Z" fill="#121C36"/>
<path d="M63.7098 77.3799H39.0898V78.9699H63.7098V77.3799Z" fill="#951A4A"/>
<path d="M86.24 23.9503C86.21 23.9203 86.18 23.8903 86.16 23.8503C86.03 23.6503 86.1 23.3803 86.3 23.2503C89.96 20.9703 90.22 20.5803 91.17 19.1103C91.69 18.3203 92.39 17.2303 93.87 15.4403C95.51 13.4503 97.04 12.5503 98.44 12.7603C100.17 13.0203 100.95 14.8903 100.99 14.9603C101.08 15.1803 100.97 15.4403 100.75 15.5303C100.53 15.6203 100.27 15.5103 100.18 15.2903C100.17 15.2803 99.55 13.8003 98.3 13.6203C97.24 13.4603 95.94 14.2803 94.54 15.9903C93.1 17.7503 92.41 18.8103 91.9 19.5803C90.89 21.1303 90.58 21.6003 86.76 23.9803C86.59 24.0903 86.38 24.0703 86.24 23.9503Z" fill="#951A4A"/>
<path d="M105.21 15.7695L101.02 12.0695L103.77 9.01953L107.96 12.7195L105.21 15.7695Z" fill="#951A4A"/>
<path d="M107.96 12.7204C107.78 12.9304 106.69 12.2704 105.53 11.2504C104.37 10.2304 103.58 9.23041 103.77 9.02041C103.95 8.81041 105.04 9.47041 106.2 10.4904C107.36 11.5104 108.15 12.5104 107.96 12.7204Z" fill="#951A4A"/>
<path d="M58.7999 66.0901L58.9299 65.9401L54.8799 62.2201L60.6299 55.8701C60.6799 56.0001 60.7599 56.1101 60.8599 56.2101L64.4599 59.5301C64.5599 59.6201 64.6699 59.6801 64.7899 59.7201L58.7999 66.0901Z" fill="#951A4A"/>
<path d="M67.99 56.3102L65.92 58.5102C65.88 58.3902 65.81 58.2802 65.71 58.1902L62.09 54.8502C61.98 54.7602 61.86 54.6902 61.73 54.6602L63.76 52.4102C63.81 52.5402 63.88 52.6602 63.99 52.7502L67.66 56.1302C67.76 56.2202 67.87 56.2802 67.99 56.3102Z" fill="#951A4A"/>
<path d="M70.8701 52.7202C70.9601 52.8002 71.0701 52.8702 71.1901 52.9102L70.6901 53.4402L69.1301 55.1002C69.0901 54.9802 69.0101 54.8802 68.9201 54.7902L65.2201 51.3902C65.1201 51.3002 65.0001 51.2302 64.8701 51.1902L66.4001 49.5002L66.9001 48.9502C66.9501 49.0802 67.0301 49.1902 67.1301 49.2802L70.8701 52.7202Z" fill="#951A4A"/>
<path d="M104.7 17.2401L87.17 35.8901L86.42 36.7101L78.1 45.5601L77.09 46.6301L74.89 48.9701L73.89 50.0401L72.34 51.6901C72.29 51.5801 72.22 51.4801 72.12 51.3901L68.36 47.9301C68.26 47.8301 68.13 47.7701 68 47.7301L69.54 46.0401L70.53 44.9501L72.68 42.5801L73.67 41.4901L99.74 12.7401C99.96 12.5001 100.32 12.4801 100.56 12.7001L104.67 16.4301C104.91 16.6401 104.92 17.0101 104.7 17.2401Z" fill="#951A4A"/>
<path d="M48.75 73.83L47.9799 74.31L47.7 74.06L48.08 73.25L48.75 73.83Z" fill="#951A4A"/>
<path d="M47.99 74.3101C47.97 74.3301 47.89 74.2901 47.81 74.2201C47.73 74.1501 47.68 74.0801 47.7 74.0501C47.72 74.0301 47.8 74.0701 47.88 74.1401C47.96 74.2201 48.01 74.2901 47.99 74.3101Z" fill="#951A4A"/>
<path d="M54.58 62.54L48.14 72.67C48.07 72.75 48.3 73.05 48.63 73.35C48.97 73.65 49.29 73.81 49.36 73.73L58.62 66.27L54.58 62.54Z" fill="#951A4A"/>
<path d="M67.76 47.8798C67.93 47.8798 68.1 47.9398 68.24 48.0698L72 51.5198C72.29 51.7798 72.3 52.2298 72.04 52.5198L72 52.5498C71.86 52.6998 71.67 52.7698 71.48 52.7698C71.31 52.7698 71.13 52.7098 70.99 52.5798L67.25 49.1398C66.96 48.8798 66.94 48.4198 67.2 48.1298L67.23 48.0898C67.38 47.9498 67.57 47.8798 67.76 47.8798ZM67.76 47.5098C67.46 47.5098 67.17 47.6398 66.97 47.8598L66.94 47.8998C66.54 48.3398 66.58 49.0198 67.01 49.4198L70.75 52.8598C70.95 53.0398 71.21 53.1398 71.48 53.1398C71.78 53.1398 72.06 53.0198 72.27 52.7998L72.3 52.7598C72.5 52.5498 72.6 52.2798 72.59 51.9898C72.58 51.6998 72.46 51.4398 72.25 51.2498L68.49 47.7898C68.29 47.6098 68.03 47.5098 67.76 47.5098Z" fill="#951A4A"/>
<path d="M64.6201 51.3405C64.7901 51.3405 64.9601 51.4005 65.1001 51.5305L68.7901 54.9305C69.0801 55.1905 69.0901 55.6405 68.8301 55.9305L68.8001 55.9705C68.6601 56.1205 68.4701 56.1905 68.2801 56.1905C68.1101 56.1905 67.9301 56.1305 67.7901 56.0005L64.1201 52.6205C63.8301 52.3605 63.8101 51.9005 64.0701 51.6105L64.1001 51.5705C64.2401 51.4205 64.4301 51.3405 64.6201 51.3405ZM64.6201 50.9805C64.3201 50.9805 64.0301 51.1105 63.8301 51.3305L63.8001 51.3705C63.4001 51.8105 63.4401 52.4905 63.8701 52.8905L67.5401 56.2705C67.7401 56.4505 68.0001 56.5505 68.2701 56.5505C68.5701 56.5505 68.8501 56.4305 69.0601 56.2105L69.0901 56.1705C69.2901 55.9605 69.3901 55.6905 69.3801 55.4005C69.3701 55.1105 69.2501 54.8505 69.0401 54.6605L65.3501 51.2605C65.1501 51.0805 64.8901 50.9805 64.6201 50.9805Z" fill="#951A4A"/>
<path d="M61.49 54.8004C61.66 54.8004 61.83 54.8604 61.97 54.9904L65.5899 58.3204C65.8799 58.5804 65.8899 59.0304 65.6299 59.3204L65.5999 59.3604C65.4599 59.5104 65.27 59.5904 65.08 59.5904C64.91 59.5904 64.7299 59.5304 64.5999 59.4004L60.9999 56.0804C60.7099 55.8204 60.6899 55.3604 60.9499 55.0704L60.9799 55.0304C61.0999 54.8804 61.3 54.8004 61.49 54.8004ZM61.49 54.4404C61.19 54.4404 60.8999 54.5704 60.6999 54.7904L60.6699 54.8304C60.2699 55.2704 60.31 55.9504 60.74 56.3504L64.3399 59.6704C64.5399 59.8504 64.7999 59.9504 65.0699 59.9504C65.3699 59.9504 65.6599 59.8304 65.8599 59.6104L65.8899 59.5704C66.0899 59.3604 66.1899 59.0904 66.1799 58.8004C66.1699 58.5104 66.0499 58.2504 65.8399 58.0604L62.22 54.7304C62.01 54.5404 61.76 54.4404 61.49 54.4404Z" fill="#951A4A"/>
</svg>
