<svg width="12" height="21" viewBox="0 0 12 21" fill="none" xmlns="http://www.w3.org/2000/svg">
<path d="M11.5559 11.2804L2.65567 20.1805C2.44982 20.3865 2.17502 20.5 1.88202 20.5C1.58901 20.5 1.31422 20.3865 1.10837 20.1805L0.452924 19.5252C0.0264238 19.0982 0.0264238 18.4042 0.452924 17.9779L7.92669 10.5041L0.444632 3.02209C0.23878 2.81608 0.125122 2.54145 0.125122 2.2486C0.125122 1.95543 0.23878 1.6808 0.444632 1.47463L1.10007 0.819509C1.30609 0.613494 1.58072 0.5 1.87373 0.5C2.16673 0.5 2.44153 0.613494 2.64738 0.819509L11.5559 9.72773C11.7623 9.93439 11.8756 10.2103 11.8749 10.5037C11.8756 10.7981 11.7623 11.0739 11.5559 11.2804Z" fill="white"/>
</svg>
