<svg width="27" height="28" viewBox="0 0 27 28" fill="none" xmlns="http://www.w3.org/2000/svg">
<path d="M25.418 15.9824V2.51562C25.418 2.06253 25.0639 1.69531 24.627 1.69531H20.6191V0.820312C20.6191 0.367218 20.265 0 19.8281 0C19.3912 0 19.0371 0.367218 19.0371 0.820312V1.69531H15.873V0.820312C15.873 0.367218 15.5189 0 15.082 0C14.6451 0 14.291 0.367218 14.291 0.820312V1.69531H11.127V0.820312C11.127 0.367218 10.7729 0 10.3359 0C9.89902 0 9.54492 0.367218 9.54492 0.820312V1.69531H6.38086V0.820312C6.38086 0.367218 6.02676 0 5.58984 0C5.15293 0 4.79883 0.367218 4.79883 0.820312V1.69531H0.791016C0.354103 1.69531 0 2.06253 0 2.51562V23.8984C0 24.3515 0.354103 24.7188 0.791016 24.7188H13.9643C15.2431 26.6958 17.4178 28 19.8809 28C23.8063 28 27 24.688 27 20.6172C27 18.8633 26.4067 17.2505 25.418 15.9824ZM4.79883 3.33594V4.15625C4.79883 4.60934 5.15293 4.97656 5.58984 4.97656C6.02676 4.97656 6.38086 4.60934 6.38086 4.15625V3.33594H9.54492V4.15625C9.54492 4.60934 9.89902 4.97656 10.3359 4.97656C10.7729 4.97656 11.127 4.60934 11.127 4.15625V3.33594H14.291V4.15625C14.291 4.60934 14.6451 4.97656 15.082 4.97656C15.5189 4.97656 15.873 4.60934 15.873 4.15625V3.33594H19.0371V4.15625C19.0371 4.60934 19.3912 4.97656 19.8281 4.97656C20.265 4.97656 20.6191 4.60934 20.6191 4.15625V3.33594H23.8359V6.61719H1.58203V3.33594H4.79883ZM1.58203 23.0781V8.25781H23.8359V14.4815C22.704 13.6943 21.3432 13.2344 19.8809 13.2344C17.3813 13.2344 15.1788 14.5774 13.9083 16.6039C13.8014 16.5479 13.6809 16.5156 13.5527 16.5156H11.9707C11.5338 16.5156 11.1797 16.8828 11.1797 17.3359C11.1797 17.789 11.5338 18.1562 11.9707 18.1562H13.169C12.9904 18.6788 12.8668 19.2282 12.806 19.7969H11.9707C11.5338 19.7969 11.1797 20.1641 11.1797 20.6172C11.1797 21.0703 11.5338 21.4375 11.9707 21.4375H12.806C12.8668 22.0062 12.9902 22.5556 13.169 23.0781H1.58203ZM19.8809 26.3594C16.8276 26.3594 14.3438 23.7835 14.3438 20.6172C14.3438 17.4509 16.8276 14.875 19.8809 14.875C22.9341 14.875 25.418 17.4509 25.418 20.6172C25.418 23.7835 22.9341 26.3594 19.8809 26.3594Z" fill="white"/>
<path d="M23.0449 19.7969H20.6719V17.3359C20.6719 16.8828 20.3178 16.5156 19.8809 16.5156C19.4439 16.5156 19.0898 16.8828 19.0898 17.3359V20.6172C19.0898 21.0703 19.4439 21.4375 19.8809 21.4375H23.0449C23.4818 21.4375 23.8359 21.0703 23.8359 20.6172C23.8359 20.1641 23.4818 19.7969 23.0449 19.7969Z" fill="white"/>
<path d="M7.17188 9.95312H5.58984C5.15293 9.95312 4.79883 10.3203 4.79883 10.7734C4.79883 11.2265 5.15293 11.5938 5.58984 11.5938H7.17188C7.60879 11.5938 7.96289 11.2265 7.96289 10.7734C7.96289 10.3203 7.60879 9.95312 7.17188 9.95312Z" fill="white"/>
<path d="M7.17188 13.2344H5.58984C5.15293 13.2344 4.79883 13.6016 4.79883 14.0547C4.79883 14.5078 5.15293 14.875 5.58984 14.875H7.17188C7.60879 14.875 7.96289 14.5078 7.96289 14.0547C7.96289 13.6016 7.60879 13.2344 7.17188 13.2344Z" fill="white"/>
<path d="M7.17188 16.5156H5.58984C5.15293 16.5156 4.79883 16.8828 4.79883 17.3359C4.79883 17.789 5.15293 18.1562 5.58984 18.1562H7.17188C7.60879 18.1562 7.96289 17.789 7.96289 17.3359C7.96289 16.8828 7.60879 16.5156 7.17188 16.5156Z" fill="white"/>
<path d="M11.9707 11.5938H13.5527C13.9896 11.5938 14.3438 11.2265 14.3438 10.7734C14.3438 10.3203 13.9896 9.95312 13.5527 9.95312H11.9707C11.5338 9.95312 11.1797 10.3203 11.1797 10.7734C11.1797 11.2265 11.5338 11.5938 11.9707 11.5938Z" fill="white"/>
<path d="M11.9707 14.875H13.5527C13.9896 14.875 14.3438 14.5078 14.3438 14.0547C14.3438 13.6016 13.9896 13.2344 13.5527 13.2344H11.9707C11.5338 13.2344 11.1797 13.6016 11.1797 14.0547C11.1797 14.5078 11.5338 14.875 11.9707 14.875Z" fill="white"/>
<path d="M7.17188 19.7969H5.58984C5.15293 19.7969 4.79883 20.1641 4.79883 20.6172C4.79883 21.0703 5.15293 21.4375 5.58984 21.4375H7.17188C7.60879 21.4375 7.96289 21.0703 7.96289 20.6172C7.96289 20.1641 7.60879 19.7969 7.17188 19.7969Z" fill="white"/>
<path d="M18.2988 11.5938H19.8809C20.3178 11.5938 20.6719 11.2265 20.6719 10.7734C20.6719 10.3203 20.3178 9.95312 19.8809 9.95312H18.2988C17.8619 9.95312 17.5078 10.3203 17.5078 10.7734C17.5078 11.2265 17.8619 11.5938 18.2988 11.5938Z" fill="white"/>
</svg>
