<svg width="187" height="231" viewBox="0 0 187 231" fill="none" xmlns="http://www.w3.org/2000/svg">
<g opacity="0.15">
<g opacity="0.15">
<path opacity="0.15" d="M33.4832 74.628C35.2205 74.3118 37.5896 74.1537 40.4325 74.1537C44.0651 74.1537 46.5921 74.9442 48.3294 76.5253C49.9088 77.7902 50.8565 79.8457 50.8565 82.3754C50.8565 84.9052 50.0668 86.9607 48.6453 88.3837C46.75 90.4391 43.5913 91.3878 40.1166 91.3878C39.011 91.3878 38.0634 91.3878 37.2737 91.0715V102.297H33.6411V74.628H33.4832ZM37.1158 88.2256C37.9055 88.3837 38.8531 88.5418 40.1166 88.5418C44.5389 88.5418 47.2239 86.4863 47.2239 82.5336C47.2239 78.897 44.5389 76.9997 40.5904 76.9997C39.011 76.9997 37.7475 77.1578 37.1158 77.3159V88.2256Z" fill="black"/>
<path opacity="0.15" d="M55.5946 74.6282C57.8058 74.312 60.4907 73.9957 63.3336 73.9957C68.5456 73.9957 72.1782 75.2606 74.7052 77.4742C77.2323 79.6877 78.6537 83.0081 78.6537 87.5933C78.6537 92.1785 77.2323 95.9731 74.5473 98.5029C71.8623 101.191 67.598 102.614 62.2281 102.614C59.701 102.614 57.4899 102.456 55.5946 102.298V74.6282ZM59.2272 99.4516C60.1748 99.6097 61.4384 99.6097 62.8598 99.6097C70.5988 99.6097 74.8632 95.3407 74.8632 87.7514C74.8632 81.1107 71.2306 76.9998 63.4916 76.9998C61.5963 76.9998 60.1748 77.1579 59.2272 77.3161V99.4516V99.4516Z" fill="black"/>
<path opacity="0.15" d="M83.234 74.312H98.3962V77.3161H86.8666V86.6447H97.4485V89.6488H86.8666V102.298H83.234V74.312Z" fill="black"/>
</g>
</g>
<path d="M168.995 195.267H49.5929C39.6428 195.267 31.7458 187.203 31.7458 177.4V17.8665C31.5879 8.06366 39.6428 0 49.5929 0H135.512L187 52.0185V177.242C187 187.203 178.945 195.267 168.995 195.267ZM49.5929 9.48665C44.8548 9.48665 41.0642 13.2813 41.0642 17.8665V177.242C41.0642 181.828 44.8548 185.622 49.435 185.622H168.995C173.575 185.622 177.366 181.828 177.366 177.242V55.9713L131.563 9.48665H49.5929Z" fill="#121C36"/>
<path d="M133.617 4.74329V40.7926C133.617 48.0657 139.618 53.9158 146.726 53.9158H182.104L133.617 4.74329Z" fill="#121C36"/>
<path d="M99.6596 116.528H29.3767C15.7939 116.528 4.73816 105.46 4.73816 92.0205V75.1026C4.73816 61.6632 15.7939 50.5955 29.3767 50.5955H99.6596C113.242 50.5955 124.298 61.6632 124.298 75.2608V92.1786C124.14 105.46 113.084 116.528 99.6596 116.528Z" fill="#951A4A"/>
<path d="M99.6596 121.271H29.3767C13.109 121.271 0 108.148 0 92.0206V75.1027C0 58.9754 13.109 45.8522 29.3767 45.8522H99.6596C115.769 45.8522 129.036 58.9754 129.036 75.2608V92.1787C128.878 108.148 115.769 121.271 99.6596 121.271ZM29.3767 55.3388C18.3209 55.3388 9.47635 64.193 9.47635 75.1027V92.0206C9.47635 102.93 18.3209 111.943 29.3767 111.943H99.6596C110.557 111.943 119.56 103.088 119.56 92.0206V75.1027C119.402 64.193 110.557 55.3388 99.6596 55.3388H29.3767Z" fill="white"/>
<path d="M28.745 69.8847C30.4823 69.5685 32.8514 69.4104 35.6943 69.4104C39.3269 69.4104 41.8539 70.201 43.5913 71.7821C45.1707 73.047 46.1183 75.1024 46.1183 77.6322C46.1183 80.1619 45.3286 82.2174 43.9072 83.6404C42.0119 85.6958 38.8531 86.6445 35.3784 86.6445C34.2729 86.6445 33.3252 86.6445 32.5355 86.3283V97.5541H28.9029V69.8847H28.745ZM32.3776 83.4823C33.1673 83.6404 34.1149 83.7985 35.3784 83.7985C39.8007 83.7985 42.4857 81.743 42.4857 77.7903C42.4857 74.1537 39.8007 72.2564 35.8523 72.2564C34.2729 72.2564 33.0094 72.4145 32.3776 72.5726V83.4823Z" fill="white"/>
<path d="M50.8564 69.8849C53.0676 69.5687 55.7526 69.2524 58.5955 69.2524C63.8075 69.2524 67.4401 70.5173 69.9671 72.7309C72.4941 74.9444 73.9156 78.2648 73.9156 82.85C73.9156 87.4352 72.4941 91.2299 69.8091 93.7596C67.1242 96.4475 62.8598 97.8705 57.4899 97.8705C54.9629 97.8705 52.7517 97.7124 50.8564 97.5543V69.8849ZM54.489 94.7083C55.4367 94.8664 56.7002 94.8664 58.1216 94.8664C65.8607 94.8664 70.125 90.5974 70.125 83.0081C70.125 76.3674 66.4924 72.2566 58.7534 72.2566C56.8581 72.2566 55.4367 72.4147 54.489 72.5728V94.7083V94.7083Z" fill="white"/>
<path d="M78.4958 69.5687H93.658V72.5728H82.1284V81.9014H92.7104V84.9055H82.1284V97.5544H78.4958V69.5687Z" fill="white"/>
<path d="M129.51 171.392V131.865H88.4459V171.392H66.8082L108.662 223.569L150.674 171.392H129.51Z" fill="#951A4A"/>
<path d="M108.662 231L56.8582 166.649H83.7078V127.121H134.248V166.649H160.466L108.662 231ZM76.6006 176.136L108.662 215.98L140.724 176.136H124.772V136.608H93.1842V176.136H76.6006V176.136Z" fill="white"/>
</svg>
