<svg width="38" height="49" viewBox="0 0 38 49" fill="none" xmlns="http://www.w3.org/2000/svg">
<path d="M37.3611 10.7132C26.4048 -0.243049 27.0231 0.30538 26.6185 0.133799C26.1906 -0.0475335 27.9768 0.0080186 1.57595 0.0080186C0.705631 0.0080186 0 0.713649 0 1.58397V47.2864C0 48.1567 0.705631 48.8624 1.57595 48.8624H10.2437C11.114 48.8624 11.8196 48.1567 11.8196 47.2864C11.8196 46.4161 11.114 45.7105 10.2437 45.7105H3.15189V3.15991H24.4272V11.8276C24.4272 12.6979 25.1328 13.4036 26.0031 13.4036H34.6708V45.7105H27.5791C26.7088 45.7105 26.0031 46.4161 26.0031 47.2864C26.0031 48.1567 26.7088 48.8624 27.5791 48.8624H36.2468C37.1171 48.8624 37.8227 48.1567 37.8227 47.2864V11.8276C37.8227 11.3999 37.6447 10.9969 37.3611 10.7132ZM27.5791 10.2516V5.3886L32.4421 10.2517H27.5791V10.2516ZM26.5941 34.9742C26.5941 30.738 23.1476 27.2915 18.9114 27.2915C14.6751 27.2915 11.2286 30.738 11.2286 34.9742C11.2286 37.2911 12.261 39.3701 13.888 40.7798V47.2863C13.888 48.4633 15.1367 49.2271 16.1847 48.6878L18.9114 47.2855C21.8675 48.8058 21.8566 48.8623 22.3587 48.8623C23.2286 48.8623 23.9347 48.1565 23.9347 47.2863V40.7798C25.5618 39.3701 26.5941 37.2911 26.5941 34.9742V34.9742ZM18.9114 30.4434C21.4096 30.4434 23.4422 32.476 23.4422 34.9742C23.4422 37.4725 21.4096 39.5051 18.9114 39.5051C16.4131 39.5051 14.3805 37.4725 14.3805 34.9742C14.3805 32.476 16.4131 30.4434 18.9114 30.4434ZM20.7828 44.7037L19.6321 44.112C19.1798 43.8793 18.6429 43.8793 18.1906 44.112L17.0398 44.7037V42.4255C18.2686 42.7342 19.5531 42.7344 20.7827 42.4255V44.7037H20.7828ZM6.30379 11.8275C6.30379 10.9572 7.00942 10.2516 7.87973 10.2516H19.6993C20.5697 10.2516 21.2753 10.9572 21.2753 11.8275C21.2753 12.6978 20.5697 13.4035 19.6993 13.4035H7.87973C7.00932 13.4035 6.30379 12.6979 6.30379 11.8275ZM6.30379 20.4952C6.30379 19.6249 7.00942 18.9193 7.87973 18.9193H29.943C30.8133 18.9193 31.5189 19.6249 31.5189 20.4952C31.5189 21.3655 30.8133 22.0712 29.943 22.0712H7.87973C7.00932 22.0712 6.30379 21.3656 6.30379 20.4952Z" fill="#951A4A"/>
</svg>
