<svg width="49" height="43" viewBox="0 0 49 43" fill="none" xmlns="http://www.w3.org/2000/svg">
<path d="M44.1354 0H16.0207C13.4132 0 11.2919 2.12136 11.2919 4.72879V9.63039L4.21109 16.7112C3.02022 17.902 2.3644 19.4853 2.3644 21.1694V32.742C0.974033 33.3513 0 34.74 0 36.3526V38.6185C0 40.7914 1.76778 42.5592 3.94066 42.5592H14.3458C16.5187 42.5592 18.2864 40.7914 18.2864 38.6185V36.3526C18.2864 35.1044 17.7023 33.9906 16.7938 33.2681L22.2961 25.2831C23.5757 23.4262 23.347 20.9211 21.7524 19.3262C20.2219 17.7958 17.8622 17.5139 16.0144 18.6407L14.4443 19.5981V4.72879C14.4443 3.85968 15.1514 3.15253 16.0206 3.15253H44.1354C45.0045 3.15253 45.7117 3.85968 45.7117 4.72879V23.3484C45.7117 24.2175 45.0045 24.9247 44.1354 24.9247H25.9756C25.1051 24.9247 24.3993 25.6304 24.3993 26.501C24.3993 27.3715 25.1051 28.0772 25.9756 28.0772H44.1354C46.7428 28.0772 48.8642 25.9559 48.8642 23.3484V4.72879C48.8642 2.12136 46.7428 0 44.1354 0V0ZM15.1339 38.6185C15.1339 39.053 14.7803 39.4066 14.3458 39.4066H3.94066C3.50611 39.4066 3.15253 39.053 3.15253 38.6185V36.3526C3.15253 35.9181 3.50611 35.5645 3.94066 35.5645H14.3458C14.7803 35.5645 15.1339 35.9181 15.1339 36.3526V38.6185ZM10.0162 22.2981C9.27297 22.7514 9.03771 23.7213 9.49098 24.4646C9.94416 25.2078 10.9142 25.4429 11.6574 24.9898L17.6556 21.3324C19.0548 20.4785 20.6267 22.1497 19.7003 23.4942L13.5554 32.4119H5.51693V21.1694C5.51693 20.3274 5.84489 19.5357 6.44032 18.9403L11.2919 14.0887V21.5203L10.0162 22.2981ZM25.1264 11.6648V5.73041C25.1264 4.85982 24.4207 4.15415 23.5502 4.15415H17.6157C16.7452 4.15415 16.0395 4.85982 16.0395 5.73041V11.6648C16.0395 12.5353 16.7452 13.241 17.6157 13.241H23.5502C24.4207 13.241 25.1264 12.5353 25.1264 11.6648ZM21.9739 10.0885H19.192V7.30668H21.9739V10.0885ZM38.9797 17.9887C38.1093 17.9887 37.4035 17.2831 37.4035 16.4125C37.4035 15.5419 38.1093 14.8362 38.9797 14.8362H40.7601C41.6306 14.8362 42.3364 15.5419 42.3364 16.4125C42.3364 17.2831 41.6306 17.9887 40.7601 17.9887H38.9797ZM21.9739 16.4125C21.9739 15.5419 22.6797 14.8362 23.5502 14.8362H27.1109C27.9814 14.8362 28.6871 15.5419 28.6871 16.4125C28.6871 17.2831 27.9814 17.9887 27.1109 17.9887H23.5502C22.6796 17.9887 21.9739 17.2831 21.9739 16.4125ZM31.2649 17.9887C30.3944 17.9887 29.6886 17.2831 29.6886 16.4125C29.6886 15.5419 30.3944 14.8362 31.2649 14.8362H34.8256C35.6961 14.8362 36.4019 15.5419 36.4019 16.4125C36.4019 17.2831 35.6961 17.9887 34.8256 17.9887H31.2649Z" fill="#951A4A"/>
</svg>
