<svg width="43" height="49" viewBox="0 0 43 49" fill="none" xmlns="http://www.w3.org/2000/svg">
<path d="M23.9165 45.7117H7.88384C4.91228 45.7117 2.68088 43.0045 3.23977 40.0917L5.81873 26.6515C6.97463 20.6275 12.2657 16.2552 18.3996 16.2552C24.5335 16.2552 29.8246 20.6275 30.9804 26.6516L31.2454 28.0324C31.4094 28.8874 32.2354 29.4469 33.0905 29.2833C33.9454 29.1192 34.5055 28.2932 34.3414 27.4381L34.0765 26.0574C32.9723 20.3025 28.8394 15.7575 23.5266 13.9497C24.7312 11.8239 24.0307 9.10115 21.8942 7.82812L24.9048 2.33366C25.4792 1.28535 24.7196 0 23.5225 0H13.2767C12.0812 0 11.3192 1.28387 11.8943 2.33366L14.905 7.82812C12.7688 9.10106 12.0677 11.8237 13.2726 13.9497C7.95979 15.7576 3.82693 20.3025 2.72265 26.0574L0.143786 39.4977C-0.789658 44.3618 2.94067 48.8642 7.88384 48.8642H23.9165C24.787 48.8642 25.4928 48.1585 25.4928 47.2879C25.4928 46.4173 24.7871 45.7117 23.9165 45.7117V45.7117ZM20.8614 3.15253L18.6481 7.19171H18.1511L15.9379 3.15253H20.8614ZM17.2174 13.1027C16.4568 13.1027 15.8382 12.484 15.8382 11.7235C15.8382 10.9649 16.4546 10.3442 17.2183 10.3442H19.5711C20.367 10.3442 20.9611 10.9835 20.9611 11.7235C20.9611 12.484 20.3424 13.1027 19.5819 13.1027H17.2174ZM22.6146 28.8499L14.4436 37.0209C13.8279 37.6366 12.83 37.6365 12.2144 37.0209C11.5988 36.4054 11.5988 35.4073 12.2144 34.7918L20.3855 26.6207C21.001 26.0052 21.9991 26.0052 22.6146 26.6207C23.2302 27.2363 23.2302 28.2343 22.6146 28.8499V28.8499ZM20.8191 33.7854C19.6496 33.7854 18.6981 34.7368 18.6981 35.9063C18.6981 37.0758 19.6496 38.0274 20.8191 38.0274C21.9886 38.0274 22.9401 37.0759 22.9401 35.9064C22.9401 34.7369 21.9886 33.7854 20.8191 33.7854V33.7854ZM14.0099 29.8563C15.1794 29.8563 16.1309 28.9049 16.1309 27.7354C16.1309 26.5659 15.1794 25.6143 14.0099 25.6143C12.8403 25.6143 11.8888 26.5658 11.8888 27.7353C11.8888 28.9048 12.8403 29.8563 14.0099 29.8563ZM33.9652 31.1312C29.0762 31.1312 25.0987 35.1087 25.0987 39.9977C25.0987 44.8867 29.0762 48.8642 33.9652 48.8642C38.8542 48.8642 42.8317 44.8867 42.8317 39.9977C42.8317 35.1087 38.8542 31.1312 33.9652 31.1312ZM33.9652 45.7117C30.8145 45.7117 28.2512 43.1484 28.2512 39.9977C28.2512 36.8471 30.8145 34.2838 33.9652 34.2838C37.1159 34.2838 39.6792 36.8471 39.6792 39.9977C39.6792 43.1484 37.116 45.7117 33.9652 45.7117ZM37.0501 39.1419L36.1944 39.9977L37.0502 40.8535C38.0465 41.8498 37.3268 43.5443 35.9355 43.5443C35.1175 43.5443 34.7734 43.0351 33.9652 42.2268L33.1095 43.0827C32.4938 43.6983 31.4959 43.6982 30.8803 43.0827C30.2647 42.4671 30.2647 41.4691 30.8803 40.8535L31.7361 39.9977L30.8803 39.1419C30.2647 38.5264 30.2647 37.5283 30.8803 36.9128C31.4959 36.2972 32.4939 36.2972 33.1095 36.9128L33.9652 37.7686L34.8209 36.9128C35.4365 36.2972 36.4345 36.2972 37.0501 36.9128C37.6657 37.5284 37.6657 38.5264 37.0501 39.1419Z" fill="#951A4A"/>
</svg>
