<svg width="40" height="37" viewBox="0 0 40 37" fill="none" xmlns="http://www.w3.org/2000/svg">
<path d="M38.8723 0.52079L37.9422 1.33193L34.416 0L15.9243 16.0661C12.0927 13.9277 7.16901 14.2964 3.67059 17.3382C-0.785736 21.2095 -1.24849 27.9475 2.63402 32.3858C6.51653 36.824 13.2774 37.2849 17.7291 33.4135C21.2275 30.3717 22.2641 25.5602 20.6629 21.486L22.7407 19.6794L22.6296 16.7528L24.4575 15.1628L25.8689 15.8956L27.5996 14.3932L27.4423 12.923L29.0665 11.5127L31.0147 12.4897L32.7316 10.9965L32.7269 9.22213L35.0638 7.19427L36.9843 7.30028L38.7936 5.72869L39.6636 1.43332L38.8723 0.52079Z" fill="#951A4A"/>
<path d="M12.5138 23.795C13.3884 24.7951 13.2866 26.3114 12.2824 27.187C11.2782 28.0627 9.75576 27.9567 8.88115 26.9566C8.00654 25.9519 8.11298 24.4402 9.11253 23.5645C10.1167 22.6889 11.6438 22.7949 12.5138 23.795Z" fill="#121C36"/>
<path d="M36.1236 2.93552C36.1005 3.03691 36.0496 3.1337 35.9663 3.20744L18.7148 18.361C18.5066 18.5408 18.1919 18.5223 18.0114 18.315C17.8309 18.1076 17.8495 17.7942 18.0531 17.6144L35.3045 2.46542C35.5128 2.28568 35.8275 2.30412 36.0079 2.51151C36.1144 2.62673 36.1514 2.78804 36.1236 2.93552Z" fill="#121C36"/>
</svg>
