<svg width="28" height="28" viewBox="0 0 28 28" fill="none" xmlns="http://www.w3.org/2000/svg">
<path d="M14 0C8.40851 0 3.8595 4.54902 3.8595 10.1405C3.8595 17.0797 12.9343 27.2668 13.3207 27.6971C13.6836 28.1013 14.3172 28.1006 14.6794 27.6971C15.0658 27.2668 24.1406 17.0797 24.1406 10.1405C24.1405 4.54902 19.5915 0 14 0ZM14 25.6883C10.9459 22.0604 5.68562 14.903 5.68562 10.1406C5.68562 5.55592 9.41542 1.82612 14 1.82612C18.5847 1.82612 22.3145 5.55592 22.3145 10.1405C22.3144 14.9032 17.0549 22.0593 14 25.6883Z" fill="white"/>
<path d="M13.9999 5.03862C11.1866 5.03862 8.89795 7.32735 8.89795 10.1406C8.89795 12.9538 11.1867 15.2425 13.9999 15.2425C16.813 15.2425 19.1017 12.9538 19.1017 10.1406C19.1017 7.32735 16.813 5.03862 13.9999 5.03862ZM13.9999 13.4164C12.1935 13.4164 10.7241 11.9469 10.7241 10.1406C10.7241 8.33425 12.1936 6.86475 13.9999 6.86475C15.8061 6.86475 17.2756 8.33425 17.2756 10.1406C17.2756 11.9469 15.8061 13.4164 13.9999 13.4164Z" fill="white"/>
</svg>
