<svg width="37" height="24" viewBox="0 0 37 24" fill="none" xmlns="http://www.w3.org/2000/svg">
<path d="M35.101 0.816895H4.89697C4.26733 0.816895 3.75684 1.32311 3.75684 1.94748V3.60236H31.5854C33.4714 3.60236 35.0058 5.12391 35.0058 6.99411V18.7221H35.1011C35.7308 18.7221 36.2412 18.2159 36.2412 17.5915V1.94748C36.2412 1.32311 35.7307 0.816895 35.101 0.816895Z" fill="#951A4A"/>
<path d="M1.38135 11.5884C3.9359 11.5884 6.01416 9.52749 6.01416 6.99435V5.86377H1.38135C0.751708 5.86377 0.241211 6.36999 0.241211 6.99435V11.5884H1.38135Z" fill="#951A4A"/>
<path d="M24.6723 6.99435V5.86377H8.29444V6.99435C8.29444 10.7743 5.19319 13.8496 1.38135 13.8496H0.241211V15.7833H1.38135C5.19326 15.7833 8.29444 18.8585 8.29444 22.6385V23.7691H24.6722V22.6385C24.6722 18.8585 27.7735 15.7833 31.5854 15.7833H32.7255V13.8496H31.5854C27.7735 13.8496 24.6723 10.7743 24.6723 6.99435ZM19.3762 17.6849C17.7775 19.2703 15.1896 19.2705 13.5905 17.6849C11.9917 16.0995 11.9916 13.5333 13.5905 11.9478C15.1856 10.366 17.781 10.3661 19.3762 11.9478C20.9713 13.5295 20.9713 16.1032 19.3762 17.6849Z" fill="#951A4A"/>
<path d="M26.9526 6.99435C26.9526 9.52749 29.0309 11.5884 31.5855 11.5884H32.7257V6.99435C32.7257 6.36999 32.2152 5.86377 31.5855 5.86377H26.9526V6.99435Z" fill="#951A4A"/>
<path d="M31.5853 18.0444C29.0307 18.0444 26.9524 20.1053 26.9524 22.6385V23.7691H31.5853C32.215 23.7691 32.7254 23.2628 32.7254 22.6385V18.0444H31.5853Z" fill="#951A4A"/>
<path d="M6.01416 22.6385C6.01416 20.1053 3.9359 18.0444 1.38135 18.0444H0.241211V22.6385C0.241211 23.2628 0.751708 23.7691 1.38135 23.7691H6.01416V22.6385Z" fill="#951A4A"/>
</svg>
