<svg width="23" height="40" viewBox="0 0 23 40" fill="none" xmlns="http://www.w3.org/2000/svg">
<path d="M20.34 0H2.67125C1.1998 0 0 1.21143 0 2.69714V37.2914C0 38.7886 1.1998 40 2.67125 40H20.3287C21.8001 40 22.9999 38.7886 22.9999 37.3029V2.69714C23.0112 1.21143 21.8114 0 20.34 0ZM8.68156 1.94286H14.3297C14.5108 1.94286 14.6579 2.09143 14.6579 2.27429C14.6579 2.45714 14.5108 2.60571 14.3297 2.60571H8.68156C8.50046 2.60571 8.35332 2.45714 8.35332 2.27429C8.35332 2.09143 8.50046 1.94286 8.68156 1.94286ZM11.5113 38.6514C10.7756 38.6514 10.1757 38.0457 10.1757 37.3029C10.1757 36.56 10.7756 35.9543 11.5113 35.9543C12.247 35.9543 12.8469 36.56 12.8469 37.3029C12.8469 38.0457 12.247 38.6514 11.5113 38.6514ZM21.1549 35.0057H1.86761V4.28571H21.1549V35.0057V35.0057Z" fill="#951A4A"/>
</svg>
