<svg width="196" height="196" viewBox="0 0 196 196" fill="none" xmlns="http://www.w3.org/2000/svg">
<g clip-path="url(#clip0)">
<path d="M97.5999 176.5C141.175 176.5 176.5 141.175 176.5 97.6002C176.5 54.0249 141.175 18.7002 97.5999 18.7002C54.0247 18.7002 18.7 54.0249 18.7 97.6002C18.7 141.175 54.0247 176.5 97.5999 176.5Z" fill="#FAFAFA"/>
<path d="M195.2 97.6C195.2 151.5 151.5 195.2 97.6 195.2C43.7 195.2 0 151.5 0 97.6C0 43.7 43.7 0 97.6 0C151.5 0 195.2 43.7 195.2 97.6Z" fill="#121C36"/>
<path d="M97.5999 176.5C141.175 176.5 176.5 141.175 176.5 97.6002C176.5 54.0249 141.175 18.7002 97.5999 18.7002C54.0247 18.7002 18.7 54.0249 18.7 97.6002C18.7 141.175 54.0247 176.5 97.5999 176.5Z" fill="#FAFAFA"/>
<path d="M97.7 28.4002C96.8 28.4002 96.7 27.7002 96.7 26.8002V1.8002C96.7 0.900195 96.8 0.200195 97.7 0.200195C98.6 0.200195 98.7 0.900195 98.7 1.8002V26.8002C98.7 27.7002 98.5 28.4002 97.7 28.4002Z" fill="#121C36"/>
<path d="M97.7 193.9C96.8 193.9 96.7 193.2 96.7 192.3V167.3C96.7 166.4 96.8 165.7 97.7 165.7C98.6 165.7 98.7 166.4 98.7 167.3V192.3C98.7 193.2 98.5 193.9 97.7 193.9Z" fill="#121C36"/>
<path d="M193.6 99H168.6C167.7 99 167 98.4 167 97.5C167 96.6 167.7 96 168.6 96H193.6C194.5 96 195.2 96.6 195.2 97.5C195.2 98.4 194.5 99 193.6 99Z" fill="#121C36"/>
<path d="M28.1 99H3.1C2.2 99 1.5 98.4 1.5 97.5C1.5 96.6 2.2 96 3.1 96H28.1C29 96 29.7 96.6 29.7 97.5C29.7 98.4 29 99 28.1 99Z" fill="#121C36"/>
<path d="M57.9 34.2002C57.4 34.2002 56.9 33.9002 56.6 33.5002L46.5 17.2002C46 16.4002 46.2 15.5002 47 15.0002C47.7 14.5002 48.7 14.8002 49.1 15.5002L59.2 31.7002C59.7 32.4002 59.4 33.4002 58.7 33.8002C58.4 34.1002 58.1 34.2002 57.9 34.2002Z" fill="#121C36"/>
<path d="M148.1 179.9C147.6 179.9 147.1 179.6 146.8 179.2L136.7 163C136.2 162.3 136.5 161.3 137.2 160.9C137.9 160.4 138.9 160.7 139.3 161.4L149.4 177.6C149.9 178.3 149.6 179.3 148.9 179.7C148.6 179.8 148.4 179.9 148.1 179.9Z" fill="#121C36"/>
<path d="M162.7 58.8001C162.2 58.8001 161.7 58.5001 161.4 58.1001C160.9 57.4001 161.2 56.4001 161.9 56.0001L178.1 45.9001C178.8 45.4001 179.8 45.7001 180.3 46.4001C180.8 47.1001 180.5 48.1001 179.8 48.5001L163.6 58.6001C163.3 58.8001 163 58.8001 162.7 58.8001Z" fill="#121C36"/>
<path d="M16.9 149.1C16.4 149.1 15.9 148.8 15.6 148.4C15.1 147.7 15.4 146.7 16.1 146.2L32.3 136.1C33 135.6 34 135.9 34.4 136.6C34.9 137.3 34.6 138.3 33.9 138.8L17.7 148.9C17.5 149 17.2 149.1 16.9 149.1Z" fill="#121C36"/>
<path d="M31.4 61.7999C31.1 61.7999 30.9 61.6999 30.6 61.5999L14 52.2999C13.2 51.8999 13 50.8999 13.4 50.1999C13.8 49.3999 14.8 49.1999 15.5 49.5999L32.2 58.8999C33 59.2999 33.2 60.2999 32.8 60.9999C32.5 61.4999 32 61.7999 31.4 61.7999Z" fill="#121C36"/>
<path d="M181.1 145.4C180.8 145.4 180.6 145.3 180.3 145.2L163.6 135.9C162.8 135.5 162.6 134.5 163 133.8C163.4 133 164.4 132.8 165.1 133.2L181.8 142.5C182.6 142.9 182.8 143.9 182.4 144.6C182.2 145.1 181.7 145.4 181.1 145.4Z" fill="#121C36"/>
<path d="M135.1 32.4001C134.8 32.4001 134.6 32.3001 134.3 32.2001C133.5 31.8001 133.3 30.8001 133.7 30.1001L143 13.4001C143.4 12.6001 144.4 12.4001 145.1 12.8001C145.9 13.2001 146.1 14.2001 145.7 14.9001L136.4 31.6001C136.2 32.1001 135.6 32.4001 135.1 32.4001Z" fill="#121C36"/>
<path d="M51.4999 182.1C51.1999 182.1 50.9999 182 50.6999 181.9C49.8999 181.5 49.6999 180.5 50.0999 179.8L59.3999 163.1C59.7999 162.3 60.7999 162.1 61.4999 162.5C62.2999 162.9 62.4999 163.9 62.0999 164.6L52.7999 181.3C52.5999 181.8 52.0999 182.1 51.4999 182.1Z" fill="#121C36"/>
<path d="M83.0001 23.2C82.8001 23.2 82.5001 23 82.5001 22.8L78.8001 4.00004C78.7001 3.70004 78.9001 3.40004 79.2001 3.40004C79.5001 3.30004 79.8001 3.50004 79.8001 3.80004L83.5001 22.5C83.6001 22.8 83.4001 23.1 83.1001 23.1C83.1001 23.2 83.1001 23.2 83.0001 23.2Z" fill="#121C36"/>
<path d="M116.6 191.3C116.4 191.3 116.1 191.1 116.1 190.9L112.4 172.2C112.3 171.9 112.5 171.6 112.8 171.6C113.1 171.5 113.4 171.7 113.4 172L117.1 190.7C117.2 191 117 191.3 116.7 191.3H116.6Z" fill="#121C36"/>
<path d="M172.6 82.9999C172.4 82.9999 172.1 82.7999 172.1 82.5999C172 82.2999 172.2 81.9999 172.5 81.9999L191.2 78.2999C191.5 78.1999 191.8 78.3999 191.8 78.6999C191.9 78.9999 191.7 79.2999 191.4 79.2999L172.7 82.9999C172.7 82.8999 172.7 82.9999 172.6 82.9999Z" fill="#121C36"/>
<path d="M4.50001 116.5C4.30001 116.5 4.00001 116.3 4.00001 116.1C3.90001 115.8 4.10001 115.5 4.40001 115.5L23.1 111.8C23.4 111.7 23.7 111.9 23.7 112.2C23.8 112.5 23.6 112.8 23.3 112.8L4.60001 116.5C4.60001 116.5 4.60001 116.5 4.50001 116.5Z" fill="#121C36"/>
<path d="M75.9 24.9999C75.7 24.9999 75.5 24.8999 75.4 24.5999L69.8 6.29994C69.7 5.99994 69.9 5.69994 70.1 5.69994C70.4 5.59994 70.7 5.79994 70.7 5.99994L76.2 24.2999C76.3 24.5999 76.1 24.8999 75.9 24.8999C76 24.9999 75.9 24.9999 75.9 24.9999Z" fill="#121C36"/>
<path d="M125.6 189C125.4 189 125.2 188.9 125.1 188.6L119.6 170.3C119.5 170 119.7 169.7 119.9 169.7C120.2 169.6 120.5 169.8 120.5 170L126 188.3C126.1 188.6 125.9 188.9 125.7 188.9C125.7 189 125.6 189 125.6 189Z" fill="#121C36"/>
<path d="M170.8 75.8C170.6 75.8 170.4 75.7 170.3 75.4C170.2 75.1 170.4 74.8 170.6 74.8L188.9 69.3C189.2 69.2 189.5 69.4 189.5 69.6C189.6 69.9 189.4 70.2 189.2 70.2L171 75.8C170.9 75.8 170.9 75.8 170.8 75.8Z" fill="#121C36"/>
<path d="M6.80004 125.5C6.60004 125.5 6.40004 125.4 6.30004 125.1C6.20004 124.8 6.40004 124.5 6.60004 124.5L24.9 119C25.2 118.9 25.5 119.1 25.5 119.3C25.6 119.6 25.4 119.9 25.2 119.9L6.90004 125.4C6.90004 125.5 6.80004 125.5 6.80004 125.5Z" fill="#121C36"/>
<path d="M90.4 22.1C90.1 22.1 89.9 21.9 89.9 21.6L88 2.6C88 2.3 88.2 2.1 88.5 2C88.8 2 89 2.2 89.1 2.5L91 21.5C91 21.8 90.8 22.1 90.4 22.1C90.5 22.1 90.5 22.1 90.4 22.1Z" fill="#121C36"/>
<path d="M107.3 192.7C107 192.7 106.8 192.5 106.8 192.2L104.9 173.2C104.9 172.9 105.1 172.7 105.4 172.6C105.7 172.6 105.9 172.8 106 173.1L107.9 192.1C107.9 192.4 107.7 192.6 107.3 192.7Z" fill="#121C36"/>
<path d="M173.7 90.3999C173.4 90.3999 173.2 90.1999 173.2 89.8999C173.2 89.5999 173.4 89.3999 173.7 89.2999L192.7 87.3999C193 87.3999 193.2 87.5999 193.3 87.8999C193.3 88.1999 193.1 88.3999 192.8 88.4999L173.7 90.3999C173.8 90.3999 173.8 90.3999 173.7 90.3999Z" fill="#121C36"/>
<path d="M3.09998 107.2C2.79998 107.2 2.59998 107 2.59998 106.7C2.59998 106.4 2.79998 106.2 3.09998 106.1L22.1 104.2C22.4 104.2 22.6 104.4 22.7 104.7C22.7 105 22.5 105.2 22.2 105.3L3.09998 107.2C3.19998 107.2 3.19998 107.2 3.09998 107.2Z" fill="#121C36"/>
<path d="M62.6999 30.3001C62.4999 30.3001 62.2999 30.2001 62.1999 30.0001L53.3999 13.1001C53.2999 12.8001 53.3999 12.5001 53.5999 12.4001C53.8999 12.3001 54.1999 12.4001 54.2999 12.6001L63.0999 29.5001C63.1999 29.8001 63.0999 30.1001 62.8999 30.2001C62.8999 30.3001 62.7999 30.3001 62.6999 30.3001Z" fill="#121C36"/>
<path d="M142 182.3C141.8 182.3 141.6 182.2 141.5 182L132.7 165.1C132.6 164.8 132.7 164.5 132.9 164.4C133.2 164.3 133.5 164.4 133.6 164.6L142.4 181.5C142.5 181.8 142.4 182.1 142.2 182.2C142.1 182.3 142.1 182.3 142 182.3Z" fill="#121C36"/>
<path d="M165.5 62.7001C165.3 62.7001 165.1 62.6001 165 62.4001C164.9 62.1001 165 61.8001 165.2 61.7001L182.1 52.9001C182.4 52.8001 182.7 52.9001 182.8 53.1001C182.9 53.4001 182.8 53.7001 182.6 53.8001L165.7 62.6001C165.6 62.6001 165.6 62.7001 165.5 62.7001Z" fill="#121C36"/>
<path d="M13.4999 141.9C13.2999 141.9 13.0999 141.8 12.9999 141.6C12.8999 141.3 12.9999 141 13.1999 140.9L30.0999 132.1C30.3999 132 30.6999 132.1 30.7999 132.3C30.8999 132.6 30.7999 132.9 30.5999 133L13.6999 141.8C13.5999 141.9 13.5999 141.9 13.4999 141.9Z" fill="#121C36"/>
<path d="M69 27.4001C68.8 27.4001 68.6 27.3001 68.5 27.1001L61.3 9.4001C61.2 9.1001 61.3 8.8001 61.6 8.7001C61.9 8.6001 62.2 8.7001 62.3 9.0001L69.6 26.7001C69.7 27.0001 69.6 27.3001 69.3 27.4001C69.2 27.4001 69.1 27.4001 69 27.4001Z" fill="#121C36"/>
<path d="M134.1 186C133.9 186 133.7 185.9 133.6 185.7L126.4 168C126.3 167.7 126.4 167.4 126.7 167.3C127 167.2 127.3 167.3 127.4 167.6L134.6 185.3C134.7 185.6 134.6 185.9 134.3 186C134.2 186 134.2 186 134.1 186Z" fill="#121C36"/>
<path d="M168.4 69.0001C168.2 69.0001 168 68.9001 167.9 68.7001C167.8 68.4001 167.9 68.1001 168.2 68.0001L185.9 60.7001C186.2 60.6001 186.5 60.7001 186.6 61.0001C186.7 61.3001 186.6 61.6001 186.3 61.7001L168.6 69.0001C168.5 68.9001 168.5 69.0001 168.4 69.0001Z" fill="#121C36"/>
<path d="M9.79995 134C9.59995 134 9.39995 133.9 9.29995 133.7C9.19995 133.4 9.29995 133.1 9.59995 133L27.2999 125.7C27.5999 125.6 27.9 125.7 28 126C28.1 126.3 28 126.6 27.7 126.7L9.99995 134C9.99995 134 9.89995 134 9.79995 134Z" fill="#121C36"/>
<path d="M124.5 26.5C124.4 26.5 124.4 26.5 124.3 26.5C124 26.4 123.9 26.1 124 25.8L130.7 7.9C130.8 7.6 131.1 7.5 131.4 7.6C131.7 7.7 131.8 8 131.7 8.3L125 26.2C124.9 26.4 124.7 26.5 124.5 26.5Z" fill="#121C36"/>
<path d="M64.7 187.1C64.6 187.1 64.6 187.1 64.5 187.1C64.2 187 64.1 186.7 64.2 186.4L70.9 168.5C71 168.2 71.3 168.1 71.6 168.2C71.9 168.3 72 168.6 71.9 168.9L65.2 186.8C65.1 187 64.9 187.1 64.7 187.1Z" fill="#121C36"/>
<path d="M187.2 131.1C187.1 131.1 187.1 131.1 187 131.1L169.1 124.4C168.8 124.3 168.7 124 168.8 123.7C168.9 123.4 169.2 123.3 169.5 123.4L187.4 130.1C187.7 130.2 187.8 130.5 187.7 130.8C187.6 131 187.4 131.1 187.2 131.1Z" fill="#121C36"/>
<path d="M26.6 71.3C26.5 71.3 26.5 71.3 26.4 71.3L8.49998 64.6C8.19998 64.5 8.09998 64.2 8.19998 63.9C8.29998 63.6 8.59998 63.5 8.89998 63.6L26.8 70.3C27.1 70.4 27.2 70.7 27.1 71C27 71.2 26.8 71.3 26.6 71.3Z" fill="#121C36"/>
<path d="M117.5 24.2998H117.4C117.1 24.1998 117 23.8998 117 23.6998L121.9 5.1998C122 4.8998 122.3 4.7998 122.5 4.7998C122.8 4.8998 122.9 5.1998 122.9 5.3998L118 23.8998C117.9 24.0998 117.7 24.2998 117.5 24.2998Z" fill="#121C36"/>
<path d="M73.5 189.9H73.4C73.1 189.8 73 189.5 73 189.3L77.9 170.8C78 170.5 78.3 170.4 78.5 170.4C78.8 170.5 78.9 170.8 78.9 171L74 189.6C73.9 189.8 73.7 189.9 73.5 189.9Z" fill="#121C36"/>
<path d="M190 122.3H189.9L171.4 117.4C171.1 117.3 171 117 171 116.8C171.1 116.5 171.4 116.4 171.6 116.4L190.1 121.3C190.4 121.4 190.5 121.7 190.5 121.9C190.5 122.2 190.2 122.3 190 122.3Z" fill="#121C36"/>
<path d="M24.3 78.2999H24.2001L5.70005 73.3999C5.40005 73.2999 5.30005 72.9999 5.30005 72.7999C5.40005 72.4999 5.70005 72.3999 5.90005 72.3999L24.4 77.2999C24.7 77.3999 24.8 77.6999 24.8 77.8999C24.8 78.1999 24.6 78.2999 24.3 78.2999Z" fill="#121C36"/>
<path d="M130.1 28.7999C130 28.7999 130 28.7999 129.9 28.7999C129.6 28.6999 129.5 28.3999 129.6 28.0999L137.7 10.7999C137.8 10.4999 138.1 10.3999 138.4 10.4999C138.7 10.5999 138.8 10.8999 138.7 11.1999L130.6 28.4999C130.5 28.6999 130.3 28.7999 130.1 28.7999Z" fill="#121C36"/>
<path d="M57.7 184.2C57.6 184.2 57.6 184.2 57.5 184.2C57.2 184.1 57.1 183.8 57.2 183.5L65.3 166.2C65.4 165.9 65.7 165.8 66 165.9C66.3 166 66.4 166.3 66.3 166.6L58.2 183.9C58.1 184.1 57.9 184.2 57.7 184.2Z" fill="#121C36"/>
<path d="M184.3 138.1C184.2 138.1 184.2 138.1 184.1 138.1L166.8 130C166.5 129.9 166.4 129.6 166.5 129.3C166.6 129 166.9 128.9 167.2 129L184.5 137.1C184.8 137.2 184.9 137.5 184.8 137.8C184.7 138 184.5 138.1 184.3 138.1Z" fill="#121C36"/>
<path d="M28.9 65.7C28.8 65.7 28.8 65.7 28.7 65.7L11.4 57.6C11.1 57.5 11 57.2 11.1 56.9C11.2 56.6 11.5 56.5 11.8 56.6L29.1 64.7C29.4 64.8 29.5 65.1 29.4 65.4C29.3 65.6 29.1 65.7 28.9 65.7Z" fill="#121C36"/>
<path d="M103.5 21.8998C103.2 21.8998 103 21.5998 103 21.2998L104.4 2.2998C104.4 1.9998 104.7 1.7998 105 1.7998C105.3 1.7998 105.5 2.0998 105.5 2.3998L104.1 21.3998C104 21.6998 103.8 21.8998 103.5 21.8998Z" fill="#121C36"/>
<path d="M91 194C90.7 194 90.5 193.2 90.5 192.9L91.9 173.6C91.9 173.3 92.2 173 92.5 173C92.8 173 93 173.2 93 173.5L91.5 193C91.5 193.3 91.2 194 91 194Z" fill="#121C36"/>
<path d="M192.9 105L173.8 103.5C173.5 103.5 173.3 103.2 173.3 102.9C173.3 102.6 173.6 102.4 173.9 102.4L192.9 103.8C193.2 103.8 193.4 104.2 193.4 104.4C193.4 104.7 193.2 105 192.9 105Z" fill="#121C36"/>
<path d="M22 90.9998L2.90002 90.2998C2.60002 90.2998 2.40002 90.2998 2.40002 90.0998C2.40002 89.7998 2.70002 89.7998 3.00002 89.7998L22 91.2998C22.3 91.2998 22.5 90.9998 22.5 91.2998C22.5 91.3998 22.3 90.9998 22 90.9998Z" fill="#121C36"/>
<path d="M110.4 22.7C110.4 22.7 110.3 22.7 110.4 22.7C110 22.6 109.8 22.4 109.9 22.1L113 3.30004C113 3.00004 113.3 2.80004 113.6 2.90004C113.9 2.90004 114.1 3.20004 114 3.50004L110.9 22.3C110.9 22.6 110.7 22.7 110.4 22.7Z" fill="#121C36"/>
<path d="M82.4 191.9C82.3 191.9 82.3 191.8 82.4 191.9C82 191.8 81.8 191.6 81.9 191.3L85 172.5C85 172.2 85.3 172 85.6 172.1C85.9 172.1 86.1 172.4 86 172.7L82.9 191.5C82.8 191.7 82.6 191.9 82.4 191.9Z" fill="#121C36"/>
<path d="M191.9 113.5L173 110.4C172.7 110.4 172.5 110.1 172.6 109.8C172.6 109.5 172.9 109.3 173.2 109.4L192 112.5C192.3 112.5 192.5 112.8 192.4 113.1C192.4 113.3 192.2 113.5 191.9 113.5Z" fill="#121C36"/>
<path d="M22.8 85.3999L3.90001 82.2999C3.60001 82.2999 3.40001 81.9999 3.50001 81.6999C3.50001 81.3999 3.80001 81.1999 4.10001 81.2999L22.9 84.3999C23.2 84.3999 23.4 84.6999 23.3 84.9999C23.3 85.1999 23.1 85.3999 22.8 85.3999Z" fill="#121C36"/>
<path d="M155.3 47.7999C155.2 47.7999 155 47.6999 154.9 47.5999C154.7 47.3999 154.7 47.0999 155 46.8999L169.4 34.2999C169.6 34.0999 169.9 34.0999 170.1 34.2999C170.3 34.4999 170.3 34.7999 170.1 34.9999L155.7 47.5999C155.6 47.6999 155.4 47.7999 155.3 47.7999Z" fill="#121C36"/>
<path d="M26.2 160.5C26.1 160.5 25.9 160.4 25.8 160.3C25.6 160.1 25.6 159.8 25.8 159.6L40.2 147C40.4 146.8 40.7 146.8 40.9 147C41.1 147.2 41.1 147.5 40.9 147.7L26.5 160.3C26.4 160.5 26.3 160.5 26.2 160.5Z" fill="#121C36"/>
<path d="M160.6 169.6C160.5 169.6 160.3 169.5 160.2 169.4L147.6 155C147.4 154.8 147.4 154.5 147.6 154.3C147.8 154.1 148.1 154.1 148.3 154.4L160.9 168.8C161.1 169 161.1 169.3 160.8 169.5C160.8 169.6 160.7 169.6 160.6 169.6Z" fill="#121C36"/>
<path d="M47.8 40.4998C47.7 40.4998 47.5 40.3998 47.4 40.2998L34.9 25.8998C34.7 25.6998 34.7 25.3998 35 25.1998C35.2 24.9998 35.5 24.9998 35.7 25.1998L48.3 39.5998C48.5 39.7998 48.5 40.0998 48.2 40.2998C48.1 40.4998 48 40.4998 47.8 40.4998Z" fill="#121C36"/>
<path d="M150.2 42.4999C150.1 42.4999 149.9 42.4999 149.8 42.3999C149.6 42.1999 149.6 41.8999 149.8 41.6999L162.9 27.7999C163.1 27.5999 163.4 27.5999 163.6 27.7999C163.8 27.9999 163.8 28.2999 163.6 28.4999L150.5 42.3999C150.5 42.3999 150.3 42.4999 150.2 42.4999Z" fill="#121C36"/>
<path d="M32.6 167.2C32.5 167.2 32.3 167.2 32.2 167.1C32 166.9 32 166.6 32.2 166.4L45.3 152.5C45.5 152.3 45.8 152.3 46 152.5C46.2 152.7 46.2 153 46 153.2L33 167C32.9 167.1 32.7 167.2 32.6 167.2Z" fill="#121C36"/>
<path d="M167.3 163.2C167.2 163.2 167 163.2 166.9 163.1L153 150C152.8 149.8 152.8 149.5 153 149.3C153.2 149.1 153.5 149.1 153.7 149.3L167.6 162.4C167.8 162.6 167.8 162.9 167.6 163.1C167.5 163.2 167.4 163.2 167.3 163.2Z" fill="#121C36"/>
<path d="M42.5 45.5998C42.4 45.5998 42.2 45.5998 42.1 45.4998L28.3 32.3998C28.1 32.1998 28.1 31.8998 28.3 31.6998C28.5 31.4998 28.8 31.4998 29 31.6998L42.9 44.7998C43.1 44.9998 43.1 45.2998 42.9 45.4998C42.8 45.5998 42.7 45.5998 42.5 45.5998Z" fill="#121C36"/>
<path d="M159.4 52.8998C159.2 52.8998 159.1 52.7998 159 52.6998C158.8 52.4998 158.9 52.0998 159.1 51.9998L174.5 40.6998C174.7 40.4998 175.1 40.5998 175.2 40.7998C175.4 40.9998 175.3 41.3998 175.1 41.4998L159.7 52.7998C159.6 52.8998 159.5 52.8998 159.4 52.8998Z" fill="#121C36"/>
<path d="M21 154.1C20.8 154.1 20.7 154 20.6 153.9C20.4 153.7 20.5 153.3 20.7 153.2L36.1 141.9C36.3 141.7 36.7 141.8 36.8 142C37 142.2 36.9 142.6 36.7 142.7L21.4 154C21.3 154.1 21.2 154.1 21 154.1Z" fill="#121C36"/>
<path d="M154.2 174.8C154 174.8 153.9 174.7 153.8 174.6L142.5 159.2C142.3 159 142.4 158.6 142.6 158.5C142.8 158.3 143.2 158.4 143.3 158.6L154.6 174C154.8 174.2 154.7 174.6 154.5 174.7C154.4 174.7 154.3 174.8 154.2 174.8Z" fill="#121C36"/>
<path d="M52.9999 36.3997C52.7999 36.3997 52.6999 36.2997 52.5999 36.1997L41.2999 20.7997C41.0999 20.5997 41.1999 20.1997 41.3999 20.0997C41.5999 19.8997 41.9999 19.9997 42.0999 20.1997L53.3999 35.5997C53.5999 35.7997 53.4999 36.1997 53.2999 36.2997C53.1999 36.3997 53.0999 36.3997 52.9999 36.3997Z" fill="#121C36"/>
<path d="M139.7 34.1999C139.6 34.1999 139.5 34.1999 139.4 34.0999C139.2 33.8999 139.1 33.5999 139.2 33.3999L149.7 17.3999C149.9 17.1999 150.2 17.0999 150.4 17.1999C150.6 17.3999 150.7 17.6999 150.6 17.8999L140.1 33.8999C140 34.0999 139.8 34.1999 139.7 34.1999Z" fill="#121C36"/>
<path d="M45.8 177.6C45.7 177.6 45.6 177.6 45.5 177.5C45.3 177.3 45.2 177 45.4 176.8L55.9 160.8C56.1 160.6 56.4 160.5 56.6 160.6C56.8 160.8 56.9 161.1 56.8 161.3L46.3 177.3C46.1 177.5 45.9 177.6 45.8 177.6Z" fill="#121C36"/>
<path d="M177.6 150.1C177.5 150.1 177.4 150.1 177.3 150L161.3 139.5C161.1 139.3 161 139 161.1 138.8C161.3 138.6 161.6 138.5 161.8 138.6L177.8 149.1C178 149.3 178.1 149.6 178 149.8C178 150 177.8 150.1 177.6 150.1Z" fill="#121C36"/>
<path d="M34.2 56.1999C34.1 56.1999 34 56.1999 33.9 56.0999L18 45.5999C17.8 45.3999 17.7 45.0999 17.8 44.8999C18 44.6999 18.3 44.5999 18.5 44.6999L34.5 55.1999C34.7 55.3999 34.8 55.6999 34.7 55.8999C34.6 56.0999 34.4 56.1999 34.2 56.1999Z" fill="#121C36"/>
<path d="M144.7 37.6998C144.6 37.6998 144.5 37.6998 144.4 37.5998C144.2 37.3998 144.1 37.0998 144.3 36.8998L156 21.7998C156.2 21.5998 156.5 21.4998 156.7 21.6998C156.9 21.8998 157 22.1998 156.8 22.3998L145.1 37.4998C145 37.6998 144.8 37.6998 144.7 37.6998Z" fill="#121C36"/>
<path d="M39.5 173.1C39.4 173.1 39.3 173.1 39.2 173C39 172.8 38.9 172.5 39.1 172.3L50.8 157.2C51 157 51.3 156.9 51.5 157.1C51.7 157.3 51.8 157.6 51.6 157.8L39.9 172.9C39.8 173 39.6 173.1 39.5 173.1Z" fill="#121C36"/>
<path d="M173.2 156.3C173.1 156.3 173 156.3 172.9 156.2L157.8 144.5C157.6 144.3 157.5 144 157.7 143.8C157.9 143.6 158.2 143.5 158.4 143.7L173.5 155.4C173.7 155.6 173.8 155.9 173.6 156.1C173.5 156.3 173.3 156.3 173.2 156.3Z" fill="#121C36"/>
<path d="M37.7999 51.0996C37.6999 51.0996 37.5999 51.0996 37.4999 50.9996L22.3999 39.2996C22.1999 39.0996 22.0999 38.7996 22.2999 38.5996C22.4999 38.3996 22.7999 38.2996 22.9999 38.4996L38.0999 50.1996C38.2999 50.3996 38.3999 50.6996 38.1999 50.8996C38.0999 51.0996 37.9999 51.0996 37.7999 51.0996Z" fill="#121C36"/>
<path d="M46.4 131.4C57.3 149.5 75 159.6 97.6 159.6C131.9 159.6 159.8 131.8 159.8 97.4999C159.8 63.1999 132.7 35.3999 97.7 35.3999V96.9999" fill="#951A4A"/>
<path d="M131.7 97.6C131.7 116.4 116.4 131.7 97.6 131.7C78.8 131.7 63.5 116.4 63.5 97.6C63.5 78.8 78.8 63.5 97.6 63.5C116.4 63.5 131.7 78.8 131.7 97.6Z" fill="#121C36"/>
<path d="M76.2083 112.12C77.2635 112.175 78.0689 112.202 78.6243 112.202C80.5404 112.202 82.2761 111.818 83.8312 111.05C85.4141 110.282 86.6638 109.239 87.5802 107.923C88.4966 106.579 88.9548 105.097 88.9548 103.479C88.9548 101.421 88.455 99.9401 87.4552 99.0349C86.4555 98.1297 85.0115 97.6771 83.1231 97.6771C82.2067 97.6771 81.193 97.8005 80.0822 98.0474C78.9992 98.2943 78.0967 98.5823 77.3746 98.9115L76 97.9651L77.9995 82.7818H90.871L91.2875 82H94.1618L93.287 87.1434H81.8734L80.1655 95.702C80.9709 95.2905 81.929 94.9339 83.0398 94.6322C84.1783 94.303 85.3864 94.1384 86.6638 94.1384C89.4964 94.1384 91.6624 94.8653 93.162 96.3192C94.6894 97.7731 95.4531 99.8304 95.4531 102.491C95.4531 104.85 94.7449 106.976 93.3287 108.869C91.9401 110.789 89.9962 112.284 87.4969 113.354C85.0253 114.451 82.2344 115 79.1242 115C78.0689 115 77.0969 114.904 76.2083 114.712V112.12Z" fill="white"/>
<path d="M111.253 108.787C107.699 108.787 104.977 107.621 103.089 105.289C101.228 102.93 100.298 99.7344 100.298 95.702C100.298 92.8491 100.839 90.4352 101.922 88.4601C103.005 86.4576 104.436 84.9626 106.213 83.9751C108.018 82.9601 110.017 82.4526 112.211 82.4526C115.794 82.4526 118.487 83.5773 120.292 85.8267C122.097 88.0486 123 91.2032 123 95.2905C123 98.116 122.472 100.557 121.417 102.615C120.39 104.645 118.987 106.181 117.21 107.223C115.433 108.266 113.447 108.787 111.253 108.787ZM111.67 106.318C113.419 106.318 114.697 105.44 115.502 103.685C116.335 101.901 116.752 99.2544 116.752 95.7431C116.752 92.0125 116.363 89.283 115.585 87.5549C114.836 85.7993 113.544 84.9214 111.711 84.9214C108.268 84.9214 106.546 88.3641 106.546 95.2494C106.546 98.9252 106.949 101.696 107.754 103.561C108.587 105.399 109.892 106.318 111.67 106.318Z" fill="white"/>
</g>
<defs>
<clipPath id="clip0">
<rect width="195.2" height="195.2" fill="white"/>
</clipPath>
</defs>
</svg>
