<svg width="38" height="38" viewBox="0 0 38 38" fill="none" xmlns="http://www.w3.org/2000/svg">
<path d="M19.0047 0H18.9953C8.51913 0 0 8.5215 0 19C0 23.1562 1.3395 27.0085 3.61713 30.1364L1.24925 37.1949L8.55238 34.8603C11.5568 36.8505 15.1406 38 19.0047 38C29.4809 38 38 29.4761 38 19C38 8.52388 29.4809 0 19.0047 0Z" fill="#4CAF50"/>
<path d="M30.0604 26.8302C29.602 28.1246 27.7827 29.1981 26.3316 29.5116C25.3389 29.7229 24.0421 29.8916 19.6769 28.0818C14.0932 25.7686 10.4975 20.0947 10.2172 19.7266C9.94887 19.3584 7.961 16.7222 7.961 13.9957C7.961 11.2692 9.34562 9.94157 9.90375 9.37157C10.3621 8.90369 11.1197 8.68994 11.8465 8.68994C12.0816 8.68994 12.293 8.70182 12.483 8.71132C13.0411 8.73507 13.3214 8.76832 13.6895 9.64944C14.1479 10.7538 15.2641 13.4803 15.3971 13.7606C15.5325 14.0408 15.6679 14.4208 15.4779 14.7889C15.2997 15.1689 15.143 15.3376 14.8627 15.6606C14.5825 15.9836 14.3165 16.2306 14.0362 16.5773C13.7797 16.8789 13.49 17.2019 13.813 17.7601C14.136 18.3063 15.2522 20.1279 16.8957 21.5909C19.0166 23.4791 20.7361 24.0823 21.3512 24.3388C21.8096 24.5288 22.3559 24.4837 22.6907 24.1274C23.1159 23.6691 23.6407 22.9091 24.1751 22.1609C24.5551 21.6242 25.0349 21.5577 25.5384 21.7477C26.0514 21.9258 28.766 23.2677 29.3241 23.5456C29.8822 23.8258 30.2504 23.9588 30.3857 24.1939C30.5187 24.4291 30.5187 25.5334 30.0604 26.8302Z" fill="#FAFAFA"/>
</svg>
