<svg width="278" height="81" viewBox="0 0 278 81" fill="none" xmlns="http://www.w3.org/2000/svg">
<g clip-path="url(#clip0)">
<path d="M112.848 56.7318C108.41 55.7863 99.2177 55.4711 96.3647 38.4517C103.656 40.6579 111.58 47.2766 112.848 56.7318Z" fill="url(#paint0_linear)"/>
<path d="M111.581 62.4053C106.509 69.3391 98.9011 73.7516 92.2443 74.3819C95.4142 65.557 101.754 59.8839 111.581 62.4053Z" fill="url(#paint1_linear)"/>
<path d="M99.5352 59.8843C95.0973 67.4485 87.4896 72.1761 81.4668 72.8065C85.5877 59.8843 91.9274 58.6236 99.5352 59.8843Z" fill="url(#paint2_linear)"/>
<path d="M100.168 54.5245C96.0475 54.2093 87.1718 54.5245 83.3679 38.1354C90.6587 39.7113 98.2664 46.0147 100.168 54.5245Z" fill="url(#paint3_linear)"/>
<path d="M87.1719 53.5801C84.6359 53.5801 77.9792 53.8952 74.4923 47.2766C72.9073 44.44 71.6394 41.2882 71.0054 38.4517C76.0772 39.3972 84.6359 44.1248 87.1719 53.5801Z" fill="url(#paint4_linear)"/>
<path d="M74.8094 62.0887C78.2962 57.361 83.0511 57.6762 86.855 57.9914C83.6851 64.2949 77.0283 70.9136 69.4205 71.5439C70.3715 69.6529 72.5904 65.5556 74.8094 62.0887Z" fill="url(#paint5_linear)"/>
<path d="M74.4924 53.2638C67.5187 53.2638 61.8128 51.0576 61.4958 38.1354C70.3716 41.6023 72.5905 47.9058 74.4924 53.2638Z" fill="url(#paint6_linear)"/>
<path d="M74.4924 57.0476C71.3225 64.9269 62.7638 69.9697 55.156 69.0242C63.3977 55.4717 69.7375 56.7324 74.4924 57.0476Z" fill="url(#paint7_linear)"/>
<path d="M62.4471 52.3181C55.7904 51.3726 50.7185 48.536 52.6205 36.5594C60.5452 40.9718 61.1792 46.9602 62.4471 52.3181Z" fill="url(#paint8_linear)"/>
<path d="M61.8135 55.7869C57.3756 63.6663 47.549 65.5573 41.8431 63.6663C52.3038 52.32 55.7907 54.5262 61.8135 55.7869Z" fill="url(#paint9_linear)"/>
<path d="M50.0838 49.7971C42.4761 47.2757 41.5251 40.0267 44.061 32.4625C49.4498 37.8204 50.0838 44.7543 50.0838 49.7971Z" fill="url(#paint10_linear)"/>
<path d="M49.1331 52.3185C44.3783 58.3068 35.1856 60.8282 28.2118 57.0461C40.5744 48.2212 45.0123 50.7426 49.1331 52.3185Z" fill="url(#paint11_linear)"/>
<path d="M39.9403 45.0705C32.6495 41.2884 33.6005 33.409 35.5024 27.4207C41.2083 32.4635 40.8913 40.6581 39.9403 45.0705Z" fill="url(#paint12_linear)"/>
<path d="M38.0389 46.9619C32.3331 52.3199 22.5064 52.3199 17.7516 47.9074C24.7254 44.4405 30.7482 42.8646 38.0389 46.9619Z" fill="url(#paint13_linear)"/>
<path d="M27.8956 39.3957C22.5068 42.8627 13.3141 42.8627 8.5592 36.8743C15.85 34.9833 22.1898 34.0377 27.8956 39.3957Z" fill="url(#paint14_linear)"/>
<path d="M31.0649 38.4504C25.359 33.7228 23.7741 26.7889 28.2119 20.8006C33.2838 25.8434 32.9668 34.6683 31.0649 38.4504Z" fill="url(#paint15_linear)"/>
<path d="M21.2379 28.996C19.0189 23.9532 16.483 15.7587 21.2379 11.0311C25.3587 17.3346 25.9927 24.8988 21.2379 28.996Z" fill="url(#paint16_linear)"/>
<path d="M19.6534 31.2016C14.5815 33.723 3.80388 31.5168 0 25.2133C7.29076 24.2677 15.2155 25.5284 19.6534 31.2016Z" fill="url(#paint17_linear)"/>
<path d="M14.8989 23.6381C7.60814 24.2685 1.58533 11.9767 2.85329 0C10.461 6.93385 16.8008 16.3891 14.8989 23.6381Z" fill="url(#paint18_linear)"/>
<path d="M110.629 40.0278C118.237 42.8643 125.845 50.4286 126.162 60.5142C121.724 58.9383 112.214 57.6776 110.629 40.0278Z" fill="url(#paint19_linear)"/>
<path d="M123.626 66.5009C118.554 72.174 110.63 76.2713 103.339 76.5865C107.46 67.4464 113.8 62.4036 123.626 66.5009Z" fill="url(#paint20_linear)"/>
<path d="M148.034 81.0008C144.23 79.7401 145.498 80.3704 144.23 79.7401C133.452 57.0474 75.7602 56.1019 67.5184 54.8412C67.5184 54.8412 143.596 53.5805 148.034 81.0008Z" fill="url(#paint21_linear)"/>
<path d="M165.152 56.7318C169.59 55.7863 178.782 55.4711 181.635 38.4517C174.345 40.6579 166.42 47.2766 165.152 56.7318Z" fill="url(#paint22_linear)"/>
<path d="M166.42 62.4053C171.492 69.3391 179.099 73.7516 185.756 74.3819C182.269 65.557 176.246 59.8839 166.42 62.4053Z" fill="url(#paint23_linear)"/>
<path d="M178.465 59.8843C182.903 67.4485 190.51 72.1761 196.533 72.8065C192.412 59.8843 186.073 58.6236 178.465 59.8843Z" fill="url(#paint24_linear)"/>
<path d="M177.514 54.5245C181.635 54.2093 190.511 54.5245 194.315 38.1354C187.341 39.7113 179.733 46.0147 177.514 54.5245Z" fill="url(#paint25_linear)"/>
<path d="M190.511 53.5801C193.047 53.5801 199.704 53.8952 203.191 47.2766C204.776 44.44 206.043 41.2882 206.677 38.4517C201.923 39.3972 193.364 44.1248 190.511 53.5801Z" fill="url(#paint26_linear)"/>
<path d="M203.19 62.0887C199.703 57.361 194.948 57.6762 191.144 57.9914C194.314 64.2949 200.971 70.9136 208.579 71.5439C207.628 69.6529 205.409 65.5556 203.19 62.0887Z" fill="url(#paint27_linear)"/>
<path d="M203.508 53.2638C210.482 53.2638 216.188 51.0576 216.505 38.1354C207.629 41.6023 205.41 47.9058 203.508 53.2638Z" fill="url(#paint28_linear)"/>
<path d="M203.508 57.0476C206.678 64.9269 215.237 69.9697 222.844 69.0242C214.603 55.4717 208.263 56.7324 203.508 57.0476Z" fill="url(#paint29_linear)"/>
<path d="M215.553 52.3181C222.21 51.3726 227.282 48.536 225.697 36.5594C217.455 40.9718 216.504 46.9602 215.553 52.3181Z" fill="url(#paint30_linear)"/>
<path d="M216.188 55.7869C220.625 63.6663 230.452 65.5573 236.158 63.6663C225.697 52.32 221.893 54.5262 216.188 55.7869Z" fill="url(#paint31_linear)"/>
<path d="M227.915 49.7971C235.523 47.2757 236.474 40.0267 233.938 32.4625C228.549 37.8204 227.915 44.7543 227.915 49.7971Z" fill="url(#paint32_linear)"/>
<path d="M228.55 52.3185C233.305 58.3068 242.497 60.8282 249.471 57.0461C237.426 48.2212 232.988 50.7426 228.55 52.3185Z" fill="url(#paint33_linear)"/>
<path d="M237.742 45.0705C245.033 41.2884 244.082 33.409 242.18 27.4207C236.474 32.4635 237.108 40.6581 237.742 45.0705Z" fill="url(#paint34_linear)"/>
<path d="M239.962 46.9619C245.667 52.3199 255.494 52.3199 260.249 47.9074C253.275 44.4405 247.252 42.8646 239.962 46.9619Z" fill="url(#paint35_linear)"/>
<path d="M250.105 39.3957C255.494 42.8627 264.686 42.8627 269.441 36.8743C261.833 34.9833 255.811 34.0377 250.105 39.3957Z" fill="url(#paint36_linear)"/>
<path d="M246.935 38.4504C252.64 33.7228 254.225 26.7889 249.788 20.8006C244.716 25.8434 245.033 34.6683 246.935 38.4504Z" fill="url(#paint37_linear)"/>
<path d="M256.444 28.9969C258.98 23.9541 261.516 15.7595 256.444 10.7167C252.64 17.3354 252.006 24.8996 256.444 28.9969Z" fill="url(#paint38_linear)"/>
<path d="M258.347 31.203C263.419 33.4093 274.196 31.5182 278 24.8995C270.709 24.2692 262.785 25.5299 258.347 31.203Z" fill="url(#paint39_linear)"/>
<path d="M263.101 23.6381C270.392 24.2685 276.415 11.9767 275.464 0C267.539 6.93385 261.199 16.3891 263.101 23.6381Z" fill="url(#paint40_linear)"/>
<path d="M167.37 40.0278C159.763 42.8643 152.155 50.4286 151.838 60.5142C156.276 58.9383 165.785 57.6776 167.37 40.0278Z" fill="url(#paint41_linear)"/>
<path d="M154.375 66.5009C159.446 72.174 167.371 76.2713 174.662 76.5865C170.541 67.4464 164.201 62.4036 154.375 66.5009Z" fill="url(#paint42_linear)"/>
<path d="M129.966 81.0008C133.77 79.7401 132.502 80.3704 133.77 79.7401C144.547 57.0474 202.239 56.1019 210.481 54.8412C210.481 54.8412 134.404 53.5805 129.966 81.0008Z" fill="url(#paint43_linear)"/>
</g>
<defs>
<linearGradient id="paint0_linear" x1="104.606" y1="38.4517" x2="104.606" y2="56.7318" gradientUnits="userSpaceOnUse">
<stop stop-color="#951A4A"/>
<stop offset="1" stop-color="#C92263"/>
</linearGradient>
<linearGradient id="paint1_linear" x1="101.912" y1="61.8036" x2="101.912" y2="74.3819" gradientUnits="userSpaceOnUse">
<stop stop-color="#951A4A"/>
<stop offset="1" stop-color="#C92263"/>
</linearGradient>
<linearGradient id="paint2_linear" x1="90.501" y1="59.5013" x2="90.501" y2="72.8065" gradientUnits="userSpaceOnUse">
<stop stop-color="#951A4A"/>
<stop offset="1" stop-color="#C92263"/>
</linearGradient>
<linearGradient id="paint3_linear" x1="91.7682" y1="38.1354" x2="91.7682" y2="54.5245" gradientUnits="userSpaceOnUse">
<stop stop-color="#951A4A"/>
<stop offset="1" stop-color="#C92263"/>
</linearGradient>
<linearGradient id="paint4_linear" x1="79.0886" y1="38.4517" x2="79.0886" y2="53.5824" gradientUnits="userSpaceOnUse">
<stop stop-color="#951A4A"/>
<stop offset="1" stop-color="#C92263"/>
</linearGradient>
<linearGradient id="paint5_linear" x1="78.1377" y1="57.8338" x2="78.1377" y2="71.5439" gradientUnits="userSpaceOnUse">
<stop stop-color="#951A4A"/>
<stop offset="1" stop-color="#C92263"/>
</linearGradient>
<linearGradient id="paint6_linear" x1="67.9941" y1="38.1354" x2="67.9941" y2="53.2638" gradientUnits="userSpaceOnUse">
<stop stop-color="#951A4A"/>
<stop offset="1" stop-color="#C92263"/>
</linearGradient>
<linearGradient id="paint7_linear" x1="64.8242" y1="56.8698" x2="64.8242" y2="69.1378" gradientUnits="userSpaceOnUse">
<stop stop-color="#951A4A"/>
<stop offset="1" stop-color="#C92263"/>
</linearGradient>
<linearGradient id="paint8_linear" x1="57.3318" y1="36.5594" x2="57.3318" y2="52.3181" gradientUnits="userSpaceOnUse">
<stop stop-color="#951A4A"/>
<stop offset="1" stop-color="#C92263"/>
</linearGradient>
<linearGradient id="paint9_linear" x1="51.8283" y1="54.7335" x2="51.8283" y2="64.3443" gradientUnits="userSpaceOnUse">
<stop stop-color="#951A4A"/>
<stop offset="1" stop-color="#C92263"/>
</linearGradient>
<linearGradient id="paint10_linear" x1="46.4427" y1="32.4625" x2="46.4427" y2="49.7971" gradientUnits="userSpaceOnUse">
<stop stop-color="#951A4A"/>
<stop offset="1" stop-color="#C92263"/>
</linearGradient>
<linearGradient id="paint11_linear" x1="38.6725" y1="50.7361" x2="38.6725" y2="58.8336" gradientUnits="userSpaceOnUse">
<stop stop-color="#951A4A"/>
<stop offset="1" stop-color="#C92263"/>
</linearGradient>
<linearGradient id="paint12_linear" x1="37.3125" y1="27.4207" x2="37.3125" y2="45.0705" gradientUnits="userSpaceOnUse">
<stop stop-color="#951A4A"/>
<stop offset="1" stop-color="#C92263"/>
</linearGradient>
<linearGradient id="paint13_linear" x1="27.8953" y1="44.5214" x2="27.8953" y2="51.1072" gradientUnits="userSpaceOnUse">
<stop stop-color="#951A4A"/>
<stop offset="1" stop-color="#C92263"/>
</linearGradient>
<linearGradient id="paint14_linear" x1="18.2274" y1="35.3836" x2="18.2274" y2="41.7446" gradientUnits="userSpaceOnUse">
<stop stop-color="#951A4A"/>
<stop offset="1" stop-color="#C92263"/>
</linearGradient>
<linearGradient id="paint15_linear" x1="28.999" y1="20.8006" x2="28.999" y2="38.4504" gradientUnits="userSpaceOnUse">
<stop stop-color="#951A4A"/>
<stop offset="1" stop-color="#C92263"/>
</linearGradient>
<linearGradient id="paint16_linear" x1="21.5559" y1="11.0311" x2="21.5559" y2="28.996" gradientUnits="userSpaceOnUse">
<stop stop-color="#951A4A"/>
<stop offset="1" stop-color="#C92263"/>
</linearGradient>
<linearGradient id="paint17_linear" x1="9.82668" y1="24.9282" x2="9.82668" y2="32.2224" gradientUnits="userSpaceOnUse">
<stop stop-color="#951A4A"/>
<stop offset="1" stop-color="#C92263"/>
</linearGradient>
<linearGradient id="paint18_linear" x1="8.96169" y1="0" x2="8.96169" y2="23.6614" gradientUnits="userSpaceOnUse">
<stop stop-color="#951A4A"/>
<stop offset="1" stop-color="#C92263"/>
</linearGradient>
<linearGradient id="paint19_linear" x1="118.395" y1="40.0278" x2="118.395" y2="60.5142" gradientUnits="userSpaceOnUse">
<stop stop-color="#951A4A"/>
<stop offset="1" stop-color="#C92263"/>
</linearGradient>
<linearGradient id="paint20_linear" x1="113.483" y1="65.0605" x2="113.483" y2="76.5865" gradientUnits="userSpaceOnUse">
<stop stop-color="#951A4A"/>
<stop offset="1" stop-color="#C92263"/>
</linearGradient>
<linearGradient id="paint21_linear" x1="107.776" y1="54.8323" x2="107.776" y2="81.0008" gradientUnits="userSpaceOnUse">
<stop stop-color="#951A4A"/>
<stop offset="1" stop-color="#C92263"/>
</linearGradient>
<linearGradient id="paint22_linear" x1="173.394" y1="38.4517" x2="173.394" y2="56.7318" gradientUnits="userSpaceOnUse">
<stop stop-color="#951A4A"/>
<stop offset="1" stop-color="#C92263"/>
</linearGradient>
<linearGradient id="paint23_linear" x1="176.088" y1="61.8036" x2="176.088" y2="74.3819" gradientUnits="userSpaceOnUse">
<stop stop-color="#951A4A"/>
<stop offset="1" stop-color="#C92263"/>
</linearGradient>
<linearGradient id="paint24_linear" x1="187.499" y1="59.5013" x2="187.499" y2="72.8065" gradientUnits="userSpaceOnUse">
<stop stop-color="#951A4A"/>
<stop offset="1" stop-color="#C92263"/>
</linearGradient>
<linearGradient id="paint25_linear" x1="185.915" y1="38.1354" x2="185.915" y2="54.5245" gradientUnits="userSpaceOnUse">
<stop stop-color="#951A4A"/>
<stop offset="1" stop-color="#C92263"/>
</linearGradient>
<linearGradient id="paint26_linear" x1="198.594" y1="38.4517" x2="198.594" y2="53.5824" gradientUnits="userSpaceOnUse">
<stop stop-color="#951A4A"/>
<stop offset="1" stop-color="#C92263"/>
</linearGradient>
<linearGradient id="paint27_linear" x1="199.862" y1="57.8338" x2="199.862" y2="71.5439" gradientUnits="userSpaceOnUse">
<stop stop-color="#951A4A"/>
<stop offset="1" stop-color="#C92263"/>
</linearGradient>
<linearGradient id="paint28_linear" x1="210.006" y1="38.1354" x2="210.006" y2="53.2638" gradientUnits="userSpaceOnUse">
<stop stop-color="#951A4A"/>
<stop offset="1" stop-color="#C92263"/>
</linearGradient>
<linearGradient id="paint29_linear" x1="213.176" y1="56.8698" x2="213.176" y2="69.1378" gradientUnits="userSpaceOnUse">
<stop stop-color="#951A4A"/>
<stop offset="1" stop-color="#C92263"/>
</linearGradient>
<linearGradient id="paint30_linear" x1="220.771" y1="36.5594" x2="220.771" y2="52.3181" gradientUnits="userSpaceOnUse">
<stop stop-color="#951A4A"/>
<stop offset="1" stop-color="#C92263"/>
</linearGradient>
<linearGradient id="paint31_linear" x1="226.173" y1="54.7335" x2="226.173" y2="64.3443" gradientUnits="userSpaceOnUse">
<stop stop-color="#951A4A"/>
<stop offset="1" stop-color="#C92263"/>
</linearGradient>
<linearGradient id="paint32_linear" x1="231.557" y1="32.4625" x2="231.557" y2="49.7971" gradientUnits="userSpaceOnUse">
<stop stop-color="#951A4A"/>
<stop offset="1" stop-color="#C92263"/>
</linearGradient>
<linearGradient id="paint33_linear" x1="239.011" y1="50.7361" x2="239.011" y2="58.8336" gradientUnits="userSpaceOnUse">
<stop stop-color="#951A4A"/>
<stop offset="1" stop-color="#C92263"/>
</linearGradient>
<linearGradient id="paint34_linear" x1="240.441" y1="27.4207" x2="240.441" y2="45.0705" gradientUnits="userSpaceOnUse">
<stop stop-color="#951A4A"/>
<stop offset="1" stop-color="#C92263"/>
</linearGradient>
<linearGradient id="paint35_linear" x1="250.105" y1="44.5214" x2="250.105" y2="51.1072" gradientUnits="userSpaceOnUse">
<stop stop-color="#951A4A"/>
<stop offset="1" stop-color="#C92263"/>
</linearGradient>
<linearGradient id="paint36_linear" x1="259.773" y1="35.3836" x2="259.773" y2="41.7446" gradientUnits="userSpaceOnUse">
<stop stop-color="#951A4A"/>
<stop offset="1" stop-color="#C92263"/>
</linearGradient>
<linearGradient id="paint37_linear" x1="249.001" y1="20.8006" x2="249.001" y2="38.4504" gradientUnits="userSpaceOnUse">
<stop stop-color="#951A4A"/>
<stop offset="1" stop-color="#C92263"/>
</linearGradient>
<linearGradient id="paint38_linear" x1="256.361" y1="10.7167" x2="256.361" y2="28.9969" gradientUnits="userSpaceOnUse">
<stop stop-color="#951A4A"/>
<stop offset="1" stop-color="#C92263"/>
</linearGradient>
<linearGradient id="paint39_linear" x1="268.173" y1="24.752" x2="268.173" y2="32.0821" gradientUnits="userSpaceOnUse">
<stop stop-color="#951A4A"/>
<stop offset="1" stop-color="#C92263"/>
</linearGradient>
<linearGradient id="paint40_linear" x1="269.162" y1="0" x2="269.162" y2="23.6614" gradientUnits="userSpaceOnUse">
<stop stop-color="#951A4A"/>
<stop offset="1" stop-color="#C92263"/>
</linearGradient>
<linearGradient id="paint41_linear" x1="159.604" y1="40.0278" x2="159.604" y2="60.5142" gradientUnits="userSpaceOnUse">
<stop stop-color="#951A4A"/>
<stop offset="1" stop-color="#C92263"/>
</linearGradient>
<linearGradient id="paint42_linear" x1="164.518" y1="65.0605" x2="164.518" y2="76.5865" gradientUnits="userSpaceOnUse">
<stop stop-color="#951A4A"/>
<stop offset="1" stop-color="#C92263"/>
</linearGradient>
<linearGradient id="paint43_linear" x1="170.224" y1="54.8323" x2="170.224" y2="81.0008" gradientUnits="userSpaceOnUse">
<stop stop-color="#951A4A"/>
<stop offset="1" stop-color="#C92263"/>
</linearGradient>
<clipPath id="clip0">
<rect width="278" height="81" fill="white"/>
</clipPath>
</defs>
</svg>
