<svg width="42" height="42" viewBox="0 0 42 42" fill="none" xmlns="http://www.w3.org/2000/svg">
<g clip-path="url(#clip0)">
<path d="M36.8723 15.0449H39.735V39.5161H36.8723V15.0449Z" fill="#121C36"/>
<path d="M28.1919 26.0339H31.1469V39.5162H28.1919V26.0339Z" fill="#121C36"/>
<path d="M19.5118 21.8787H22.4668V39.5164H19.5118V21.8787Z" fill="#121C36"/>
<path d="M10.8314 28.9888H13.7864V39.516H10.8314V28.9888Z" fill="#121C36"/>
<path d="M2.24353 25.3877H5.1062V39.5163H2.24353V25.3877Z" fill="#121C36"/>
<path d="M38.1782 2.56909C36.8641 2.56873 35.642 3.244 34.9422 4.35645C34.2427 5.46891 34.1641 6.86273 34.7337 8.04733L30.6298 10.2946C29.9412 8.69662 28.2602 7.76561 26.5403 8.03001C24.8204 8.29406 23.4962 9.6868 23.3191 11.4175L18.4985 11.8183C17.8463 9.99413 15.9319 8.94696 14.0439 9.38127C12.1556 9.81557 10.8916 11.5943 11.1019 13.5202L6.9147 15.775C5.75643 14.1485 3.53909 13.6919 1.83217 14.7282C0.125609 15.7649 -0.491581 17.9433 0.417791 19.7209C1.32716 21.4985 3.45468 22.273 5.29399 21.4956C7.13329 20.7183 8.0607 18.6532 7.41934 16.7619L11.3934 14.6218C12.1123 16.2851 13.9007 17.215 15.6755 16.8481C17.4498 16.4809 18.7228 14.9179 18.7228 13.1057C18.7228 13.0408 18.721 12.9762 18.7178 12.9116L23.3682 12.5249C23.752 14.5395 25.6576 15.8915 27.6856 15.5892C29.7139 15.2866 31.1416 13.4372 30.9209 11.3984L35.3588 8.96861C36.5402 10.2607 38.4484 10.5843 39.9901 9.75461C41.5314 8.9246 42.3117 7.15347 41.8838 5.45592C41.4557 3.75838 39.9288 2.56873 38.1782 2.56909Z" fill="#951A4A"/>
</g>
<defs>
<clipPath id="clip0">
<rect width="42" height="42" fill="white"/>
</clipPath>
</defs>
</svg>
