<svg width="86" height="6" viewBox="0 0 86 6" fill="none" xmlns="http://www.w3.org/2000/svg">
<path d="M86 3L81 0.113249V5.88675L86 3ZM0 3.5L0.977273 3.5L0.977273 2.5H0L0 3.5ZM2.93182 3.5L4.88636 3.5V2.5L2.93182 2.5V3.5ZM6.84091 3.5L8.79546 3.5V2.5L6.84091 2.5V3.5ZM10.75 3.5L12.7045 3.5V2.5L10.75 2.5V3.5ZM14.6591 3.5L16.6136 3.5V2.5L14.6591 2.5V3.5ZM18.5682 3.5L20.5227 3.5V2.5L18.5682 2.5V3.5ZM22.4773 3.5L24.4318 3.5V2.5L22.4773 2.5V3.5ZM26.3864 3.5L28.3409 3.5V2.5L26.3864 2.5V3.5ZM30.2955 3.5L32.25 3.5V2.5L30.2955 2.5V3.5ZM34.2045 3.5L36.1591 3.5V2.5L34.2045 2.5V3.5ZM38.1136 3.5L40.0682 3.5V2.5L38.1136 2.5V3.5ZM42.0227 3.5L43.9773 3.5V2.5L42.0227 2.5V3.5ZM45.9318 3.5L47.8864 3.5V2.5L45.9318 2.5V3.5ZM49.8409 3.5L51.7954 3.5V2.5H49.8409V3.5ZM53.75 3.5L55.7045 3.5V2.5L53.75 2.5V3.5ZM57.6591 3.5L59.6136 3.5V2.5L57.6591 2.5V3.5ZM61.5682 3.5L63.5227 3.5V2.5L61.5682 2.5V3.5ZM65.4773 3.5L67.4318 3.5V2.5L65.4773 2.5V3.5ZM69.3863 3.5L71.3409 3.5V2.5L69.3863 2.5V3.5ZM73.2954 3.5L75.25 3.5V2.5L73.2954 2.5V3.5ZM77.2045 3.5L79.1591 3.5V2.5L77.2045 2.5V3.5ZM81.1136 3.5L83.0682 3.5V2.5L81.1136 2.5V3.5Z" fill="#BEBEBE"/>
</svg>
