<svg width="48" height="49" viewBox="0 0 48 49" fill="none" xmlns="http://www.w3.org/2000/svg">
<g clip-path="url(#clip0)">
<path d="M26.06 3.81827L4.08 0.40869C3.06 0.245357 2.02 0.53119 1.24 1.20494C0.46 1.89911 0 2.89952 0 3.94077V46.9587C0 48.0816 0.9 49.0004 2 49.0004H8.5V38.2816C8.5 36.3012 10.06 34.7087 12 34.7087H17C18.94 34.7087 20.5 36.3012 20.5 38.2816V49.0004H29V7.35036C29 5.59452 27.76 4.10411 26.06 3.81827ZM11 30.1149H8C7.172 30.1149 6.5 29.4289 6.5 28.5837C6.5 27.7384 7.172 27.0524 8 27.0524H11C11.828 27.0524 12.5 27.7384 12.5 28.5837C12.5 29.4289 11.828 30.1149 11 30.1149ZM11 23.9899H8C7.172 23.9899 6.5 23.3039 6.5 22.4587C6.5 21.6134 7.172 20.9274 8 20.9274H11C11.828 20.9274 12.5 21.6134 12.5 22.4587C12.5 23.3039 11.828 23.9899 11 23.9899ZM11 17.8649H8C7.172 17.8649 6.5 17.1789 6.5 16.3337C6.5 15.4884 7.172 14.8024 8 14.8024H11C11.828 14.8024 12.5 15.4884 12.5 16.3337C12.5 17.1789 11.828 17.8649 11 17.8649ZM11 11.7399H8C7.172 11.7399 6.5 11.0539 6.5 10.2087C6.5 9.36344 7.172 8.67744 8 8.67744H11C11.828 8.67744 12.5 9.36344 12.5 10.2087C12.5 11.0539 11.828 11.7399 11 11.7399ZM21 30.1149H18C17.172 30.1149 16.5 29.4289 16.5 28.5837C16.5 27.7384 17.172 27.0524 18 27.0524H21C21.828 27.0524 22.5 27.7384 22.5 28.5837C22.5 29.4289 21.828 30.1149 21 30.1149ZM21 23.9899H18C17.172 23.9899 16.5 23.3039 16.5 22.4587C16.5 21.6134 17.172 20.9274 18 20.9274H21C21.828 20.9274 22.5 21.6134 22.5 22.4587C22.5 23.3039 21.828 23.9899 21 23.9899ZM21 17.8649H18C17.172 17.8649 16.5 17.1789 16.5 16.3337C16.5 15.4884 17.172 14.8024 18 14.8024H21C21.828 14.8024 22.5 15.4884 22.5 16.3337C22.5 17.1789 21.828 17.8649 21 17.8649ZM21 11.7399H18C17.172 11.7399 16.5 11.0539 16.5 10.2087C16.5 9.36344 17.172 8.67744 18 8.67744H21C21.828 8.67744 22.5 9.36344 22.5 10.2087C22.5 11.0539 21.828 11.7399 21 11.7399Z" fill="#121C36"/>
<path d="M45.2397 22.1357L30.9997 19.0916V48.9999H44.4997C46.4297 48.9999 47.9997 47.3972 47.9997 45.427V25.6269C47.9997 23.9405 46.8737 22.5052 45.2397 22.1357ZM40.4997 42.8749H37.4997C36.6717 42.8749 35.9997 42.1889 35.9997 41.3437C35.9997 40.4984 36.6717 39.8124 37.4997 39.8124H40.4997C41.3277 39.8124 41.9997 40.4984 41.9997 41.3437C41.9997 42.1889 41.3277 42.8749 40.4997 42.8749ZM40.4997 36.7499H37.4997C36.6717 36.7499 35.9997 36.0639 35.9997 35.2187C35.9997 34.3734 36.6717 33.6874 37.4997 33.6874H40.4997C41.3277 33.6874 41.9997 34.3734 41.9997 35.2187C41.9997 36.0639 41.3277 36.7499 40.4997 36.7499ZM40.4997 30.6249H37.4997C36.6717 30.6249 35.9997 29.9389 35.9997 29.0937C35.9997 28.2484 36.6717 27.5624 37.4997 27.5624H40.4997C41.3277 27.5624 41.9997 28.2484 41.9997 29.0937C41.9997 29.9389 41.3277 30.6249 40.4997 30.6249Z" fill="#951A4A"/>
</g>
<defs>
<clipPath id="clip0">
<rect width="48" height="49" fill="white"/>
</clipPath>
</defs>
</svg>
