<svg width="47" height="48" viewBox="0 0 47 48" fill="none" xmlns="http://www.w3.org/2000/svg">
<g clip-path="url(#clip0)">
<path d="M38.1875 0H6.8542C3.07455 0 0 3.13997 0 7.00003V39C0 42.86 3.07455 46 6.8542 46H22.9634C19.6989 43.0659 17.625 38.7801 17.625 34C17.625 25.178 24.6534 18 33.2917 18C37.9721 18 42.1688 20.118 45.0417 23.452V7.00003C45.0417 3.13997 41.967 0 38.1875 0ZM17.3371 38.292C17.719 38.682 17.719 39.316 17.3371 39.706C17.1472 39.902 16.8965 40 16.6458 40C16.3951 40 16.1444 39.902 15.9526 39.708L11.75 35.414L7.54745 39.7059C7.3555 39.9019 7.1048 39.9999 6.8542 39.9999C6.60359 39.9999 6.3528 39.9019 6.16095 39.7079C5.77907 39.3179 5.77907 38.6839 6.16095 38.2939L10.3655 33.9998L6.16297 29.7079C5.78109 29.3179 5.78109 28.6839 6.16297 28.2938C6.54484 27.9037 7.16566 27.9038 7.54754 28.2938L11.75 32.586L15.9526 28.294C16.3344 27.904 16.9552 27.904 17.3371 28.294C17.7191 28.684 17.721 29.316 17.3391 29.7081L13.1345 34L17.3371 38.292ZM18.6042 14H13.7084V18.9999C13.7084 19.5519 13.2697 20 12.7292 20C12.1887 20 11.75 19.5519 11.75 18.9999V14H6.8542C6.3137 14 5.875 13.5519 5.875 12.9999C5.875 12.448 6.3137 12 6.8542 12H11.75V7.00003C11.75 6.44803 12.1887 6 12.7292 6C13.2697 6 13.7084 6.44803 13.7084 7.00003V12H18.6042C19.1447 12 19.5834 12.448 19.5834 13C19.5833 13.552 19.1447 14 18.6042 14ZM38.1875 14H28.3958C27.8553 14 27.4166 13.5519 27.4166 12.9999C27.4166 12.4479 27.8553 11.9999 28.3958 11.9999H38.1875C38.728 11.9999 39.1667 12.4479 39.1667 12.9999C39.1667 13.552 38.728 14 38.1875 14Z" fill="#121C36"/>
<path d="M33.2919 20C25.7328 20 19.5836 26.28 19.5836 34C19.5836 41.7199 25.7327 48 33.2919 48C40.8511 48 47.0002 41.72 47.0002 34.0001C47.0002 26.2801 40.851 20 33.2919 20ZM38.1877 38H28.396C27.8555 38 27.4168 37.552 27.4168 37C27.4168 36.448 27.8555 36 28.396 36H38.1877C38.7282 36 39.1669 36.4481 39.1669 37.0001C39.1669 37.5521 38.7282 38 38.1877 38ZM38.1877 32H28.396C27.8555 32 27.4168 31.552 27.4168 31C27.4168 30.448 27.8555 29.9999 28.396 29.9999H38.1877C38.7282 29.9999 39.1669 30.448 39.1669 31C39.1669 31.5521 38.7282 32 38.1877 32Z" fill="#951A4A"/>
</g>
<defs>
<clipPath id="clip0">
<rect width="47" height="48" fill="white"/>
</clipPath>
</defs>
</svg>
