<svg width="48" height="48" viewBox="0 0 48 48" fill="none" xmlns="http://www.w3.org/2000/svg">
<g clip-path="url(#clip0)">
<path d="M28.2421 21.2574C30.5853 23.6006 30.5853 27.3997 28.2421 29.743C25.8989 32.0862 22.0998 32.0862 19.7566 29.743C17.4133 27.3997 17.4133 23.6006 19.7566 21.2574C22.0998 18.9142 25.8989 18.9142 28.2421 21.2574Z" fill="#951A4A"/>
<path d="M41.9999 8.99972H37.8542L34.8527 2.99951H13.1445L10.1458 9.00267L6.00601 9.01004C2.70564 9.01593 0.0189659 11.7055 0.0161161 15.0073L0 38.9992C0 42.3084 2.691 45.0009 6.00021 45.0009H41.9999C45.3091 45.0009 48.0001 42.3099 48.0001 39.0007V14.9998C48 11.6907 45.309 8.99972 41.9999 8.99972ZM23.9993 37.5006C17.3823 37.5006 11.9988 32.1171 11.9988 25.5002C11.9988 18.8832 17.3823 13.4998 23.9993 13.4998C30.6162 13.4998 35.9997 18.8832 35.9997 25.5002C35.9997 32.1171 30.6162 37.5006 23.9993 37.5006Z" fill="#121C36"/>
</g>
<defs>
<clipPath id="clip0">
<rect width="48" height="48" fill="white"/>
</clipPath>
</defs>
</svg>
