<svg width="49" height="48" viewBox="0 0 49 48" fill="none" xmlns="http://www.w3.org/2000/svg">
<g clip-path="url(#clip0)">
<path d="M21.4383 0.00244141C9.61771 0.00244141 0.00199955 7.67301 0.00199955 17.1015C0.00199955 21.8772 2.45186 26.3559 6.77587 29.5778C5.34576 31.7646 3.49611 33.9785 1.16262 34.5425C0.424601 34.7225 -0.068434 35.4064 0.0081242 36.1474C0.0846824 36.8914 0.706335 37.4643 1.46885 37.4973C1.50254 37.4973 1.63422 37.5033 1.85471 37.5033C3.43793 37.5033 9.55033 37.2543 16.4865 33.7295C18.0759 34.0445 19.7387 34.2005 21.4383 34.2005C33.2558 34.2005 42.8746 26.5299 42.8746 17.1015C42.8746 7.67301 33.2558 0.00244141 21.4383 0.00244141Z" fill="#121C36"/>
<path d="M47.8353 44.9297C45.8846 44.4587 44.4086 43.0608 43.3766 41.6749C46.9687 38.918 48.999 35.1263 48.999 31.0855C48.999 27.7017 47.5475 24.5909 45.1374 22.104C42.415 30.7705 32.8391 37.1991 21.4381 37.1991C19.9161 37.1991 18.4125 37.0852 16.9518 36.8602C16.0821 37.2711 15.2307 37.6341 14.3947 37.9581C17.4846 42.6078 23.597 45.7847 30.625 45.7847C32.0613 45.7847 33.4546 45.6557 34.7776 45.4037C39.172 47.5966 43.1806 48.0015 45.5386 47.9985C46.8309 47.9985 47.6271 47.8785 47.7159 47.8635C48.4325 47.7495 48.9684 47.1556 48.999 46.4446C49.0266 45.7337 48.5427 45.0977 47.8353 44.9297Z" fill="#951A4A"/>
</g>
<defs>
<clipPath id="clip0">
<rect width="49" height="48" fill="white"/>
</clipPath>
</defs>
</svg>
