<svg width="70" height="70" viewBox="0 0 70 70" fill="none" xmlns="http://www.w3.org/2000/svg">
<path d="M11.4382 34.9995H16.4483L8.22521 46.1892L0 34.9995H5.01224C5.01224 18.4634 18.4617 5.01172 35 5.01172V11.4377C22.011 11.4377 11.4382 22.0062 11.4382 34.9995ZM70 34.9995H64.9878C64.9878 51.5356 51.5382 64.9872 35 64.9872V58.5613C47.989 58.5613 58.5618 47.9885 58.5618 34.9995H53.5517L61.7748 23.8076L70 34.9995Z" fill="#121C36"/>
<path d="M46.598 40.8676H42.7661C40.3514 40.8676 38.3868 38.9031 38.3868 36.4884C38.3868 34.0737 40.3514 32.1091 42.7661 32.1091H46.598C46.9006 32.1091 47.1454 31.8643 47.1454 31.5617V28.8247C47.1454 27.617 46.1634 26.635 44.9557 26.635H24.1542C22.9465 26.635 21.9645 27.617 21.9645 28.8247V44.1522C21.9645 45.3598 22.9465 46.3418 24.1542 46.3418H44.9557C46.1634 46.3418 47.1454 45.3598 47.1454 44.1521V41.4151C47.1454 41.1125 46.9006 40.8676 46.598 40.8676Z" fill="#951A4A"/>
<path d="M46.5979 33.2039H42.766C40.9548 33.2039 39.4815 34.6771 39.4815 36.4883C39.4815 38.2995 40.9548 39.7728 42.766 39.7728H46.5979C47.5035 39.7728 48.2401 39.0361 48.2401 38.1306V34.8461C48.2401 33.9405 47.5035 33.2039 46.5979 33.2039ZM42.766 37.5831C42.1625 37.5831 41.6712 37.0918 41.6712 36.4883C41.6712 35.8848 42.1625 35.3935 42.766 35.3935C43.3695 35.3935 43.8608 35.8848 43.8608 36.4883C43.8608 37.0918 43.3695 37.5831 42.766 37.5831Z" fill="#951A4A"/>
</svg>
