<svg width="48" height="48" viewBox="0 0 48 48" fill="none" xmlns="http://www.w3.org/2000/svg">
<g clip-path="url(#clip0)">
<path d="M48 19.7812C48 15.9045 44.7517 12.75 40.875 12.75H14.1562V11.3438C14.1562 10.5677 14.7865 9.9375 15.5625 9.9375H45.0938V1.5H15.535C10.1228 1.5 5.71875 5.90405 5.71875 11.3163V12.8914C2.51367 13.545 0 16.385 0 19.7812V21.1875H48V19.7812Z" fill="#121C36"/>
<path d="M16.9688 40.875H19.7812V43.6875H16.9688V40.875Z" fill="#121C36"/>
<path d="M8.53125 43.6875H11.3438V46.5H8.53125V43.6875Z" fill="#121C36"/>
<path d="M25.4062 43.6875H28.2188V46.5H25.4062V43.6875Z" fill="#121C36"/>
<path d="M16.9688 36.6562C16.9688 34.3301 15.0762 32.4375 12.75 32.4375C10.4238 32.4375 8.53125 34.3301 8.53125 36.6562C8.53125 38.9824 10.4238 40.875 12.75 40.875C15.0762 40.875 16.9688 38.9824 16.9688 36.6562Z" fill="#951A4A"/>
<path d="M25.4062 40.875C28.5084 40.875 31.0312 38.3522 31.0312 35.25C31.0312 32.1478 28.5084 29.625 25.4062 29.625C22.3041 29.625 19.7812 32.1478 19.7812 35.25C19.7812 38.3522 22.3041 40.875 25.4062 40.875Z" fill="#951A4A"/>
<path d="M35.25 43.6875C35.25 45.238 36.512 46.5 38.0625 46.5C39.613 46.5 40.875 45.238 40.875 43.6875C40.875 42.137 39.613 40.875 38.0625 40.875C36.512 40.875 35.25 42.137 35.25 43.6875Z" fill="#951A4A"/>
<path d="M0.192261 35.25H5.71875V24H2.90625C2.91064 24.6324 2.8949 24.5475 2.92822 26.1533C2.98169 28.8149 3.02856 31.1151 1.73474 33.0667L0.192261 35.25Z" fill="#121C36"/>
<path d="M22.5938 24H19.7812V28.9966C20.5909 28.2623 21.5457 27.6943 22.5938 27.3182V24Z" fill="#121C36"/>
<path d="M16.9688 24H14.1562V29.7697C15.2018 29.9839 16.1473 30.4479 16.9688 31.0715V24Z" fill="#121C36"/>
<path d="M11.3438 24H8.53125V31.0591C9.35046 30.4398 10.3022 29.9923 11.3438 29.7792V24Z" fill="#121C36"/>
<path d="M36.6562 24H39.4688V35.25H36.6562V24Z" fill="#121C36"/>
<path d="M45.0938 24H42.2812V35.25H47.8077L46.359 33.0667C45.0652 31.1151 45.0183 28.8146 45.0718 26.1533C45.1036 24.6226 45.0905 24.4867 45.0938 24Z" fill="#121C36"/>
<path d="M25.4062 24V26.8125C26.3972 26.8125 27.3347 27.0154 28.2188 27.3307V24H25.4062Z" fill="#121C36"/>
<path d="M33.8438 24H31.0312V29.0068C32.7448 30.5526 33.8438 32.766 33.8438 35.25V24Z" fill="#121C36"/>
</g>
<defs>
<clipPath id="clip0">
<rect width="48" height="48" fill="white"/>
</clipPath>
</defs>
</svg>
