<svg width="48" height="48" viewBox="0 0 48 48" fill="none" xmlns="http://www.w3.org/2000/svg">
<g clip-path="url(#clip0)">
<path d="M47.4136 22.586L39.0618 14.2342C30.758 5.92844 17.2422 5.92844 8.93841 14.2342L0.586586 22.586C-0.195366 23.368 -0.195366 24.632 0.586586 25.414L8.93841 33.7658C13.0903 37.9177 18.5442 39.9956 24.0001 39.9956C29.4559 39.9956 34.9098 37.9177 39.0617 33.7658L47.4135 25.414C48.1956 24.632 48.1956 23.368 47.4136 22.586ZM24.0001 33.9998C18.4862 33.9998 14.0002 29.5138 14.0002 24C14.0002 18.4861 18.4862 14.0001 24.0001 14.0001C29.5139 14.0001 33.9999 18.4861 33.9999 24C33.9999 29.5138 29.5139 33.9998 24.0001 33.9998Z" fill="#121C36"/>
<path d="M24 17.9998C20.6921 17.9998 18.0001 20.6917 18.0001 23.9996C18.0001 27.3075 20.6921 29.9995 24 29.9995C27.3079 29.9995 29.9999 27.3075 29.9999 23.9996C29.9999 20.6917 27.308 17.9998 24 17.9998Z" fill="#951A4A"/>
</g>
<defs>
<clipPath id="clip0">
<rect width="48" height="48" fill="white"/>
</clipPath>
</defs>
</svg>
