<svg width="48" height="48" viewBox="0 0 48 48" fill="none" xmlns="http://www.w3.org/2000/svg">
<g clip-path="url(#clip0)">
<path d="M1.98895 48H7.95489L20.9158 35.0391L17.9327 32.0559L1.98895 48Z" fill="#951A4A"/>
<path d="M16.9383 23.1069L0 40.0453V46.0116L17.9326 28.0786L22.9047 33.0507L24.8932 31.0618L16.9383 23.1069Z" fill="#121C36"/>
<path d="M43.8812 4.11877C38.3895 -1.37292 29.4854 -1.37292 23.9937 4.11877C20.7407 7.37182 19.415 11.8224 20.016 16.0518L16.9383 19.1294L28.8706 31.0616L31.9482 27.984C36.1776 28.5853 40.6281 27.2593 43.8812 24.0062C49.3729 18.5145 49.3729 9.61047 43.8812 4.11877ZM39.9038 13.0682C38.5308 14.4412 36.305 14.4412 34.9317 13.0682C33.5588 11.6953 33.5588 9.46911 34.9317 8.09619C36.305 6.72326 38.5308 6.72326 39.9038 8.09619C41.2767 9.46911 41.2767 11.6953 39.9038 13.0682Z" fill="#121C36"/>
</g>
<defs>
<clipPath id="clip0">
<rect width="48" height="48" fill="white"/>
</clipPath>
</defs>
</svg>
