<svg width="48" height="48" viewBox="0 0 48 48" fill="none" xmlns="http://www.w3.org/2000/svg">
<g clip-path="url(#clip0)">
<path d="M38.8224 22.5066H5.08112C2.75537 22.5066 0.863495 24.3986 0.863495 26.7242V43.7823C0.863495 46.108 2.75546 47.9999 5.08112 47.9999H38.8224C41.1481 47.9999 43.04 46.108 43.04 43.7823V26.7242C43.04 24.3986 41.1481 22.5066 38.8224 22.5066ZM5.08112 45.1882C4.30675 45.1882 3.67525 44.558 3.67525 43.7823V41.1702C5.64146 41.6814 7.18206 43.2216 7.69328 45.1882H5.08112ZM3.67525 29.3363V26.7242C3.67525 25.9485 4.30675 25.3183 5.08112 25.3183H7.69328C7.18206 27.2849 5.64146 28.8252 3.67525 29.3363ZM21.9518 42.3764C18.0747 42.3764 14.9224 39.1291 14.9224 35.2533C14.9224 31.3775 18.0747 28.1302 21.9518 28.1302C25.8289 28.1302 28.9813 31.3775 28.9813 35.2533C28.9812 39.1291 25.8289 42.3764 21.9518 42.3764ZM40.2283 43.7823C40.2283 44.558 39.5968 45.1882 38.8224 45.1882H36.2102C36.7216 43.2216 38.2621 41.6814 40.2283 41.1702V43.7823ZM40.2283 29.3363C38.2621 28.8252 36.7215 27.2849 36.2102 25.3183H38.8224C39.5968 25.3183 40.2283 25.9485 40.2283 26.7242V29.3363Z" fill="#121C36"/>
<path d="M21.9519 30.9421C19.6263 30.9421 17.7343 32.9279 17.7343 35.2535C17.7343 37.5792 19.6263 39.5649 21.9519 39.5649C24.2776 39.5649 26.1696 37.5793 26.1696 35.2535C26.1696 32.9278 24.2776 30.9421 21.9519 30.9421Z" fill="#121C36"/>
<path d="M27.8828 17.2101C26.9026 15.1026 24.3901 14.1896 22.2757 15.1699C21.257 15.6463 20.4827 16.4907 20.0983 17.5492C19.8428 18.2476 19.7973 18.9817 19.9196 19.6951H28.2046C28.3444 18.8759 28.2568 18.012 27.8828 17.2101Z" fill="#951A4A"/>
<path d="M46.7388 17.7248L44.9573 13.9049L44.9568 13.9025C44.9568 13.9025 44.9558 13.9013 44.9554 13.9006L39.6078 2.43432C38.6275 0.328222 36.1096 -0.587528 34.0035 0.394128L30.1804 2.17707L30.1786 2.17753L30.1771 2.17875L7.25153 12.8706C7.25031 12.871 7.249 12.8709 7.249 12.8709C7.24656 12.872 7.24572 12.8734 7.2445 12.8738L3.42559 14.6549C1.31612 15.6359 0.393529 18.1324 1.38269 20.2592L1.57365 20.6687C2.38319 20.1978 3.2889 19.8928 4.2609 19.778L3.9309 19.0703C3.60231 18.3705 3.90587 17.5333 4.6119 17.203L6.97984 16.0987C7.20962 17.3515 6.95903 18.6017 6.38697 19.6949H17.0917C16.986 18.6551 17.0876 17.5993 17.4543 16.588C18.0968 14.8238 19.3875 13.4152 21.0899 12.6217C24.599 10.9879 28.7948 12.5091 30.4313 16.0211C30.9837 17.2051 31.1598 18.4717 31.034 19.6951H38.8227C39.6359 19.6951 40.4045 19.8612 41.1315 20.1162C41.3207 18.7421 41.987 17.4549 43.0867 16.5461L44.1909 18.9139C44.5193 19.6134 44.2157 20.4506 43.5097 20.7809L42.9347 21.0491C43.7236 21.6225 44.3761 22.3568 44.8702 23.2019C47.0169 22.0669 47.6357 19.6533 46.7388 17.7248ZM32.8228 4.04616L35.1897 2.94235C35.8871 2.61563 36.7274 2.919 37.0596 3.62335L38.163 5.98922C36.1626 6.35597 34.1158 5.61047 32.8228 4.04616Z" fill="#951A4A"/>
</g>
<defs>
<clipPath id="clip0">
<rect width="48" height="48" fill="white"/>
</clipPath>
</defs>
</svg>
