<svg width="48" height="48" viewBox="0 0 48 48" fill="none" xmlns="http://www.w3.org/2000/svg">
<g clip-path="url(#clip0)">
<path d="M35.944 6.10802L11.212 16H4.5C2.02 16 0 18.02 0 20.5V26C0 28.356 1.85 30 4.5 30H6.2L8.016 42.712C8.122 43.452 8.754 44 9.5 44H15.5C15.928 44 16.334 43.818 16.62 43.5C16.904 43.182 17.04 42.758 16.992 42.332L15.812 31.84L35.942 39.892C36.124 39.964 36.312 40 36.5 40C36.794 40 37.09 39.912 37.342 39.742C37.754 39.462 38 38.998 38 38.5V7.50002C38 7.00202 37.754 6.53802 37.342 6.25802C36.928 5.97802 36.404 5.92202 35.944 6.10802Z" fill="#121C36"/>
<path d="M42.4382 18.6719L47.4381 14.6719C48.0841 14.1539 48.1901 13.2099 47.6722 12.5619C47.1522 11.9179 46.2102 11.8139 45.5622 12.3279L40.5622 16.3279C39.9162 16.8459 39.8102 17.7899 40.3282 18.4379C40.6242 18.8059 41.0602 18.9999 41.5002 18.9999C41.8302 18.9999 42.1602 18.8919 42.4382 18.6719Z" fill="#951A4A"/>
<path d="M42.4382 29.3282C41.7942 28.8142 40.8502 28.9182 40.3282 29.5622C39.8102 30.2082 39.9162 31.1542 40.5622 31.6722L45.5622 35.6722C45.8402 35.8922 46.1702 36.0002 46.5002 36.0002C46.9402 36.0002 47.3762 35.8062 47.6722 35.4382C48.1901 34.7922 48.0841 33.8462 47.4381 33.3282L42.4382 29.3282Z" fill="#951A4A"/>
<path d="M46.4998 22.5H41.4998C40.6718 22.5 39.9998 23.172 39.9998 24C39.9998 24.828 40.6718 25.5 41.4998 25.5H46.4998C47.3278 25.5 47.9998 24.828 47.9998 24C47.9998 23.172 47.3278 22.5 46.4998 22.5Z" fill="#951A4A"/>
</g>
<defs>
<clipPath id="clip0">
<rect width="48" height="48" fill="white"/>
</clipPath>
</defs>
</svg>
