<svg width="48" height="48" viewBox="0 0 48 48" fill="none" xmlns="http://www.w3.org/2000/svg">
<g clip-path="url(#clip0)">
<path d="M28.5 0H5.5C2.46 0 0 2.46 0 5.5V36.5C0 39.54 2.46 42 5.5 42H20.26L20.7 39.54C20.9 38.42 21.42 37.42 22.22 36.6L34 24.84V5.5C34 2.46 31.54 0 28.5 0V0ZM8 8H16C17.1 8 18 8.9 18 10C18 11.1 17.1 12 16 12H8C6.9 12 6 11.1 6 10C6 8.9 6.9 8 8 8ZM18 28H8C6.9 28 6 27.1 6 26C6 24.9 6.9 24 8 24H18C19.1 24 20 24.9 20 26C20 27.1 19.1 28 18 28ZM26 20H8C6.9 20 6 19.1 6 18C6 16.9 6.9 16 8 16H26C27.1 16 28 16.9 28 18C28 19.1 27.1 20 26 20Z" fill="#121C36"/>
<path d="M25.0559 48.0003C24.6619 48.0003 24.2779 47.8443 23.9959 47.5603C23.6499 47.2143 23.4939 46.7223 23.5799 46.2383L24.6399 40.2283C24.6919 39.9263 24.8399 39.6463 25.0559 39.4283L39.9059 24.5803C41.7299 22.7523 43.5219 23.2463 44.5019 24.2263L46.9759 26.7003C48.3419 28.0643 48.3419 30.2843 46.9759 31.6503L32.1259 46.5003C31.9099 46.7183 31.6299 46.8643 31.3259 46.9163L25.3159 47.9763C25.2299 47.9923 25.1419 48.0003 25.0559 48.0003ZM31.0659 45.4403H31.0859H31.0659Z" fill="#951A4A"/>
</g>
<defs>
<clipPath id="clip0">
<rect width="48" height="48" fill="white"/>
</clipPath>
</defs>
</svg>
