<svg width="47" height="48" viewBox="0 0 47 48" fill="none" xmlns="http://www.w3.org/2000/svg">
<path d="M41.1508 33.3962L46.9996 27.4233L41.1508 21.4501L42.0931 20.4877C43.7236 18.8225 43.7236 16.1133 42.0935 14.4481C41.3035 13.6417 40.2532 13.1975 39.1363 13.1975C38.0196 13.1975 36.9694 13.6417 36.1798 14.4481L35.2374 15.4105L29.3886 9.43726L27.6627 11.2002V13.9863C30.7157 14.7294 32.993 17.5386 32.993 20.8806C32.993 24.223 30.7157 27.0322 27.6627 27.7749V36.4142H22.5996L21.5901 37.4451L29.3886 45.4091L35.2374 39.4358L36.0496 40.2656C37.6801 41.9308 40.3328 41.9308 41.9633 40.2656C43.5938 38.6005 43.5938 35.8912 41.9633 34.2261L41.1508 33.3962Z" fill="#951A4A"/>
<path d="M24.906 33.5992V25.1519H26.0545C28.3606 25.1519 30.2363 23.2362 30.2363 20.8811C30.2363 18.5264 28.3606 16.6107 26.0545 16.6107H24.906V8.16333H16.6346V6.80249C16.6346 4.44739 14.7589 2.53174 12.4528 2.53174C10.1471 2.53174 8.2714 4.44739 8.2714 6.80249V8.16333H0V16.6107H1.1489C3.17201 16.6107 4.8638 18.0854 5.2482 20.0377C5.41494 20.2758 5.51427 20.5665 5.51427 20.8811C5.51427 21.1957 5.41494 21.4865 5.2482 21.7249C4.8638 23.6768 3.17201 25.1519 1.1489 25.1519H0V33.5992H8.2714V32.238C8.2714 29.8833 10.1471 27.9677 12.4528 27.9677C14.7589 27.9677 16.6346 29.8833 16.6346 32.238V33.5992H24.906Z" fill="#121C36"/>
</svg>
