<svg width="47" height="48" viewBox="0 0 47 48" fill="none" xmlns="http://www.w3.org/2000/svg">
<g clip-path="url(#clip0)">
<path d="M5.59943 42.8433H41.401V47.9996H5.59943V42.8433Z" fill="#951A4A"/>
<path d="M44.1545 40.0312H2.84494V33.9373H44.1545V40.0312Z" fill="#121C36"/>
<path d="M31.7622 31.1244H15.2384C17.5545 31.1244 19.3694 29.2184 19.3694 26.7855V26.0261C19.3694 22.5395 18.1273 19.021 15.6772 15.5681C14.4893 13.8946 13.8614 11.9146 13.8614 9.84263C13.8614 3.7253 19.2702 -0.954812 25.3005 0.166464C29.1469 0.881794 32.2231 4.04406 32.9529 7.8879C33.5183 10.8617 32.7628 13.8721 30.88 16.1465C28.7852 18.6778 27.6313 22.2957 27.6313 26.3346V26.9055C27.6313 29.2315 29.4847 31.1244 31.7622 31.1244Z" fill="#121C36"/>
</g>
<defs>
<clipPath id="clip0">
<rect width="47" height="48" fill="white"/>
</clipPath>
</defs>
</svg>
