<svg width="47" height="48" viewBox="0 0 47 48" fill="none" xmlns="http://www.w3.org/2000/svg">
<path d="M8.36025 5.54468V33.1053L0.0911899 10.0953C-0.172267 9.36405 0.198592 8.55312 0.916444 8.28874L8.36025 5.54468Z" fill="#951A4A"/>
<path d="M46.9087 10.0948L38.6534 33.0664V5.5498L46.0834 8.28824C46.8013 8.55262 47.1712 9.36355 46.9087 10.0948Z" fill="#951A4A"/>
<path d="M34.5228 0H12.4916C11.7315 0 11.1146 0.63 11.1146 1.40625V46.5938C11.1146 47.37 11.7315 48 12.4916 48H34.5228C35.2829 48 35.8998 47.37 35.8998 46.5938V1.40625C35.8998 0.63 35.2829 0 34.5228 0ZM26.2611 39.5625H17.9994C17.2393 39.5625 16.6224 38.9325 16.6224 38.1562C16.6224 37.38 17.2393 36.75 17.9994 36.75H26.2611C27.0212 36.75 27.6381 37.38 27.6381 38.1562C27.6381 38.9325 27.0212 39.5625 26.2611 39.5625ZM29.015 33.9375H17.9994C17.2393 33.9375 16.6224 33.3075 16.6224 32.5312C16.6224 31.755 17.2393 31.125 17.9994 31.125H29.015C29.7751 31.125 30.392 31.755 30.392 32.5312C30.392 33.3075 29.7751 33.9375 29.015 33.9375ZM29.015 28.3125H20.7533C19.9932 28.3125 19.3763 27.6825 19.3763 26.9062C19.3763 26.13 19.9932 25.5 20.7533 25.5H29.015C29.7751 25.5 30.392 26.13 30.392 26.9062C30.392 27.6825 29.7751 28.3125 29.015 28.3125ZM30.392 18.4688C30.392 19.245 29.7751 19.875 29.015 19.875H17.9994C17.2393 19.875 16.6224 19.245 16.6224 18.4688V10.0312C16.6224 9.255 17.2393 8.625 17.9994 8.625H29.015C29.7751 8.625 30.392 9.255 30.392 10.0312V18.4688Z" fill="#121C36"/>
<path d="M19.3763 11.4375H27.6381V17.0625H19.3763V11.4375Z" fill="#121C36"/>
</svg>
