<svg width="130" height="100" viewBox="0 0 130 100" fill="none" xmlns="http://www.w3.org/2000/svg">
<path d="M85.3407 13C74.0306 13 64.8618 21.9854 64.8618 33.0693C64.8618 38.7041 67.2326 43.7955 71.0484 47.4408L67.0301 53.1383H85.3404C96.6505 53.1383 105.819 44.1529 105.819 33.069C105.819 21.9852 96.651 13 85.3407 13Z" fill="#951A4A"/>
<path d="M76.9138 59.3946C74.3309 62.7504 71.7482 66.1065 69.1655 69.4622C61.4276 63.5069 54.493 56.5724 48.5377 48.8344C51.8935 46.2515 55.2496 43.6691 58.6053 41.0862C53.9069 34.9815 49.895 28.3133 46.6794 21.1914C45.0079 21.946 40.8229 23.8358 36.3739 25.8444C28.5703 29.3677 25.6231 38.9423 30.1041 46.2383C40.5227 63.2021 54.7979 77.4773 71.7614 87.8959C79.0574 92.3767 88.6316 89.4297 92.1553 81.6261C94.1641 77.1771 96.0537 72.9917 96.8085 71.3206C89.6866 68.105 83.0184 64.0931 76.9138 59.3946Z" fill="#121C36"/>
<path d="M85.3404 26.9254C87.6024 26.9254 89.4361 24.9083 89.4361 22.4201C89.4361 19.9319 87.6024 17.9148 85.3404 17.9148C83.0784 17.9148 81.2446 19.9319 81.2446 22.4201C81.2446 24.9083 83.0784 26.9254 85.3404 26.9254Z" fill="white"/>
<path d="M88.6169 28.5637H82.0637V46.585H88.6169V28.5637Z" fill="white"/>
</svg>
