<svg width="130" height="100" viewBox="0 0 130 100" fill="none" xmlns="http://www.w3.org/2000/svg">
<path d="M47.6582 28.9726H72.3457C73.624 28.9726 74.6601 27.9365 74.6601 26.6582V20.4863C74.6601 19.2079 73.624 18.1719 72.3457 18.1719H68.1676C67.1574 14.614 63.8792 12 60.0019 12C56.1246 12 52.8464 14.6134 51.8363 18.1719H47.6582C46.3798 18.1719 45.3438 19.2079 45.3438 20.4863V26.6582C45.3438 27.9365 46.3798 28.9726 47.6582 28.9726Z" fill="#121C36"/>
<path d="M110.418 35.6186C108.309 33.5096 104.89 33.5096 102.78 35.6186L97.8706 40.5283L103.871 46.529C105.977 48.6343 105.977 52.0608 103.871 54.1661L96.2342 61.8038C95.3308 62.7072 95.3308 64.1725 96.2342 65.0765C97.1383 65.9806 98.6035 65.9806 99.5076 65.0765L107.145 57.4395C110.492 54.092 110.971 48.9495 108.589 45.0849L110.418 43.2556C112.527 41.1467 112.527 37.7275 110.418 35.6186V35.6186Z" fill="#951A4A"/>
<path d="M71.8841 66.6138L65.3379 77.5242C64.7912 78.435 64.9347 79.6006 65.6857 80.3516C66.4367 81.1026 67.6023 81.246 68.513 80.7L79.4235 74.1532C79.5856 74.0562 79.7357 73.9393 79.8695 73.8055L102.236 51.4391L94.5988 43.802L72.2318 66.1678C72.098 66.3022 71.9811 66.4517 71.8841 66.6138V66.6138Z" fill="#951A4A"/>
<path d="M81.8041 78.1227L70.8943 84.6689C69.816 85.3162 68.5804 85.6586 67.3232 85.6586C67.3226 85.6586 67.3226 85.6586 67.3226 85.6586C65.4674 85.6586 63.7237 84.9359 62.4128 83.625C60.1556 81.3678 59.7259 77.8798 61.3683 75.1429L67.9144 64.2324C68.2067 63.7454 68.5587 63.2946 68.9601 62.8932L87.0038 44.8501V25.1152C87.0038 23.8369 85.9677 22.8008 84.6894 22.8008H79.289V26.6582C79.289 30.4867 76.1741 33.6015 72.3456 33.6015H47.6582C43.8297 33.6015 40.7148 30.4867 40.7148 26.6582V22.8008H35.3144C34.0361 22.8008 33 23.8369 33 25.1152V88.6854C33 89.9632 34.0361 90.9999 35.3144 90.9999H84.6894C85.9677 90.9999 87.0038 89.9632 87.0038 88.6854V73.2172L83.1422 77.0782C82.7408 77.4796 82.2911 77.831 81.8041 78.1227V78.1227ZM56.7617 39.0019H75.2773C76.5556 39.0019 77.5917 40.038 77.5917 41.3164C77.5917 42.5947 76.5556 43.6308 75.2773 43.6308H56.7617C55.4839 43.6308 54.4472 42.5947 54.4472 41.3164C54.4472 40.038 55.4839 39.0019 56.7617 39.0019V39.0019ZM56.7617 48.2597H75.2773C76.5556 48.2597 77.5917 49.2958 77.5917 50.5742C77.5917 51.8525 76.5556 52.8886 75.2773 52.8886H56.7617C55.4839 52.8886 54.4472 51.8525 54.4472 50.5742C54.4472 49.2958 55.4839 48.2597 56.7617 48.2597V48.2597ZM44.5722 39.0019H47.6582C48.9365 39.0019 49.9726 40.038 49.9726 41.3164C49.9726 42.5947 48.9365 43.6308 47.6582 43.6308H44.5722C43.2945 43.6308 42.2578 42.5947 42.2578 41.3164C42.2578 40.038 43.2945 39.0019 44.5722 39.0019ZM44.5722 48.2597H47.6582C48.9365 48.2597 49.9726 49.2958 49.9726 50.5742C49.9726 51.8525 48.9365 52.8886 47.6582 52.8886H44.5722C43.2945 52.8886 42.2578 51.8525 42.2578 50.5742C42.2578 49.2958 43.2945 48.2597 44.5722 48.2597V48.2597ZM56.916 75.2616H53.0586V79.119C53.0586 80.3968 52.0225 81.4335 50.7441 81.4335C49.4663 81.4335 48.4297 80.3968 48.4297 79.119V75.2616H44.5722C43.2945 75.2616 42.2578 74.2255 42.2578 72.9472C42.2578 71.6688 43.2945 70.6327 44.5722 70.6327H48.4297V66.7753C48.4297 65.4969 49.4663 64.4609 50.7441 64.4609C52.0225 64.4609 53.0586 65.4969 53.0586 66.7753V70.6327H56.916C58.1943 70.6327 59.2304 71.6688 59.2304 72.9472C59.2304 74.2255 58.1943 75.2616 56.916 75.2616Z" fill="#121C36"/>
</svg>
