<svg width="130" height="100" viewBox="0 0 130 100" fill="none" xmlns="http://www.w3.org/2000/svg">
<path d="M39.9953 25.7406C36.5476 22.2929 21.8952 21.4311 17.1546 21C16.7238 21 16.2927 21 15.8618 21.4309C15.4309 21.862 15 22.724 15 23.1548V61.9408C15 63.2337 15.862 64.0956 17.1548 64.0956H30.0835C30.9455 64.0956 31.8073 63.6648 32.2383 62.8028C32.2383 61.5099 39.9955 38.6692 40.8575 27.4645C40.8573 27.0334 40.8573 26.1717 39.9953 25.7406Z" fill="#121C36"/>
<path d="M86.1075 36.0836C81.7981 34.7907 77.9195 33.067 74.4718 31.7741C66.7146 28.3264 63.2669 30.0504 56.3716 36.9456C53.355 39.9622 51.2002 44.2719 51.6311 45.9956C51.6311 46.4265 51.6311 46.4265 52.493 46.8576C54.6479 47.7196 57.6645 48.1505 60.6811 43.4099C61.112 42.979 61.5431 42.5479 62.4049 42.5479C63.6977 42.5479 64.1286 42.1171 65.4215 41.686C66.2835 41.2551 67.1453 40.824 68.4381 40.3931C68.869 40.3931 68.869 40.3931 69.3001 40.3931C69.731 40.3931 70.593 40.824 71.0238 40.824C73.1789 42.979 77.0575 45.9956 80.9361 49.4434C86.9695 54.1839 93.0028 59.3554 96.0196 63.234H96.4505C93.4339 54.6148 88.2624 39.9622 86.1075 36.0836Z" fill="#951A4A"/>
<path d="M116.274 25.3096C99.4671 25.3096 89.9862 29.6191 89.5551 29.6191C89.1242 30.0499 88.6931 30.481 88.2622 30.9119C88.2622 31.3428 88.2622 32.2048 88.6931 32.6357C91.2788 36.9452 99.898 60.6478 101.191 66.6811C101.622 67.543 102.484 68.4048 103.346 68.4048H116.274C117.567 68.4048 118.429 67.5428 118.429 66.25V27.464C118.429 26.1715 117.567 25.3096 116.274 25.3096Z" fill="#951A4A"/>
<path d="M93.0029 67.5435C91.2792 63.6649 83.9529 58.0625 77.4885 52.891C74.041 49.8742 70.5933 47.2885 68.0076 45.1337C67.5767 45.5645 66.7147 45.5645 66.7147 45.9956C65.4219 46.4265 64.991 46.8576 63.267 46.8576C59.8195 51.1671 55.5098 52.8908 50.7695 51.1671C48.6146 50.7362 47.3217 49.0123 46.8909 47.2885C46.0289 42.979 49.9075 36.9456 52.9243 33.929H44.3051C42.5814 42.5481 39.5646 53.7528 37.4099 59.7863C39.1337 61.51 40.8576 63.6649 42.1505 64.5268C50.3386 71.4221 59.8197 78.3175 61.5435 79.6103C62.8363 80.4723 65.4221 81.3341 66.7149 81.3341C67.1458 81.3341 67.5769 81.3341 68.0078 81.3341L61.1124 74.4387C60.2504 73.5767 60.2504 72.2838 61.1124 71.4221C61.9744 70.5603 63.2672 70.5601 64.129 71.4221L72.7482 80.0412C73.6101 80.9032 74.4719 80.4721 75.3339 80.4721C76.6268 80.0412 77.0577 79.1792 77.4887 77.8864L67.5767 67.9743C66.7147 67.1124 66.7147 65.8195 67.5767 64.9577C68.4387 64.0959 69.7316 64.0957 70.5933 64.9577L81.3671 75.7315C81.798 76.1624 83.522 76.1624 84.8148 75.7315C85.2457 75.3006 86.1077 74.8696 86.5386 74.0078L74.4719 61.9409C73.6099 61.0789 73.6099 59.7861 74.4719 58.9243C75.3339 58.0625 76.6268 58.0623 77.4885 58.9243L89.9863 71.4221C90.8483 71.8529 91.7101 71.4221 92.572 70.9912C93.0029 70.5601 93.8649 69.2672 93.0029 67.5435Z" fill="#121C36"/>
</svg>
