<svg width="130" height="100" viewBox="0 0 130 100" fill="none" xmlns="http://www.w3.org/2000/svg">
<path d="M47.5667 25.736L77.534 17.5562L75.947 14.3484C74.9087 12.2633 72.3763 11.4023 70.2912 12.4406L43.4641 25.736H47.5667Z" fill="#951A4A"/>
<path d="M86.8367 17.7925C86.4653 17.7925 86.0938 17.8431 85.7224 17.9444L78.6822 19.8691L57.1816 25.7359H81.586H92.2223L90.9055 20.9074C90.399 19.0249 88.6938 17.7925 86.8367 17.7925Z" fill="#951A4A"/>
<path d="M96.6204 28.6904H95.658H94.3496H93.0412H83.0549H46.3596H41.548H37.4961H36.7448H34.2292C32.8954 28.6904 31.7052 29.3067 30.9286 30.2774C30.574 30.7248 30.3039 31.2398 30.1519 31.8053C30.0591 32.1599 30 32.5313 30 32.9112V33.4177V38.2293V79.9388C30 82.2688 31.8909 84.1596 34.2208 84.1596H96.6119C98.9419 84.1596 100.833 82.2688 100.833 79.9388V68.1629H75.7867C71.8277 68.1629 68.6115 64.9467 68.6115 60.9876V57.1214V55.813V54.5046V51.6007C68.6115 49.6591 69.388 47.8949 70.6459 46.6034C71.7601 45.4553 73.2543 44.6786 74.9257 44.4845C75.2043 44.4508 75.4913 44.4338 75.7783 44.4338H97.321H98.6295H99.9379H100.833V32.9112C100.841 30.5813 98.9502 28.6904 96.6204 28.6904Z" fill="#121C36"/>
<path d="M103.796 48.469C103.374 48.0807 102.875 47.7853 102.318 47.5911C101.888 47.4477 101.432 47.3633 100.951 47.3633H100.841H100.757H99.4482H94.7294H75.7867C73.4567 47.3633 71.5659 49.2541 71.5659 51.584V53.6859V54.9943V56.3028V60.9794C71.5659 63.3092 73.4567 65.2001 75.7867 65.2001H100.841H100.951C101.432 65.2001 101.888 65.1157 102.318 64.9722C102.875 64.7865 103.374 64.4826 103.796 64.0943C104.64 63.3261 105.172 62.2118 105.172 60.9794V51.584C105.172 50.3515 104.64 49.2371 103.796 48.469ZM84.5996 57.1216C84.5996 58.2865 83.6542 59.232 82.4892 59.232H81.0879C79.923 59.232 78.9776 58.2865 78.9776 57.1216V55.7203C78.9776 55.045 79.2899 54.4455 79.7879 54.0657C80.1509 53.7871 80.5984 53.6099 81.0879 53.6099H81.4425H82.4892C83.6542 53.6099 84.5996 54.5553 84.5996 55.7203V57.1216Z" fill="#121C36"/>
</svg>
