<svg width="346" height="691" viewBox="0 0 346 691" fill="none" xmlns="http://www.w3.org/2000/svg">
<g opacity="0.09">
<path fill-rule="evenodd" clip-rule="evenodd" d="M345.5 2.20744C155.905 2.20744 2.20744 155.905 2.20744 345.5C2.20744 535.095 155.905 688.793 345.5 688.793C535.095 688.793 688.793 535.095 688.793 345.5C688.793 155.905 535.095 2.20744 345.5 2.20744ZM0 345.5C0 154.686 154.686 0 345.5 0C536.314 0 691 154.686 691 345.5C691 536.314 536.314 691 345.5 691C154.686 691 0 536.314 0 345.5Z" fill="#434C63"/>
<path fill-rule="evenodd" clip-rule="evenodd" d="M345.499 27.0331C169.615 27.0331 27.033 169.615 27.033 345.499C27.033 521.384 169.615 663.966 345.499 663.966C521.383 663.966 663.966 521.384 663.966 345.499C663.966 169.615 521.383 27.0331 345.499 27.0331ZM24.8754 345.499C24.8754 168.424 168.424 24.8755 345.499 24.8755C522.575 24.8755 666.123 168.424 666.123 345.499C666.123 522.575 522.575 666.123 345.499 666.123C168.424 666.123 24.8754 522.575 24.8754 345.499Z" fill="#434C63"/>
<path fill-rule="evenodd" clip-rule="evenodd" d="M345.5 51.86C183.327 51.86 51.86 183.327 51.86 345.5C51.86 507.672 183.327 639.139 345.5 639.139C507.672 639.139 639.139 507.672 639.139 345.5C639.139 183.327 507.672 51.86 345.5 51.86ZM49.7517 345.5C49.7517 182.163 182.162 49.7517 345.5 49.7517C508.837 49.7517 641.248 182.163 641.248 345.5C641.248 508.837 508.837 641.248 345.5 641.248C182.162 641.248 49.7517 508.837 49.7517 345.5Z" fill="#434C63"/>
<path fill-rule="evenodd" clip-rule="evenodd" d="M345.5 76.6857C197.039 76.6857 76.6874 197.037 76.6874 345.499C76.6874 493.96 197.039 614.312 345.5 614.312C493.962 614.312 614.313 493.96 614.313 345.499C614.313 197.037 493.962 76.6857 345.5 76.6857ZM74.6284 345.499C74.6284 195.9 195.902 74.6267 345.5 74.6267C495.099 74.6267 616.372 195.9 616.372 345.499C616.372 495.097 495.099 616.371 345.5 616.371C195.902 616.371 74.6284 495.097 74.6284 345.499Z" fill="#434C63"/>
<path fill-rule="evenodd" clip-rule="evenodd" d="M346.882 101.513C212.889 101.513 104.266 210.75 104.266 345.499C104.266 480.249 212.889 589.486 346.882 589.486C480.875 589.486 589.497 480.249 589.497 345.499C589.497 210.75 480.875 101.513 346.882 101.513ZM102.268 345.499C102.268 209.64 211.785 99.5034 346.882 99.5034C481.978 99.5034 591.496 209.64 591.496 345.499C591.496 481.359 481.978 591.495 346.882 591.495C211.785 591.495 102.268 481.359 102.268 345.499Z" fill="#434C63"/>
<path fill-rule="evenodd" clip-rule="evenodd" d="M346.882 126.341C226.6 126.341 129.092 224.462 129.092 345.501C129.092 466.539 226.6 564.66 346.882 564.66C467.164 564.66 564.671 466.539 564.671 345.501C564.671 224.462 467.164 126.341 346.882 126.341ZM127.144 345.501C127.144 223.38 225.524 124.381 346.882 124.381C468.239 124.381 566.62 223.38 566.62 345.501C566.62 467.622 468.239 566.621 346.882 566.621C225.524 566.621 127.144 467.622 127.144 345.501Z" fill="#434C63"/>
<path fill-rule="evenodd" clip-rule="evenodd" d="M152.808 335.179C147.312 442.173 229.592 533.364 336.586 538.86C443.58 544.356 534.772 462.076 540.267 355.082C545.763 248.088 463.483 156.896 356.489 151.401C249.495 145.905 158.304 228.185 152.808 335.179ZM336.489 540.765C228.442 535.215 145.353 443.127 150.903 335.081C156.453 227.035 248.541 143.945 356.587 149.495C464.633 155.045 547.723 247.133 542.173 355.179C536.623 463.226 444.535 546.315 336.489 540.765Z" fill="#434C63"/>
<path fill-rule="evenodd" clip-rule="evenodd" d="M177.647 338.929C174.172 432.279 247.029 510.77 340.378 514.245C433.728 517.72 512.219 444.863 515.694 351.514C519.169 258.164 446.312 179.673 352.963 176.198C259.613 172.723 181.122 245.58 177.647 338.929ZM340.309 516.102C245.935 512.589 172.277 433.235 175.79 338.86C179.303 244.485 258.657 170.828 353.032 174.341C447.407 177.854 521.064 257.208 517.551 351.583C514.038 445.957 434.684 519.615 340.309 516.102Z" fill="#434C63"/>
<path fill-rule="evenodd" clip-rule="evenodd" d="M202.319 341.421C200.183 421.085 263.032 487.397 342.696 489.533C422.36 491.669 488.672 428.82 490.808 349.156C492.944 269.492 430.095 203.18 350.431 201.044C270.766 198.908 204.455 261.757 202.319 341.421ZM342.647 491.341C261.985 489.178 198.348 422.035 200.511 341.373C202.673 260.71 269.816 197.073 350.479 199.236C431.142 201.398 494.778 268.542 492.616 349.204C490.453 429.867 423.31 493.503 342.647 491.341Z" fill="#434C63"/>
<path fill-rule="evenodd" clip-rule="evenodd" d="M227.153 342.984C225.906 408.948 278.369 463.433 344.333 464.68C410.298 465.927 464.783 413.463 466.03 347.499C467.277 281.535 414.813 227.05 348.849 225.803C282.885 224.556 228.4 277.02 227.153 342.984ZM344.3 466.439C277.365 465.173 224.129 409.886 225.394 342.95C226.659 276.015 281.947 222.779 348.882 224.044C415.818 225.309 469.054 280.597 467.789 347.533C466.523 414.468 411.236 467.704 344.3 466.439Z" fill="#434C63"/>
<path fill-rule="evenodd" clip-rule="evenodd" d="M252.057 344.047C251.394 396.3 293.216 439.198 345.469 439.862C397.722 440.525 440.62 398.704 441.284 346.45C441.948 294.197 400.126 251.299 347.872 250.635C295.619 249.972 252.721 291.794 252.057 344.047ZM345.447 441.571C292.25 440.895 249.673 397.223 250.348 344.025C251.024 290.828 294.697 248.25 347.894 248.926C401.092 249.602 443.669 293.275 442.993 346.472C442.317 399.67 398.645 442.247 345.447 441.571Z" fill="#434C63"/>
<path fill-rule="evenodd" clip-rule="evenodd" d="M276.803 344.574C276.509 383.114 307.514 414.595 346.054 414.889C384.594 415.183 416.075 384.178 416.369 345.638C416.663 307.099 385.658 275.617 347.118 275.323C308.578 275.029 277.097 306.034 276.803 344.574ZM346.041 416.549C306.584 416.248 274.842 384.018 275.143 344.561C275.444 305.104 307.674 273.362 347.131 273.663C386.588 273.964 418.33 306.194 418.029 345.651C417.728 385.108 385.498 416.85 346.041 416.549Z" fill="#434C63"/>
<path fill-rule="evenodd" clip-rule="evenodd" d="M301.637 345.01C301.55 369.832 321.602 390.023 346.423 390.11C371.244 390.196 391.436 370.144 391.522 345.323C391.609 320.502 371.557 300.31 346.736 300.224C321.915 300.137 301.723 320.189 301.637 345.01ZM346.417 391.72C320.707 391.631 299.937 370.716 300.026 345.005C300.116 319.294 321.031 298.524 346.741 298.613C372.452 298.703 393.222 319.618 393.133 345.329C393.043 371.04 372.128 391.81 346.417 391.72Z" fill="#434C63"/>
<path fill-rule="evenodd" clip-rule="evenodd" d="M346.882 324.981C336.267 324.981 327.646 334.177 327.646 345.5C327.646 356.82 336.265 365.984 346.883 366.018C357.498 366.018 366.118 356.822 366.118 345.5C366.118 334.177 357.497 324.981 346.882 324.981ZM326.152 345.5C326.152 333.297 335.442 323.388 346.882 323.388C358.322 323.388 367.612 333.297 367.612 345.5C367.612 357.702 358.322 367.612 346.882 367.612L346.88 367.612C335.444 367.575 326.152 357.705 326.152 345.5Z" fill="#434C63"/>
</g>
</svg>
