<svg width="214" height="84" viewBox="0 0 214 84" fill="none" xmlns="http://www.w3.org/2000/svg">
<path d="M83.1498 82.5657H0.5V0.5H83.1498V82.5657Z" stroke="white"/>
<path d="M65.0119 12.599C64.5693 12.599 63.5858 12.5502 62.1105 13.7222C61.4712 14.2594 60.1926 16.2615 60.5368 17.9707C60.6352 18.5079 60.9794 18.9474 61.1761 19.2404C61.7662 20.0217 63.0448 20.5589 63.5858 20.0705C64.2743 19.4845 65.5037 19.5822 65.9954 19.2892C66.3889 19.045 67.3724 18.4102 67.9133 16.994C68.1101 16.408 69.4378 12.5014 65.0119 12.599Z" fill="white"/>
<path d="M72.241 40.5317C70.028 37.8459 62.8974 39.7992 60.9303 40.1899C61.2745 38.5296 65.012 26.5654 65.1595 25.2957C65.2579 24.4167 65.2579 23.4401 64.0776 22.854C61.668 21.6332 58.4223 23.5377 57.1929 24.4656C55.6684 25.6376 56.6519 24.5632 52.5211 28.3234C47.4559 32.9137 45.6363 35.0136 45.3904 34.9647C44.8495 34.8671 47.7509 28.4699 48.1935 26.8096C48.4886 25.6864 48.7836 24.9539 48.4886 23.9772C48.1935 23.0982 47.4559 22.3169 46.0789 22.1704C44.5052 22.0239 42.4398 22.7076 39.7351 23.9284C35.8993 25.5887 28.3261 29.7884 24.9329 31.9859C7.13086 43.4618 5.85226 45.6593 5.3605 46.7336C4.91791 47.6614 5.06544 48.6381 5.50803 48.9799C6.04897 49.3706 6.88498 49.6636 8.16358 48.6381C9.93394 47.3196 10.6224 45.6104 14.2615 42.3874C21.638 35.8926 28.8178 32.0347 31.7193 30.3744C35.5059 28.1281 39.7843 26.4189 41.8989 25.7352C41.9481 25.7352 38.5057 35.0624 37.9156 36.7716C36.5386 40.9224 36.5386 42.3874 37.3746 43.3641C38.4565 44.5849 40.3252 44.2431 41.7513 43.1688C42.5874 42.5828 44.6036 40.0922 45.5871 39.0667C46.5707 38.0412 48.1443 36.5274 49.4721 35.0624C50.8491 33.5974 53.1112 31.5464 54.439 30.4232C55.57 29.4954 56.5536 28.7141 56.7995 28.8117C57.1929 29.0071 56.6027 30.2767 56.6027 30.2767C56.6027 30.2767 54.8324 35.5019 54.2423 37.5041C53.9964 38.3342 53.5538 40.0434 53.062 41.9479C42.1939 44.5849 31.0308 47.4173 25.4738 49.4194C14.3599 53.3749 7.13086 55.8166 7.96687 58.1606C8.95041 60.7488 13.1304 56.5003 26.9983 51.4704C33.6372 49.0776 35.4567 48.5893 39.145 47.6614C44.161 46.3918 48.3902 45.5616 52.4227 44.8291C52.226 45.8546 52.1768 47.2219 52.3244 48.0033C52.7178 50.0054 54.0456 50.5426 55.0783 50.7379C56.7011 51.0798 59.2091 50.6891 59.5534 47.1731C59.6517 46.1476 59.8976 44.5849 59.9959 44.1943C60.3402 44.1454 61.0778 43.9989 61.5204 43.9501C66.2414 43.5106 66.2906 43.9989 66.7824 44.3896C67.2741 44.7314 67.6675 46.5383 70.7165 45.2686C73.4704 44.1943 73.0278 41.5084 72.241 40.5317Z" fill="white"/>
<path d="M55.7174 58.9908L55.3732 60.6511H58.5697L58.4222 61.4325H55.2257L54.8814 63.0928H58.0779L57.9304 63.8741H54.7339L54.3896 65.5345H57.5861C60.6351 65.5345 60.9793 64.6066 61.4219 62.2626C61.717 60.7976 62.1104 58.9908 59.3565 58.9908H55.7174Z" fill="white"/>
<path d="M41.6036 56.7933L39.5381 61.5789H39.4398L39.2923 56.7933H33.9812L32.1616 65.5833H35.3581L36.7842 58.6978H36.8826L37.1285 65.5833H39.9807L43.1281 58.6978H43.1772L41.7511 65.5833H44.9476L46.7671 56.7933H41.6036Z" fill="white"/>
<path d="M51.5374 58.9908L50.5539 63.8741H49.5212L50.5047 58.9908H47.3082L46.5214 62.7998C46.1771 64.4113 46.7181 65.5345 49.1278 65.5345H53.3078L54.6356 58.9908H51.5374Z" fill="white"/>
<path d="M66.1429 58.9908C63.8808 58.9908 62.7989 59.8698 62.4547 61.4325L61.6187 65.5345H64.8151L65.7987 60.7H66.8314L65.8479 65.5345H69.0443L70.3721 58.9908H66.1429Z" fill="white"/>
<path d="M73.5195 63.9229L73.7654 62.751H74.7981L74.5523 63.9229H73.5195ZM75.2407 61.1394C75.1915 61.1394 74.1588 61.1394 74.1588 61.1394L74.6014 59.0396H71.4049L70.0771 65.5833H73.7654C76.1751 65.5833 77.6012 64.8996 77.8963 63.4346C78.1422 61.8719 76.9127 61.1394 75.2407 61.1394Z" fill="white"/>
<path d="M187.757 28.5676C187.315 28.7629 185.987 29.4466 185.348 29.5931C184.758 29.7396 184.856 29.3977 185.003 29.1047C185.298 28.6164 185.594 28.2746 185.889 27.8839L186.528 27.0537C186.528 27.0537 186.971 26.3212 186.626 25.8817C186.479 25.6864 186.134 25.5887 185.692 25.6864C184.856 25.8329 184.217 26.2236 183.528 26.5166C182.25 27.1026 181.02 27.8839 179.643 28.6164C180.086 28.0304 180.479 27.3956 180.971 26.6631C181.266 26.2236 181.561 25.7352 181.905 25.2469C181.905 25.2469 182.053 24.6609 181.856 24.3679C181.758 24.2702 181.561 24.0261 181.315 23.9772C180.823 23.8307 179.987 23.9772 179.692 24.0749C177.824 24.6121 176.299 25.3934 174.627 26.4677C175.07 25.8817 175.561 25.2957 176.004 24.7097L176.545 23.9772L175.316 23.1471C175.168 23.3424 174.971 23.5377 174.725 23.7331C174.283 24.1237 173.791 24.4656 173.299 24.8074C171.332 26.1747 169.414 27.2491 167.693 28.0304C164.448 29.5931 163.12 29.5442 162.431 29.4466C162.087 29.4466 161.89 29.2024 161.743 28.8606C162.185 28.6164 162.775 28.4211 163.218 28.1769C164.546 27.4444 166.12 26.5166 167.349 25.4422C168.136 24.7586 169.267 23.4889 169.365 22.5122C169.316 21.8286 168.677 21.7797 168.332 21.6821L167.792 21.7309C167.447 21.7309 167.103 21.8286 166.808 21.9262C166.169 22.0727 165.48 22.3169 164.939 22.5611C163.857 23.0982 162.972 23.7331 162.235 24.4167C161.054 25.4422 160.218 26.7607 160.071 28.0792C158.448 28.8117 156.825 29.3001 155.055 29.5442C152.498 29.7396 153.235 27.4444 154.317 25.6376C154.563 25.4422 154.76 25.2469 155.006 25.0516C155.743 24.3679 157.809 22.2681 158.104 22.0239C158.645 21.5356 158.645 21.0472 158.399 20.7054C158.3 20.5101 157.661 20.1194 157.12 20.5101C156.727 20.8031 156.284 21.0961 155.842 21.4379C154.956 22.2192 154.17 23.0982 153.481 24.1726C153.383 24.3679 153.235 24.5632 153.137 24.7586C150.826 26.7119 149.35 28.0304 146.793 29.3001C146.252 29.5442 145.564 29.7884 144.875 29.8861C144.039 29.9837 142.711 29.7396 141.679 29.1536C140.793 28.6164 140.302 28.2746 139.908 28.1281C139.269 27.8351 139.121 27.9816 139.515 28.6164C140.105 29.4466 140.843 30.0326 141.679 30.4232C143.449 31.2534 145.367 31.2046 147.186 30.3256C148.76 29.6419 150.334 28.7141 151.907 27.5421C151.907 27.6397 151.858 27.7374 151.858 27.8351C151.76 28.5676 151.858 29.6419 152.645 30.2767C153.432 30.9604 154.317 30.8627 155.055 30.9116C156.973 30.8627 158.694 30.2767 160.366 29.5442C160.907 30.5697 161.399 30.5697 161.694 30.6674C162.825 30.9604 164.792 31.2046 168.283 29.4466C169.414 28.9582 170.595 28.3234 171.824 27.5421C171.136 28.4211 169.611 30.3744 169.611 30.3744C170.3 30.9604 170.496 31.1069 170.791 31.3022L171.332 30.7651C171.529 30.5209 171.775 30.3256 172.07 30.1302C172.562 29.6907 173.103 29.3001 173.644 28.9582C175.709 27.5421 177.922 26.1747 179.938 25.5887L179.692 25.9306C179.102 26.8096 178.512 27.6397 178.02 28.3722C178.02 28.3722 177.332 29.2024 177.086 29.7396C176.84 30.2767 177.184 31.0092 177.676 31.0581C177.873 31.0581 178.414 30.9116 178.414 30.9116C179.004 30.6186 179.397 30.4232 179.84 30.2279C181.463 29.3489 182.79 28.4699 184.118 27.7862C184.364 27.6397 184.659 27.4932 184.905 27.3956C184.561 27.9327 184.217 28.5187 183.971 29.1536C183.872 29.4954 183.626 29.8372 183.774 30.3744C184.069 30.8627 184.708 30.7162 185.102 30.5697C185.839 30.2279 187.216 29.5931 187.905 29.1536C188.495 28.8606 188.249 28.3722 187.757 28.5676ZM163.415 25.2957C165.136 23.8307 166.66 23.0982 167.595 22.8052C167.841 22.7564 168.234 22.8541 167.988 23.1471C167.742 23.4401 167.447 23.6842 167.005 24.0261C165.923 24.8562 165.284 25.4422 163.464 26.4189C163.316 26.5166 162.333 26.9561 161.89 27.1514C162.185 26.7119 162.677 25.9306 163.415 25.2957Z" fill="white"/>
<path d="M126.483 31.3022C129.925 31.3999 134.499 29.4465 138.236 23.9284C142.564 17.4823 141.089 11.3293 138.679 10.1573C137.843 9.76667 136.613 9.62017 135.433 9.91317C133.81 10.3527 131.548 12.5013 131.007 13.1362C130.466 13.771 129.975 14.3082 129.63 14.7965C129.286 15.2848 128.843 15.8708 128.794 16.408C128.794 16.6033 128.843 16.701 128.942 16.7987C129.04 16.8963 129.139 16.8963 129.286 16.8963C129.434 16.8963 129.63 16.6033 129.827 16.408C131.597 13.8687 133.122 11.72 135.433 10.9875C136.564 10.6457 138.728 10.3527 138.63 13.9663C138.531 16.115 137.105 19.7775 135.777 22.2192C132.483 28.128 129.089 30.1302 126.876 30.2279C124.024 30.3744 123.286 27.0537 123.336 25.5399C123.434 22.7075 124.368 16.408 130.958 11.1828C131.696 10.5968 131.499 10.3527 131.253 10.2062C131.007 10.0597 130.712 10.0108 130.171 10.4015C128.548 11.5735 126.581 13.1362 125.254 14.7477C123.631 16.701 121.811 19.2892 121.221 22.4634C120.434 27.0537 122.352 31.3022 126.483 31.3022Z" fill="white"/>
<path d="M115.024 17.3847C115.418 17.0917 115.811 16.8475 116.155 16.5545C116.647 16.1639 117.09 15.7244 117.434 15.3337C118.418 14.2594 119.352 13.0873 119.352 11.8665V11.8177C119.352 10.9387 119.057 10.2062 118.516 9.62018C117.975 9.03418 117.188 8.79001 116.254 8.79001H116.205C115.467 8.79001 114.139 8.98534 113.254 9.37601C112.664 9.62018 112.074 9.96201 111.582 10.3038C111.041 10.6457 110.598 11.0363 110.156 11.4758V11.5247C109.222 12.4525 108.631 13.3803 108.386 14.4059V14.5035V14.6012C108.386 14.65 108.386 14.7477 108.386 14.7965C108.386 14.8942 108.386 14.9919 108.435 15.0895L108.582 15.236V15.2849L108.779 15.3337H108.828C108.976 15.3337 109.123 15.236 109.271 15.1384C109.369 15.0407 109.418 14.8942 109.467 14.7965C109.762 14.2105 110.303 13.4292 111.189 12.4525C111.877 11.6712 113.156 10.6945 114.434 10.3038C115.319 10.0597 116.008 9.96201 116.598 10.0108C117.68 10.0597 117.975 10.841 117.926 11.2805C117.68 13.2339 115.221 15.529 113.795 16.5545C112.615 17.3847 111.926 17.873 109.861 18.8497C108.976 19.2892 110.254 19.8752 110.943 19.5822C111.238 19.4357 111.828 19.0939 112.566 18.8985C112.762 18.8985 115.565 17.58 116.451 19.8752C117.385 22.2192 115.418 26.9072 109.172 29.4465C105.042 30.6674 103.124 28.6164 102.681 27.835C102.583 27.6885 102.435 26.7119 101.845 26.9072C100.566 27.4444 101.206 28.6164 101.206 28.6164C104.009 32.8649 113.352 31.4975 117.582 26.1259C120.827 21.7797 118.959 17.5312 115.024 17.3847Z" fill="white"/>
<path d="M103.222 43.4618H104.894L104.107 47.5149H107.648L108.435 43.4618H110.107L108.238 53.3261H106.566L107.402 48.9311H103.862L103.026 53.3261H101.354L103.222 43.4618Z" fill="white"/>
<path d="M115.959 53.3261H114.435C114.435 52.9354 114.484 52.4471 114.533 51.8123H114.484C113.894 52.9354 113.107 53.4726 112.123 53.4726C111.533 53.4726 111.041 53.2773 110.697 52.8378C110.353 52.3983 110.156 51.8611 110.156 51.1286C110.156 50.5426 110.255 49.9078 110.451 49.3218C110.648 48.7358 110.943 48.1986 111.336 47.7103C111.73 47.2219 112.222 46.8313 112.861 46.4894C113.5 46.1964 114.189 46.0499 114.976 46.0499C115.713 46.0499 116.402 46.1476 116.992 46.3429L116.254 50.1519C116.057 51.3728 115.959 52.4471 115.959 53.3261ZM114.779 49.4683L115.172 47.4173C114.976 47.3684 114.779 47.3684 114.582 47.3684C113.845 47.3684 113.254 47.7591 112.713 48.4916C112.222 49.2241 111.927 50.0543 111.927 50.8356C111.927 51.7146 112.222 52.1541 112.812 52.1541C113.205 52.1541 113.549 51.9099 113.943 51.4216C114.336 50.8844 114.631 50.2496 114.779 49.4683Z" fill="white"/>
<path d="M122.205 51.8611L122.254 53.1308C121.762 53.3749 121.123 53.4726 120.434 53.4726C119.598 53.4726 118.959 53.2284 118.467 52.6913C117.976 52.2029 117.779 51.5193 117.779 50.6891C117.779 49.4194 118.172 48.3451 119.008 47.4173C119.844 46.4894 120.877 46.0499 122.106 46.0499C122.647 46.0499 123.041 46.1476 123.385 46.2941L122.942 47.5638C122.647 47.4661 122.303 47.3684 122.008 47.3684C121.27 47.3684 120.68 47.6614 120.188 48.2963C119.697 48.9311 119.451 49.6636 119.451 50.4449C119.451 50.9333 119.598 51.3728 119.844 51.6169C120.09 51.9099 120.434 52.0564 120.877 52.0564C121.27 52.1541 121.713 52.0564 122.205 51.8611Z" fill="white"/>
<path d="M127.368 56.2073H125.745L127.171 48.7846C127.27 48.2963 127.417 47.4173 127.565 46.1964H129.04L128.892 47.3684H128.942C129.532 46.4894 130.319 46.0499 131.204 46.0499C131.892 46.0499 132.384 46.2941 132.728 46.7824C133.072 47.2708 133.22 47.8568 133.22 48.5404C133.22 49.3706 133.072 50.1519 132.728 50.8844C132.384 51.6169 131.941 52.2518 131.302 52.7401C130.663 53.2284 130.023 53.4726 129.237 53.4726C128.696 53.4726 128.302 53.3749 127.958 53.1796H127.909L127.368 56.2073ZM128.548 49.8589L128.155 51.9099C128.401 52.1053 128.745 52.2518 129.138 52.2518C129.778 52.2518 130.319 51.8611 130.761 51.0798C131.204 50.2984 131.45 49.5171 131.45 48.7358C131.45 48.3939 131.351 48.0521 131.204 47.8079C131.056 47.5638 130.81 47.4173 130.466 47.4173C130.073 47.4173 129.679 47.6614 129.286 48.1009C128.942 48.5404 128.696 49.1264 128.548 49.8589Z" fill="white"/>
<path d="M139.023 51.7146L139.171 52.9355C138.482 53.2773 137.695 53.4238 136.81 53.4238C135.925 53.4238 135.236 53.1796 134.745 52.6425C134.302 52.1541 134.056 51.4216 134.056 50.5914C134.056 49.8589 134.204 49.1753 134.499 48.4916C134.794 47.8079 135.236 47.2219 135.827 46.7336C136.417 46.2453 137.105 46.0011 137.843 46.0011C138.482 46.0011 139.023 46.1964 139.416 46.5383C139.81 46.9289 140.007 47.3684 140.007 47.9544C140.007 49.6148 138.531 50.4449 135.63 50.3473C135.581 50.7868 135.679 51.1286 135.827 51.3728C136.072 51.8611 136.515 52.1053 137.154 52.1053C137.843 52.1541 138.433 52.0076 139.023 51.7146ZM138.482 48.0521C138.482 47.8079 138.433 47.6614 138.285 47.5149C138.138 47.3684 137.941 47.3196 137.695 47.3196C137.253 47.3196 136.859 47.5149 136.564 47.8568C136.22 48.1986 136.023 48.6869 135.876 49.1753C137.597 49.2241 138.482 48.8334 138.482 48.0521Z" fill="white"/>
<path d="M141.974 46.1964H143.596L143.006 49.2729H143.203L145.76 46.1964H147.678L144.58 49.4194C145.219 49.6147 145.613 50.3472 145.809 51.4704C146.055 52.5447 146.203 53.1796 146.252 53.3261H144.629C144.58 53.2284 144.531 53.0819 144.482 52.8866C144.432 52.6913 144.383 52.4471 144.334 52.2029C144.285 51.9587 144.236 51.7146 144.186 51.5681C144.088 51.0797 143.941 50.7379 143.744 50.5426C143.547 50.3472 143.301 50.2496 142.957 50.2496H142.76L142.17 53.3261H140.547L141.974 46.1964Z" fill="white"/>
<path d="M150.137 53.4726C149.301 53.4726 148.613 53.2284 148.17 52.6913C147.678 52.1541 147.481 51.5193 147.481 50.6891C147.481 49.9078 147.629 49.1753 147.973 48.4428C148.268 47.7591 148.76 47.1731 149.35 46.7336C149.94 46.2941 150.629 46.0499 151.416 46.0499C152.301 46.0499 152.94 46.3429 153.383 46.8801C153.825 47.4173 154.071 48.1009 154.071 48.8334C154.071 50.0543 153.727 51.1286 152.989 52.0564C152.153 53.0331 151.219 53.4726 150.137 53.4726ZM150.285 52.2029C150.678 52.2029 151.022 52.0076 151.317 51.6169C151.612 51.2263 151.858 50.7868 152.006 50.2984C152.153 49.8101 152.252 49.2729 152.252 48.8334C152.252 48.4428 152.153 48.1009 151.957 47.8079C151.76 47.5149 151.465 47.3684 151.071 47.3684C150.481 47.3684 150.039 47.7103 149.645 48.4428C149.252 49.1753 149.055 49.9078 149.055 50.6403C149.055 51.1286 149.153 51.4704 149.35 51.7634C149.645 52.0564 149.94 52.2029 150.285 52.2029Z" fill="white"/>
<path d="M156.432 46.1964H158.448L158.792 49.2729C158.841 49.8101 158.89 50.4449 158.94 51.1774H158.989C159.185 50.7868 159.53 50.0542 160.071 49.0287L161.546 46.1964H163.562L162.628 53.3261H161.103L161.546 50.3472C161.693 49.2729 161.841 48.4427 161.939 47.8567H161.89C161.693 48.2962 161.349 49.0776 160.759 50.1519L159.136 53.2772H157.858L157.513 50.2496C157.415 49.2729 157.366 48.4916 157.317 47.8567H157.268C157.071 48.8334 156.874 49.7124 156.677 50.4449L155.94 53.4238H154.514L156.432 46.1964Z" fill="white"/>
<path d="M169.513 51.7146L169.66 52.9355C168.972 53.2773 168.185 53.4238 167.3 53.4238C166.415 53.4238 165.726 53.1796 165.234 52.6425C164.792 52.1541 164.546 51.4216 164.546 50.5914C164.546 49.8589 164.693 49.1753 164.988 48.4916C165.284 47.8079 165.726 47.2219 166.316 46.7336C166.906 46.2453 167.595 46.0011 168.333 46.0011C168.972 46.0011 169.513 46.1964 169.906 46.5383C170.3 46.9289 170.496 47.3684 170.496 47.9544C170.496 49.6148 169.021 50.4449 166.12 50.3473C166.07 50.7868 166.169 51.1286 166.316 51.3728C166.562 51.8611 167.005 52.1053 167.644 52.1053C168.333 52.1541 168.972 52.0076 169.513 51.7146ZM169.021 48.0521C169.021 47.8079 168.972 47.6614 168.824 47.5149C168.677 47.3684 168.48 47.3196 168.234 47.3196C167.792 47.3196 167.398 47.5149 167.103 47.8568C166.759 48.1986 166.562 48.6869 166.415 49.1753C168.136 49.2241 169.021 48.8334 169.021 48.0521Z" fill="white"/>
<path d="M172.463 46.1964H174.135L173.594 48.9799H176.004L176.545 46.1964H178.217L176.84 53.3261H175.217L175.807 50.2496H173.447L172.857 53.3261H171.185L172.463 46.1964Z" fill="white"/>
<path d="M180.479 44.2431V42.8757C180.626 42.9246 180.774 42.9246 180.971 42.9734C181.167 42.9734 181.364 43.0222 181.61 43.0222C181.856 43.0222 182.003 43.0711 182.102 43.0711C183.184 43.2176 183.97 43.5106 184.462 43.9989C185.2 44.5849 185.593 45.6592 185.593 47.1731C185.593 47.7102 185.544 48.2474 185.446 48.7846C185.347 49.3217 185.2 49.9077 185.003 50.4937C184.806 51.0797 184.561 51.5681 184.216 52.0076C183.921 52.4471 183.528 52.8377 183.036 53.1307C182.544 53.4238 182.003 53.5702 181.413 53.5702C180.626 53.5702 179.987 53.3261 179.545 52.8377C179.102 52.3494 178.905 51.6657 178.905 50.8356C178.905 50.1519 179.053 49.4682 179.299 48.7846C179.594 48.1009 179.987 47.5149 180.528 47.0266C181.069 46.5382 181.708 46.2941 182.397 46.2941C183.233 46.2941 183.823 46.6847 184.118 47.5149H184.167C184.167 47.4661 184.167 47.3684 184.167 47.2707C184.167 47.1242 184.167 47.0754 184.167 46.9777C184.167 46.1964 183.97 45.5616 183.479 45.1709C183.134 44.7802 182.495 44.5849 181.61 44.4872C181.167 44.3407 180.774 44.2919 180.479 44.2431ZM181.659 52.2517C182.053 52.2517 182.397 52.0564 182.692 51.6657C182.987 51.2751 183.233 50.8356 183.38 50.3472C183.528 49.8589 183.577 49.4194 183.626 49.0287C183.626 48.5892 183.528 48.2474 183.38 47.9544C183.184 47.6614 182.938 47.5149 182.594 47.5149C182.2 47.5149 181.856 47.7102 181.512 48.1009C181.217 48.4916 180.971 48.9311 180.823 49.3706C180.676 49.8589 180.626 50.3472 180.626 50.7867C180.626 51.2262 180.725 51.5681 180.872 51.8611C181.02 52.1052 181.315 52.2517 181.659 52.2517Z" fill="white"/>
<path d="M186.528 46.1964H188.249L188.691 49.7124C188.79 50.5426 188.888 51.1774 188.937 51.4704H188.986C189.134 51.1286 189.331 50.5426 189.675 49.7124L191.101 46.1476H192.822C191.445 49.1753 190.609 51.0309 190.314 51.6658C189.478 53.3261 188.593 54.5958 187.757 55.4259C187.167 56.0119 186.528 56.3538 185.839 56.5003L185.396 55.0841C185.888 54.8888 186.282 54.6934 186.577 54.4493C187.118 54.0586 187.511 53.5703 187.806 53.0331C187.855 52.9354 187.855 52.8378 187.855 52.6913L186.528 46.1964Z" fill="white"/>
<path d="M193.904 46.1964H195.576L195.035 49.0288H196.019C196.265 48.1498 196.707 47.4661 197.347 46.8801C197.937 46.3429 198.674 46.0499 199.51 46.0499C200.346 46.0499 200.986 46.3429 201.428 46.8801C201.871 47.4173 202.068 48.1009 202.068 48.8823C202.068 50.1031 201.723 51.1286 201.035 52.0564C200.346 52.9843 199.461 53.4238 198.33 53.4238C197.543 53.4238 196.904 53.1796 196.461 52.6913C196.019 52.2029 195.773 51.5681 195.773 50.7868C195.773 50.5914 195.773 50.3961 195.822 50.2008H194.789L194.199 53.3261H192.527L193.904 46.1964ZM198.478 52.2029C198.871 52.2029 199.166 52.0076 199.461 51.6169C199.756 51.2263 199.953 50.7868 200.101 50.2984C200.248 49.8101 200.346 49.2729 200.346 48.8334C200.346 48.4428 200.248 48.0521 200.101 47.7591C199.904 47.4661 199.658 47.3196 199.265 47.3196C198.871 47.3196 198.527 47.5149 198.232 47.9056C197.937 48.2963 197.691 48.7358 197.543 49.2241C197.396 49.7124 197.347 50.2008 197.347 50.6403C197.347 51.0798 197.445 51.4704 197.642 51.7634C197.789 52.0564 198.084 52.2029 198.478 52.2029Z" fill="white"/>
<path d="M204.33 53.3261H202.707L203.641 48.4428C203.789 47.7103 203.887 46.9778 204.035 46.1964H205.461L205.313 47.3684H205.363C205.953 46.4894 206.74 46.0499 207.674 46.0499C208.166 46.0499 208.51 46.1964 208.756 46.4406C209.002 46.6848 209.149 47.0266 209.198 47.4173C209.838 46.4894 210.624 46.0499 211.559 46.0499C212.051 46.0499 212.444 46.1964 212.739 46.5383C213.034 46.8313 213.182 47.2708 213.182 47.8568C213.182 48.1986 213.133 48.5893 213.034 49.1264L212.247 53.3749H210.624L211.411 49.2729C211.46 48.8823 211.51 48.5893 211.51 48.2963C211.51 47.7103 211.264 47.4173 210.723 47.4173C210.379 47.4173 209.985 47.6614 209.641 48.1009C209.297 48.5404 209.051 49.1264 208.903 49.8101L208.264 53.3749H206.69L207.477 49.2241C207.526 48.8334 207.576 48.5404 207.576 48.3451C207.576 47.7591 207.33 47.4173 206.838 47.4173C206.494 47.4173 206.149 47.6614 205.756 48.1009C205.412 48.5404 205.166 49.1264 205.018 49.8101L204.33 53.3261Z" fill="white"/>
<path d="M103.025 61.5789V60.2116C103.173 60.2604 103.32 60.2604 103.517 60.3093C103.714 60.3093 103.911 60.3581 104.156 60.3581C104.402 60.3581 104.55 60.4069 104.648 60.4069C105.73 60.5534 106.517 60.8464 107.009 61.3348C107.746 61.9208 108.14 62.9951 108.14 64.5089C108.14 65.0461 108.091 65.5833 107.992 66.1205C107.894 66.6576 107.746 67.2436 107.55 67.8296C107.353 68.4156 107.107 68.904 106.763 69.3435C106.468 69.783 106.074 70.1736 105.583 70.4666C105.091 70.7596 104.55 70.9061 103.96 70.9061C103.173 70.9061 102.534 70.662 102.091 70.1736C101.648 69.6853 101.452 69.0016 101.452 68.1715C101.452 67.4878 101.599 66.8041 101.845 66.1205C102.14 65.4368 102.534 64.8508 103.074 64.3625C103.615 63.8741 104.255 63.63 104.943 63.63C105.779 63.63 106.369 64.0206 106.664 64.8508H106.714C106.714 64.802 106.714 64.7043 106.714 64.6066C106.714 64.4601 106.714 64.4113 106.714 64.3136C106.714 63.5323 106.517 62.8974 106.025 62.5068C105.681 62.1161 105.042 61.9208 104.156 61.8231C103.665 61.6766 103.271 61.6278 103.025 61.5789ZM104.156 69.5876C104.55 69.5876 104.894 69.3923 105.189 69.0016C105.484 68.611 105.73 68.1715 105.878 67.6831C106.025 67.1948 106.074 66.7553 106.123 66.3646C106.123 65.9251 106.025 65.5833 105.878 65.2903C105.681 64.9973 105.435 64.8508 105.091 64.8508C104.697 64.8508 104.353 65.0461 104.009 65.4368C103.714 65.8275 103.468 66.267 103.32 66.7065C103.173 67.1948 103.124 67.6831 103.124 68.1226C103.124 68.5621 103.222 68.904 103.37 69.197C103.566 69.4411 103.812 69.5876 104.156 69.5876Z" fill="white"/>
<path d="M109.763 73.5432H108.14L109.566 66.1205C109.665 65.6321 109.812 64.7531 109.96 63.5323H111.435L111.287 64.7043H111.337C111.927 63.8253 112.714 63.3858 113.599 63.3858C114.287 63.3858 114.779 63.63 115.123 64.1183C115.467 64.6066 115.615 65.1926 115.615 65.8763C115.615 66.7065 115.467 67.4878 115.123 68.2203C114.779 68.9528 114.336 69.5876 113.697 70.076C113.058 70.5643 112.419 70.8085 111.632 70.8085C111.091 70.8085 110.697 70.7108 110.353 70.5155H110.304L109.763 73.5432ZM110.943 67.1948L110.55 69.2458C110.796 69.4411 111.14 69.5876 111.533 69.5876C112.173 69.5876 112.714 69.197 113.156 68.4156C113.599 67.6343 113.845 66.853 113.845 66.0716C113.845 65.7298 113.746 65.388 113.599 65.1438C113.451 64.8996 113.205 64.7531 112.861 64.7531C112.468 64.7531 112.074 64.9973 111.681 65.4368C111.337 65.8763 111.091 66.4623 110.943 67.1948Z" fill="white"/>
<path d="M116.5 63.5323H118.221L118.663 67.0483C118.762 67.8785 118.86 68.5133 118.909 68.8063H118.959C119.106 68.4645 119.303 67.8785 119.647 67.0483L121.073 63.4835H122.794C121.417 66.5111 120.581 68.3668 120.286 69.0016C119.45 70.662 118.565 71.9316 117.729 72.7618C117.139 73.3478 116.5 73.6896 115.811 73.8361L115.369 72.42C115.86 72.2246 116.254 72.0293 116.549 71.7851C117.09 71.3945 117.483 70.9061 117.778 70.369C117.827 70.2713 117.827 70.1736 117.827 70.0271L116.5 63.5323Z" fill="white"/>
<path d="M123.926 67.4878L124.073 66.3646H124.614C125.057 66.3646 125.45 66.267 125.795 66.1205C126.139 65.9251 126.335 65.681 126.335 65.3391C126.335 65.095 126.237 64.8996 126.04 64.7531C125.844 64.6066 125.598 64.5578 125.303 64.5578C124.762 64.5578 124.221 64.7043 123.729 64.9973L123.385 63.9718C124.073 63.5811 124.86 63.3369 125.647 63.3369C126.286 63.3369 126.827 63.4834 127.319 63.7764C127.762 64.0694 128.007 64.509 128.007 65.095C128.007 65.5345 127.86 65.9251 127.516 66.2181C127.171 66.5111 126.729 66.7065 126.237 66.853C126.68 66.9018 127.024 67.0971 127.319 67.3901C127.614 67.6831 127.762 68.025 127.762 68.5133C127.762 69.0505 127.614 69.4411 127.27 69.8318C126.926 70.1736 126.532 70.4178 126.09 70.5643C125.647 70.7108 125.155 70.7596 124.614 70.7596C123.631 70.7596 122.844 70.5643 122.205 70.1736L122.647 69.0505C123.188 69.3923 123.778 69.5388 124.467 69.5388C124.909 69.5388 125.254 69.4411 125.598 69.2458C125.893 69.0505 126.09 68.8063 126.09 68.4645C126.09 68.1226 125.942 67.8785 125.647 67.732C125.352 67.5855 124.958 67.4878 124.516 67.4878H123.926Z" fill="white"/>
<path d="M130.27 63.5323H131.892L131.155 66.5111C131.647 66.0228 132.286 65.7786 133.024 65.7786C133.564 65.7786 134.007 65.9251 134.351 66.267C134.696 66.6088 134.892 67.0483 134.892 67.6343C134.892 68.4645 134.548 69.197 133.909 69.8318C133.269 70.4666 132.384 70.7596 131.253 70.7596C129.827 70.7596 129.089 70.2225 129.089 69.0993C129.089 68.8063 129.139 68.3668 129.286 67.8296L130.27 63.5323ZM131.597 69.5876C132.04 69.5876 132.483 69.4411 132.827 69.1481C133.171 68.8551 133.319 68.4645 133.319 67.9761C133.319 67.6831 133.22 67.439 133.073 67.2436C132.925 67.0971 132.679 66.9995 132.384 66.9995C132.04 66.9995 131.745 67.146 131.45 67.3901C131.155 67.6343 130.958 67.8785 130.86 68.1715C130.761 68.4156 130.761 68.611 130.761 68.8551C130.761 69.0993 130.811 69.2458 130.958 69.3923C131.155 69.49 131.351 69.5876 131.597 69.5876Z" fill="white"/>
<path d="M142.219 63.5811L140.842 70.662H139.219L139.76 67.8296H139.269C138.531 67.8296 137.99 68.2691 137.547 69.1481C137.154 69.9783 136.859 70.4666 136.761 70.662H134.99C135.138 70.4666 135.433 69.8318 135.974 68.8063C136.416 67.9273 136.957 67.439 137.646 67.2925V67.2436C137.302 67.146 136.957 66.9506 136.711 66.7065C136.416 66.4135 136.318 66.0716 136.318 65.681C136.318 64.1671 137.547 63.4346 139.957 63.4346C140.793 63.4346 141.531 63.4835 142.219 63.5811ZM140.006 66.7065L140.4 64.6066C140.105 64.5578 139.859 64.5578 139.662 64.5578C138.58 64.5578 138.088 64.9485 138.088 65.681C138.088 66.0228 138.236 66.267 138.531 66.4135C138.826 66.6088 139.17 66.6576 139.515 66.6576H140.006V66.7065Z" fill="white"/>
<path d="M144.482 63.5323H146.498L146.842 66.6088C146.891 67.146 146.94 67.7808 146.99 68.5133H147.039C147.235 68.1226 147.58 67.3901 148.121 66.3646L149.596 63.5323H151.612L150.678 70.662H149.153L149.596 67.6831C149.743 66.6088 149.891 65.7786 149.989 65.1926C149.793 65.6321 149.448 66.4135 148.858 67.4878L147.235 70.6131H145.957L145.613 67.5855C145.514 66.6088 145.465 65.8275 145.416 65.1926H145.367C145.17 66.1693 144.973 67.0483 144.777 67.7808L144.039 70.7596H142.613L144.482 63.5323Z" fill="white"/>
</svg>
