<svg width="84" height="84" viewBox="0 0 84 84" fill="none" xmlns="http://www.w3.org/2000/svg">
<path d="M83.6498 83.0657H0V0H83.6498V83.0657Z" fill="#9A044C"/>
<path d="M65.0119 12.5995C64.5693 12.5995 63.5858 12.5506 62.1105 13.7226C61.4712 14.2598 60.1926 16.262 60.5368 17.9711C60.6352 18.5083 60.9794 18.9478 61.1761 19.2408C61.7662 20.0221 63.0448 20.5593 63.5858 20.071C64.2743 19.485 65.5037 19.5826 65.9954 19.2896C66.3889 19.0455 67.3724 18.4106 67.9133 16.9945C68.1101 16.4085 69.4378 12.5018 65.0119 12.5995Z" fill="white"/>
<path d="M72.241 40.5314C70.028 37.8455 62.8974 39.7989 60.9303 40.1895C61.2745 38.5292 65.012 26.565 65.1595 25.2953C65.2579 24.4163 65.2579 23.4397 64.0776 22.8537C61.668 21.6328 58.4223 23.5373 57.1929 24.4652C55.6684 25.6372 56.6519 24.5628 52.5211 28.323C47.4559 32.9133 45.6363 35.0132 45.3904 34.9643C44.8495 34.8667 47.7509 28.4695 48.1935 26.8092C48.4886 25.686 48.7836 24.9535 48.4886 23.9768C48.1935 23.0978 47.4559 22.3165 46.0789 22.17C44.5052 22.0235 42.4398 22.7072 39.7351 23.928C35.8993 25.5883 28.3261 29.788 24.9329 31.9855C7.13086 43.4614 5.85226 45.6589 5.3605 46.7332C4.91791 47.661 5.06544 48.6377 5.50803 48.9795C6.04897 49.3702 6.88498 49.6632 8.16358 48.6377C9.93394 47.3192 10.6224 45.61 14.2615 42.387C21.638 35.8922 28.8178 32.0343 31.7193 30.374C35.5059 28.1277 39.7843 26.4185 41.8989 25.7348C41.9481 25.7348 38.5057 35.062 37.9156 36.7712C36.5386 40.922 36.5386 42.387 37.3746 43.3637C38.4565 44.5845 40.3252 44.2427 41.7513 43.1684C42.5874 42.5824 44.6036 40.0918 45.5871 39.0663C46.5707 38.0408 48.1443 36.527 49.4721 35.062C50.8491 33.597 53.1112 31.546 54.439 30.4228C55.57 29.495 56.5536 28.7137 56.7995 28.8113C57.1929 29.0067 56.6027 30.2763 56.6027 30.2763C56.6027 30.2763 54.8324 35.5015 54.2423 37.5037C53.9964 38.3338 53.5538 40.043 53.062 41.9475C42.1939 44.5845 31.0308 47.4169 25.4738 49.419C14.3599 53.3745 7.13086 55.8162 7.96687 58.1602C8.95041 60.7484 13.1304 56.4999 26.9983 51.47C33.6372 49.0772 35.4567 48.5889 39.145 47.661C44.161 46.3914 48.3902 45.5612 52.4227 44.8287C52.226 45.8542 52.1768 47.2215 52.3244 48.0029C52.7178 50.005 54.0456 50.5422 55.0783 50.7375C56.7011 51.0794 59.2091 50.6887 59.5534 47.1727C59.6517 46.1472 59.8976 44.5845 59.9959 44.1939C60.3402 44.145 61.0778 43.9985 61.5204 43.9497C66.2414 43.5102 66.2906 43.9985 66.7824 44.3892C67.2741 44.731 67.6675 46.5379 70.7165 45.2682C73.4704 44.1939 73.0278 41.508 72.241 40.5314Z" fill="white"/>
<path d="M55.7174 58.9912L55.3732 60.6515H58.5697L58.4222 61.4329H55.2257L54.8814 63.0932H58.0779L57.9304 63.8746H54.7339L54.3896 65.5349H57.5861C60.6351 65.5349 60.9793 64.6071 61.4219 62.2631C61.717 60.798 62.1104 58.9912 59.3565 58.9912H55.7174V58.9912Z" fill="white"/>
<path d="M41.6036 56.793L39.5381 61.5786H39.4398L39.2923 56.793H33.9812L32.1616 65.583H35.3581L36.7842 58.6975H36.8826L37.1285 65.583H39.9807L43.1281 58.6975H43.1772L41.7511 65.583H44.9476L46.7671 56.793H41.6036Z" fill="white"/>
<path d="M51.5374 58.9912L50.5539 63.8746H49.5212L50.5047 58.9912H47.3082L46.5214 62.8002C46.1771 64.4117 46.7181 65.5349 49.1278 65.5349H53.3078L54.6356 58.9912H51.5374V58.9912Z" fill="white"/>
<path d="M66.1429 58.9912C63.8808 58.9912 62.7989 59.8702 62.4547 61.4329L61.6187 65.5349H64.8151L65.7987 60.7004H66.8314L65.8479 65.5349H69.0443L70.3721 58.9912H66.1429Z" fill="white"/>
<path d="M73.5195 63.9234L73.7654 62.7514H74.7981L74.5523 63.9234H73.5195ZM75.2407 61.1399C75.1915 61.1399 74.1588 61.1399 74.1588 61.1399L74.6014 59.04H71.4049L70.0771 65.5837H73.7654C76.1751 65.5837 77.6012 64.9 77.8963 63.435C78.1422 61.8724 76.9127 61.1399 75.2407 61.1399Z" fill="white"/>
</svg>
