<svg width="113" height="66" viewBox="0 0 113 66" fill="none" xmlns="http://www.w3.org/2000/svg">
<path d="M86.7573 20.5675C86.3147 20.7628 84.987 21.4465 84.3477 21.593C83.7575 21.7395 83.8559 21.3976 84.0034 21.1046C84.2985 20.6163 84.5935 20.2745 84.8886 19.8838L85.5279 19.0536C85.5279 19.0536 85.9705 18.3211 85.6263 17.8816C85.4787 17.6863 85.1345 17.5886 84.6919 17.6863C83.8559 17.8328 83.2166 18.2234 82.5281 18.5164C81.2495 19.1024 80.0201 19.8838 78.6431 20.6163C79.0857 20.0303 79.4792 19.3954 79.9709 18.6629C80.266 18.2234 80.561 17.7351 80.9053 17.2468C80.9053 17.2468 81.0528 16.6608 80.8561 16.3678C80.7578 16.2701 80.5611 16.0259 80.3152 15.9771C79.8234 15.8306 78.9874 15.9771 78.6923 16.0748C76.8236 16.6119 75.2991 17.3933 73.6271 18.4676C74.0697 17.8816 74.5615 17.2956 75.0041 16.7096L75.545 15.9771L74.3156 15.1469C74.1681 15.3423 73.9713 15.5376 73.7255 15.7329C73.2829 16.1236 72.7911 16.4654 72.2993 16.8073C70.3323 18.1746 68.4144 19.2489 66.6932 20.0303C63.4475 21.593 62.1197 21.5441 61.4313 21.4465C61.087 21.4465 60.8903 21.2023 60.7428 20.8605C61.1854 20.6163 61.7755 20.4209 62.2181 20.1768C63.5459 19.4443 65.1195 18.5164 66.3489 17.4421C67.1358 16.7584 68.2668 15.4888 68.3652 14.5121C68.316 13.8284 67.6767 13.7796 67.3325 13.6819L66.7915 13.7308C66.4473 13.7308 66.1031 13.8284 65.808 13.9261C65.1687 14.0726 64.4802 14.3168 63.9393 14.5609C62.8574 15.0981 61.9722 15.7329 61.2346 16.4166C60.0543 17.4421 59.2183 18.7606 59.0708 20.0791C57.4479 20.8116 55.8251 21.3 54.0547 21.5441C51.4975 21.7395 52.2352 19.4443 53.3171 17.6374C53.563 17.4421 53.7597 17.2468 54.0056 17.0514C54.7432 16.3678 56.8086 14.2679 57.1037 14.0238C57.6446 13.5354 57.6447 13.0471 57.3988 12.7053C57.3004 12.5099 56.6611 12.1193 56.1202 12.5099C55.7268 12.8029 55.2842 13.0959 54.8416 13.4378C53.9564 14.2191 53.1696 15.0981 52.4811 16.1724C52.3827 16.3678 52.2352 16.5631 52.1368 16.7584C49.8255 18.7118 48.3502 20.0303 45.793 21.3C45.2521 21.5441 44.5636 21.7883 43.8751 21.886C43.0391 21.9836 41.7114 21.7395 40.6786 21.1535C39.7935 20.6163 39.3017 20.2745 38.9083 20.1279C38.269 19.8349 38.1215 19.9814 38.5149 20.6163C39.105 21.4465 39.8426 22.0325 40.6786 22.4231C42.449 23.2533 44.3669 23.2045 46.1864 22.3255C47.7601 21.6418 49.3338 20.7139 50.9074 19.5419C50.9074 19.6396 50.8582 19.7373 50.8582 19.8349C50.7599 20.5675 50.8582 21.6418 51.6451 22.2766C52.4319 22.9603 53.3171 22.8626 54.0547 22.9115C55.9726 22.8626 57.6938 22.2766 59.3658 21.5441C59.9068 22.5696 60.3985 22.5696 60.6936 22.6673C61.8247 22.9603 63.7918 23.2045 67.2833 21.4465C68.4144 20.9581 69.5946 20.3233 70.824 19.5419C70.1356 20.4209 68.6111 22.3743 68.6111 22.3743C69.2996 22.9603 69.4963 23.1068 69.7913 23.3021L70.3323 22.765C70.529 22.5208 70.7749 22.3255 71.0699 22.1301C71.5617 21.6906 72.1026 21.3 72.6436 20.9581C74.709 19.5419 76.922 18.1746 78.9382 17.5886L78.6923 17.9304C78.1022 18.8094 77.5121 19.6396 77.0203 20.3721C77.0203 20.3721 76.3318 21.2023 76.086 21.7395C75.8401 22.2766 76.1843 23.0091 76.6761 23.058C76.8728 23.058 77.4137 22.9115 77.4137 22.9115C78.0038 22.6185 78.3973 22.4231 78.8399 22.2278C80.4627 21.3488 81.7905 20.4698 83.1182 19.7861C83.3641 19.6396 83.6592 19.4931 83.9051 19.3954C83.5608 19.9326 83.2166 20.5186 82.9707 21.1535C82.8724 21.4953 82.6265 21.8371 82.774 22.3743C83.0691 22.8626 83.7084 22.7161 84.1018 22.5696C84.8394 22.2278 86.2164 21.593 86.9049 21.1535C87.495 20.8605 87.2491 20.3721 86.7573 20.5675ZM62.4148 17.2956C64.136 15.8306 65.6605 15.0981 66.5948 14.8051C66.8407 14.7563 67.2341 14.8539 66.9882 15.1469C66.7424 15.4399 66.4473 15.6841 66.0047 16.0259C64.9228 16.8561 64.2835 17.4421 62.464 18.4188C62.3164 18.5164 61.3329 18.9559 60.8903 19.1513C61.1854 18.7118 61.6771 17.9304 62.4148 17.2956Z" fill="white"/>
<path d="M25.483 23.3025C28.9254 23.4002 33.4988 21.4468 37.2363 15.9287C41.5638 9.48265 40.0885 3.32964 37.6789 2.15764C36.8428 1.76697 35.6134 1.62047 34.4332 1.91347C32.8103 2.35297 30.5482 4.50164 30.0073 5.13648C29.4663 5.77131 28.9746 6.30848 28.6303 6.79681C28.2861 7.28515 27.8435 7.87115 27.7943 8.40832C27.7943 8.60365 27.8435 8.70132 27.9418 8.79899C28.0402 8.89665 28.1385 8.89665 28.2861 8.89665C28.4336 8.89665 28.6303 8.60365 28.827 8.40832C30.5974 5.86898 32.1219 3.72031 34.4332 2.98781C35.5642 2.64597 37.728 2.35297 37.6297 5.96665C37.5313 8.11532 36.1052 11.7778 34.7774 14.2195C31.4826 20.1283 28.0894 22.1305 25.8764 22.2282C23.0241 22.3747 22.2865 19.054 22.3357 17.5402C22.434 14.7078 23.3684 8.40832 29.9581 3.18314C30.6957 2.59714 30.499 2.35297 30.2531 2.20647C30.0073 2.05997 29.7122 2.01114 29.1713 2.40181C27.5484 3.57381 25.5813 5.13648 24.2536 6.74798C22.6307 8.70132 20.8112 11.2895 20.2211 14.4637C19.4342 19.054 21.3521 23.3025 25.483 23.3025Z" fill="white"/>
<path d="M14.0244 9.38472C14.4178 9.09172 14.8112 8.84755 15.1555 8.55455C15.6472 8.16389 16.0898 7.72439 16.4341 7.33372C17.4176 6.25938 18.352 5.08738 18.352 3.86654V3.81771C18.352 2.93871 18.0569 2.20621 17.516 1.62021C16.975 1.03421 16.1882 0.790039 15.2538 0.790039H15.2047C14.467 0.790039 13.1392 0.985373 12.254 1.37604C11.6639 1.62021 11.0738 1.96204 10.582 2.30388C10.0411 2.64571 9.5985 3.03638 9.15591 3.47588V3.52471C8.22155 4.45255 7.63142 5.38038 7.38554 6.40588V6.50355V6.60122C7.38554 6.65005 7.38554 6.74772 7.38554 6.79655C7.38554 6.89422 7.38554 6.99188 7.43472 7.08955L7.58225 7.23605V7.28488L7.77895 7.33372H7.82813C7.97566 7.33372 8.12319 7.23605 8.27072 7.13838C8.36908 7.04072 8.41826 6.89422 8.46743 6.79655C8.7625 6.21055 9.30344 5.42921 10.1886 4.45255C10.8771 3.67121 12.1557 2.69454 13.4343 2.30388C14.3195 2.05971 15.008 1.96204 15.5981 2.01087C16.68 2.05971 16.975 2.84104 16.9258 3.28054C16.68 5.23388 14.2211 7.52905 12.795 8.55455C11.6147 9.38472 10.9263 9.87306 8.86084 10.8497C7.97566 11.2892 9.25426 11.8752 9.94274 11.5822C10.2378 11.4357 10.8279 11.0939 11.5656 10.8986C11.7623 10.8986 14.5654 9.58005 15.4505 11.8752C16.3849 14.2192 14.4178 18.9072 8.17237 21.4466C4.04152 22.6674 2.12362 20.6164 1.68103 19.8351C1.58267 19.6886 1.43515 18.7119 0.845023 18.9072C-0.433575 19.4444 0.205722 20.6164 0.205722 20.6164C3.0088 24.8649 12.3524 23.4976 16.5816 18.1259C19.8273 13.7797 17.9586 9.53122 14.0244 9.38472Z" fill="white"/>
<path d="M2.22223 35.4619H3.89425L3.10741 39.5151H6.64815L7.43498 35.4619H9.10699L7.23827 45.3263H5.56626L6.40226 40.9313H2.86153L2.02553 45.3263H0.353516L2.22223 35.4619Z" fill="white"/>
<path d="M14.9591 45.326H13.4346C13.4346 44.9353 13.4838 44.447 13.533 43.8121H13.4838C12.8937 44.9353 12.1069 45.4725 11.1233 45.4725C10.5332 45.4725 10.0414 45.2772 9.6972 44.8377C9.35296 44.3982 9.15625 43.861 9.15625 43.1285C9.15625 42.5425 9.25461 41.9076 9.45131 41.3216C9.64802 40.7356 9.94308 40.1985 10.3365 39.7101C10.7299 39.2218 11.2217 38.8311 11.861 38.4893C12.5003 38.1963 13.1888 38.0498 13.9756 38.0498C14.7132 38.0498 15.4017 38.1475 15.9918 38.3428L15.2542 42.1518C15.0575 43.3726 14.9591 44.447 14.9591 45.326ZM13.7789 41.4681L14.1723 39.4171C13.9756 39.3683 13.7789 39.3683 13.5822 39.3683C12.8445 39.3683 12.2544 39.759 11.7134 40.4915C11.2217 41.224 10.9266 42.0541 10.9266 42.8355C10.9266 43.7145 11.2217 44.154 11.8118 44.154C12.2052 44.154 12.5495 43.9098 12.9429 43.4215C13.3363 42.8843 13.6313 42.2495 13.7789 41.4681Z" fill="white"/>
<path d="M21.2047 43.861L21.2539 45.1307C20.7621 45.3748 20.1228 45.4725 19.4344 45.4725C18.5984 45.4725 17.9591 45.2283 17.4673 44.6912C16.9755 44.2028 16.7788 43.5192 16.7788 42.689C16.7788 41.4193 17.1722 40.345 18.0082 39.4171C18.8442 38.4893 19.877 38.0498 21.1064 38.0498C21.6473 38.0498 22.0407 38.1475 22.385 38.294L21.9424 39.5636C21.6473 39.466 21.3031 39.3683 21.008 39.3683C20.2704 39.3683 19.6802 39.6613 19.1885 40.2961C18.6967 40.931 18.4508 41.6635 18.4508 42.4448C18.4508 42.9332 18.5984 43.3726 18.8442 43.6168C19.0901 43.9098 19.4344 44.0563 19.877 44.0563C20.2704 44.154 20.713 44.0563 21.2047 43.861Z" fill="white"/>
<path d="M26.3679 48.2072H24.7451L26.1712 40.7845C26.2696 40.2961 26.4171 39.4171 26.5647 38.1963H28.04L27.8924 39.3683H27.9416C28.5317 38.4893 29.3185 38.0498 30.2037 38.0498C30.8922 38.0498 31.384 38.294 31.7282 38.7823C32.0724 39.2706 32.22 39.8566 32.22 40.5403C32.22 41.3705 32.0724 42.1518 31.7282 42.8843C31.384 43.6168 30.9414 44.2517 30.3021 44.74C29.6628 45.2283 29.0235 45.4725 28.2367 45.4725C27.6957 45.4725 27.3023 45.3748 26.9581 45.1795H26.9089L26.3679 48.2072ZM27.5482 41.8588L27.1548 43.9098C27.4007 44.1052 27.7449 44.2517 28.1383 44.2517C28.7776 44.2517 29.3185 43.861 29.7611 43.0796C30.2037 42.2983 30.4496 41.517 30.4496 40.7356C30.4496 40.3938 30.3513 40.052 30.2037 39.8078C30.0562 39.5636 29.8103 39.4171 29.4661 39.4171C29.0727 39.4171 28.6792 39.6613 28.2858 40.1008C27.9416 40.5403 27.6957 41.1263 27.5482 41.8588Z" fill="white"/>
<path d="M38.023 43.7145L38.1705 44.9353C37.4821 45.2772 36.6952 45.4237 35.8101 45.4237C34.9249 45.4237 34.2364 45.1795 33.7446 44.6423C33.302 44.154 33.0562 43.4215 33.0562 42.5913C33.0562 41.8588 33.2037 41.1752 33.4987 40.4915C33.7938 39.8078 34.2364 39.2218 34.8265 38.7335C35.4166 38.2451 36.1051 38.001 36.8428 38.001C37.4821 38.001 38.023 38.1963 38.4164 38.5381C38.8098 38.9288 39.0066 39.3683 39.0066 39.9543C39.0066 41.6147 37.5312 42.4448 34.6298 42.3472C34.5806 42.7867 34.679 43.1285 34.8265 43.3727C35.0724 43.861 35.515 44.1052 36.1543 44.1052C36.8428 44.154 37.4329 44.0075 38.023 43.7145ZM37.4821 40.052C37.4821 39.8078 37.4329 39.6613 37.2854 39.5148C37.1378 39.3683 36.9411 39.3195 36.6952 39.3195C36.2526 39.3195 35.8592 39.5148 35.5642 39.8567C35.2199 40.1985 35.0232 40.6868 34.8757 41.1752C36.5969 41.224 37.4821 40.8333 37.4821 40.052Z" fill="white"/>
<path d="M40.9735 38.1963H42.5963L42.0062 41.2728H42.2029L44.7601 38.1963H46.678L43.5799 41.4193C44.2192 41.6146 44.6126 42.3471 44.8093 43.4703C45.0552 44.5446 45.2027 45.1795 45.2519 45.326H43.6291C43.5799 45.2283 43.5307 45.0818 43.4815 44.8865C43.4323 44.6911 43.3832 44.447 43.334 44.2028C43.2848 43.9586 43.2356 43.7145 43.1865 43.568C43.0881 43.0796 42.9406 42.7378 42.7439 42.5425C42.5472 42.3471 42.3013 42.2495 41.957 42.2495H41.7603L41.1702 45.326H39.5474L40.9735 38.1963Z" fill="white"/>
<path d="M49.137 45.4725C48.301 45.4725 47.6125 45.2283 47.1699 44.6912C46.6781 44.154 46.4814 43.5192 46.4814 42.689C46.4814 41.9076 46.629 41.1751 46.9732 40.4426C47.2683 39.759 47.7601 39.173 48.3502 38.7335C48.9403 38.294 49.6288 38.0498 50.4156 38.0498C51.3008 38.0498 51.9401 38.3428 52.3827 38.88C52.8253 39.4171 53.0711 40.1008 53.0711 40.8333C53.0711 42.0541 52.7269 43.1285 51.9893 44.0563C51.1532 45.033 50.2189 45.4725 49.137 45.4725ZM49.2845 44.2028C49.6779 44.2028 50.0222 44.0075 50.3172 43.6168C50.6123 43.2261 50.8582 42.7866 51.0057 42.2983C51.1532 41.81 51.2516 41.2728 51.2516 40.8333C51.2516 40.4426 51.1532 40.1008 50.9565 39.8078C50.7598 39.5148 50.4648 39.3683 50.0714 39.3683C49.4812 39.3683 49.0386 39.7101 48.6452 40.4426C48.2518 41.1751 48.0551 41.9076 48.0551 42.6401C48.0551 43.1285 48.1535 43.4703 48.3502 43.7633C48.6452 44.0563 48.9403 44.2028 49.2845 44.2028Z" fill="white"/>
<path d="M55.4316 38.1963H57.4478L57.792 41.2728C57.8412 41.81 57.8904 42.4448 57.9396 43.1773H57.9888C58.1855 42.7866 58.5297 42.0541 59.0707 41.0286L60.546 38.1963H62.5622L61.6279 45.326H60.1034L60.546 42.3471C60.6935 41.2728 60.841 40.4426 60.9394 39.8566H60.8902C60.6935 40.2961 60.3492 41.0775 59.7591 42.1518L58.1363 45.2771H56.8577L56.5134 42.2495C56.4151 41.2728 56.3659 40.4915 56.3167 39.8566H56.2676C56.0709 40.8333 55.8742 41.7123 55.6775 42.4448L54.9398 45.4236H53.5137L55.4316 38.1963Z" fill="white"/>
<path d="M68.5128 43.7145L68.6603 44.9353C67.9718 45.2772 67.185 45.4237 66.2998 45.4237C65.4146 45.4237 64.7261 45.1795 64.2344 44.6423C63.7918 44.154 63.5459 43.4215 63.5459 42.5913C63.5459 41.8588 63.6934 41.1752 63.9885 40.4915C64.2835 39.8078 64.7261 39.2218 65.3163 38.7335C65.9064 38.2451 66.5948 38.001 67.3325 38.001C67.9718 38.001 68.5128 38.1963 68.9062 38.5381C69.2996 38.9288 69.4963 39.3683 69.4963 39.9543C69.4963 41.6147 68.021 42.4448 65.1195 42.3472C65.0704 42.7867 65.1687 43.1285 65.3163 43.3727C65.5621 43.861 66.0047 44.1052 66.644 44.1052C67.3325 44.154 67.9718 44.0075 68.5128 43.7145ZM68.021 40.052C68.021 39.8078 67.9718 39.6613 67.8243 39.5148C67.6767 39.3683 67.48 39.3195 67.2342 39.3195C66.7916 39.3195 66.3981 39.5148 66.1031 39.8567C65.7588 40.1985 65.5621 40.6868 65.4146 41.1752C67.1358 41.224 68.021 40.8333 68.021 40.052Z" fill="white"/>
<path d="M71.4632 38.1963H73.1352L72.5942 40.9798H75.0039L75.5448 38.1963H77.2169L75.8399 45.326H74.2171L74.8072 42.2495H72.4467L71.8566 45.326H70.1846L71.4632 38.1963Z" fill="white"/>
<path d="M79.4789 36.2433V34.876C79.6265 34.9248 79.774 34.9248 79.9707 34.9736C80.1674 34.9736 80.3641 35.0225 80.61 35.0225C80.8559 35.0225 81.0034 35.0713 81.1018 35.0713C82.1836 35.2178 82.9705 35.5108 83.4622 35.9991C84.1999 36.5851 84.5933 37.6595 84.5933 39.1733C84.5933 39.7105 84.5441 40.2476 84.4458 40.7848C84.3474 41.322 84.1999 41.908 84.0032 42.494C83.8065 43.08 83.5606 43.5683 83.2164 44.0078C82.9213 44.4473 82.5279 44.838 82.0361 45.131C81.5444 45.424 81.0034 45.5705 80.4133 45.5705C79.6265 45.5705 78.9872 45.3263 78.5446 44.838C78.102 44.3497 77.9053 43.666 77.9053 42.8358C77.9053 42.1522 78.0528 41.4685 78.2987 40.7848C78.5938 40.1011 78.9872 39.5151 79.5281 39.0268C80.0691 38.5385 80.7083 38.2943 81.3968 38.2943C82.2328 38.2943 82.8229 38.685 83.118 39.5151H83.1672C83.1672 39.4663 83.1672 39.3686 83.1672 39.271C83.1672 39.1245 83.1672 39.0756 83.1672 38.978C83.1672 38.1966 82.9705 37.5618 82.4787 37.1711C82.1345 36.7805 81.4952 36.5851 80.61 36.4875C80.1674 36.341 79.774 36.2921 79.4789 36.2433ZM80.6592 44.252C81.0526 44.252 81.3968 44.0567 81.6919 43.666C81.9869 43.2753 82.2328 42.8358 82.3804 42.3475C82.5279 41.8592 82.5771 41.4197 82.6262 41.029C82.6262 40.5895 82.5279 40.2477 82.3804 39.9547C82.1836 39.6617 81.9378 39.5151 81.5935 39.5151C81.2001 39.5151 80.8559 39.7105 80.5116 40.1012C80.2166 40.4918 79.9707 40.9313 79.8232 41.3708C79.6756 41.8592 79.6265 42.3475 79.6265 42.787C79.6265 43.2265 79.7248 43.5683 79.8723 43.8613C80.0199 44.1055 80.3149 44.252 80.6592 44.252Z" fill="white"/>
<path d="M85.5275 38.1963H87.2487L87.6913 41.7123C87.7897 42.5425 87.888 43.1773 87.9372 43.4703H87.9864C88.1339 43.1285 88.3306 42.5425 88.6749 41.7123L90.101 38.1475H91.8222C90.4452 41.1751 89.6092 43.0308 89.3142 43.6656C88.4782 45.326 87.593 46.5956 86.757 47.4258C86.1668 48.0118 85.5275 48.3537 84.8391 48.5002L84.3965 47.084C84.8883 46.8887 85.2817 46.6933 85.5767 46.4491C86.1177 46.0585 86.5111 45.5701 86.8061 45.033C86.8553 44.9353 86.8553 44.8376 86.8553 44.6911L85.5275 38.1963Z" fill="white"/>
<path d="M92.9043 38.1963H94.5763L94.0354 41.0286H95.0189C95.2648 40.1496 95.7074 39.466 96.3467 38.88C96.9368 38.3428 97.6744 38.0498 98.5104 38.0498C99.3465 38.0498 99.9857 38.3428 100.428 38.88C100.871 39.4171 101.068 40.1008 101.068 40.8821C101.068 42.103 100.723 43.1285 100.035 44.0563C99.3464 44.9841 98.4613 45.4236 97.3302 45.4236C96.5434 45.4236 95.9041 45.1795 95.4615 44.6911C95.0189 44.2028 94.773 43.568 94.773 42.7866C94.773 42.5913 94.773 42.396 94.8222 42.2006H93.7895L93.1993 45.326H91.5273L92.9043 38.1963ZM97.4777 44.2028C97.8711 44.2028 98.1662 44.0075 98.4613 43.6168C98.7563 43.2261 98.953 42.7866 99.1006 42.2983C99.2481 41.81 99.3464 41.2728 99.3464 40.8333C99.3464 40.4426 99.2481 40.052 99.1006 39.759C98.9039 39.466 98.658 39.3195 98.2646 39.3195C97.8711 39.3195 97.5269 39.5148 97.2318 39.9055C96.9368 40.2961 96.6909 40.7356 96.5434 41.224C96.3958 41.7123 96.3467 42.2006 96.3467 42.6401C96.3467 43.0796 96.445 43.4703 96.6417 43.7633C96.7893 44.0563 97.0843 44.2028 97.4777 44.2028Z" fill="white"/>
<path d="M103.33 45.326H101.707L102.641 40.4426C102.789 39.7101 102.887 38.9776 103.035 38.1963H104.461L104.313 39.3683H104.363C104.953 38.4893 105.74 38.0498 106.674 38.0498C107.166 38.0498 107.51 38.1963 107.756 38.4405C108.002 38.6846 108.149 39.0265 108.198 39.4171C108.838 38.4893 109.624 38.0498 110.559 38.0498C111.051 38.0498 111.444 38.1963 111.739 38.5381C112.034 38.8311 112.182 39.2706 112.182 39.8566C112.182 40.1985 112.133 40.5891 112.034 41.1263L111.247 45.3748H109.624L110.411 41.2728C110.46 40.8821 110.51 40.5891 110.51 40.2961C110.51 39.7101 110.264 39.4171 109.723 39.4171C109.379 39.4171 108.985 39.6613 108.641 40.1008C108.297 40.5403 108.051 41.1263 107.903 41.81L107.264 45.3748H105.69L106.477 41.224C106.526 40.8333 106.576 40.5403 106.576 40.345C106.576 39.759 106.33 39.4171 105.838 39.4171C105.494 39.4171 105.149 39.6613 104.756 40.1008C104.412 40.5403 104.166 41.1263 104.018 41.81L103.33 45.326Z" fill="white"/>
<path d="M2.02532 53.5792V52.2119C2.17285 52.2607 2.32038 52.2607 2.51709 52.3096C2.71379 52.3096 2.9105 52.3584 3.15639 52.3584C3.40227 52.3584 3.5498 52.4072 3.64816 52.4072C4.73005 52.5537 5.51688 52.8467 6.00865 53.3351C6.7463 53.9211 7.13971 54.9954 7.13971 56.5093C7.13971 57.0464 7.09054 57.5836 6.99218 58.1208C6.89383 58.6579 6.7463 59.2439 6.54959 59.8299C6.35288 60.4159 6.107 60.9043 5.76276 61.3438C5.4677 61.7833 5.07428 62.1739 4.58251 62.4669C4.09075 62.7599 3.5498 62.9064 2.95968 62.9064C2.17285 62.9064 1.53355 62.6623 1.09096 62.1739C0.648369 61.6856 0.45166 61.0019 0.45166 60.1718C0.45166 59.4881 0.599192 58.8044 0.845077 58.1208C1.14014 57.4371 1.53355 56.8511 2.0745 56.3628C2.61544 55.8744 3.25474 55.6303 3.94321 55.6303C4.77922 55.6303 5.36934 56.0209 5.6644 56.8511H5.71358C5.71358 56.8023 5.71358 56.7046 5.71358 56.6069C5.71358 56.4604 5.71358 56.4116 5.71358 56.3139C5.71358 55.5326 5.51688 54.8978 5.02511 54.5071C4.68087 54.1164 4.04157 53.9211 3.15639 53.8234C2.66462 53.6769 2.2712 53.6281 2.02532 53.5792ZM3.15639 61.5879C3.5498 61.5879 3.89404 61.3926 4.1891 61.0019C4.48416 60.6113 4.73005 60.1718 4.87758 59.6834C5.02511 59.1951 5.07429 58.7556 5.12346 58.3649C5.12346 57.9254 5.02511 57.5836 4.87758 57.2906C4.68087 56.9976 4.43498 56.8511 4.09075 56.8511C3.69733 56.8511 3.35309 57.0464 3.00886 57.4371C2.71379 57.8278 2.46791 58.2673 2.32038 58.7068C2.17285 59.1951 2.12367 59.6834 2.12367 60.1229C2.12367 60.5624 2.22202 60.9043 2.36955 61.1973C2.56626 61.4414 2.81215 61.5879 3.15639 61.5879Z" fill="white"/>
<path d="M8.76298 65.5431H7.14014L8.56627 58.1204C8.66462 57.6321 8.81216 56.7531 8.95969 55.5322H10.435L10.2875 56.7042H10.3366C10.9268 55.8252 11.7136 55.3857 12.5988 55.3857C13.2872 55.3857 13.779 55.6299 14.1233 56.1182C14.4675 56.6066 14.615 57.1926 14.615 57.8762C14.615 58.7064 14.4675 59.4877 14.1233 60.2202C13.779 60.9528 13.3364 61.5876 12.6971 62.0759C12.0578 62.5643 11.4185 62.8084 10.6317 62.8084C10.0908 62.8084 9.69733 62.7108 9.3531 62.5154H9.30392L8.76298 65.5431ZM9.94322 59.1947L9.54981 61.2458C9.79569 61.4411 10.1399 61.5876 10.5333 61.5876C11.1726 61.5876 11.7136 61.1969 12.1562 60.4156C12.5988 59.6342 12.8447 58.8529 12.8447 58.0716C12.8447 57.7297 12.7463 57.3879 12.5988 57.1437C12.4512 56.8996 12.2054 56.7531 11.8611 56.7531C11.4677 56.7531 11.0743 56.9972 10.6809 57.4367C10.3366 57.8762 10.0908 58.4622 9.94322 59.1947Z" fill="white"/>
<path d="M15.4997 55.5322H17.2209L17.6635 59.0482C17.7618 59.8784 17.8602 60.5132 17.9094 60.8062H17.9586C18.1061 60.4644 18.3028 59.8784 18.647 59.0482L20.0732 55.4834H21.7943C20.4174 58.5111 19.5814 60.3667 19.2863 61.0016C18.4503 62.6619 17.5651 63.9316 16.7291 64.7617C16.139 65.3477 15.4997 65.6896 14.8112 65.8361L14.3687 64.4199C14.8604 64.2246 15.2538 64.0292 15.5489 63.7851C16.0898 63.3944 16.4833 62.9061 16.7783 62.3689C16.8275 62.2712 16.8275 62.1736 16.8275 62.0271L15.4997 55.5322Z" fill="white"/>
<path d="M22.9258 59.4878L23.0733 58.3646H23.6143C24.0568 58.3646 24.4503 58.2669 24.7945 58.1204C25.1387 57.9251 25.3354 57.6809 25.3354 57.3391C25.3354 57.0949 25.2371 56.8996 25.0404 56.7531C24.8437 56.6066 24.5978 56.5578 24.3027 56.5578C23.7618 56.5578 23.2208 56.7042 22.7291 56.9972L22.3848 55.9718C23.0733 55.5811 23.8601 55.3369 24.647 55.3369C25.2863 55.3369 25.8272 55.4834 26.319 55.7764C26.7616 56.0694 27.0075 56.5089 27.0075 57.0949C27.0075 57.5344 26.8599 57.9251 26.5157 58.2181C26.1715 58.5111 25.7289 58.7064 25.2371 58.8529C25.6797 58.9018 26.0239 59.0971 26.319 59.3901C26.614 59.6831 26.7616 60.0249 26.7616 60.5133C26.7616 61.0504 26.614 61.4411 26.2698 61.8318C25.9256 62.1736 25.5322 62.4178 25.0896 62.5643C24.647 62.7108 24.1552 62.7596 23.6143 62.7596C22.6307 62.7596 21.8439 62.5643 21.2046 62.1736L21.6472 61.0504C22.1881 61.3923 22.7783 61.5388 23.4667 61.5388C23.9093 61.5388 24.2536 61.4411 24.5978 61.2458C24.8929 61.0504 25.0896 60.8063 25.0896 60.4644C25.0896 60.1226 24.942 59.8784 24.647 59.7319C24.3519 59.5854 23.9585 59.4878 23.5159 59.4878H22.9258V59.4878Z" fill="white"/>
<path d="M29.2696 55.5322H30.8924L30.1548 58.5111C30.6466 58.0227 31.2859 57.7786 32.0235 57.7786C32.5645 57.7786 33.0071 57.9251 33.3513 58.2669C33.6955 58.6087 33.8922 59.0482 33.8922 59.6342C33.8922 60.4644 33.548 61.1969 32.9087 61.8317C32.2694 62.4666 31.3842 62.7596 30.2531 62.7596C28.827 62.7596 28.0894 62.2224 28.0894 61.0992C28.0894 60.8062 28.1385 60.3667 28.2861 59.8296L29.2696 55.5322ZM30.5974 61.5876C31.04 61.5876 31.4826 61.4411 31.8268 61.1481C32.171 60.8551 32.3186 60.4644 32.3186 59.9761C32.3186 59.6831 32.2202 59.4389 32.0727 59.2436C31.9252 59.0971 31.6793 58.9994 31.3842 58.9994C31.04 58.9994 30.7449 59.1459 30.4498 59.3901C30.1548 59.6342 29.9581 59.8784 29.8597 60.1714C29.7614 60.4156 29.7614 60.6109 29.7614 60.8551C29.7614 61.0992 29.8105 61.2457 29.9581 61.3922C30.1548 61.4899 30.3515 61.5876 30.5974 61.5876Z" fill="white"/>
<path d="M41.2192 55.5811L39.8423 62.6619H38.2194L38.7604 59.8296H38.2686C37.531 59.8296 36.99 60.2691 36.5474 61.1481C36.154 61.9782 35.859 62.4666 35.7606 62.6619H33.9902C34.1378 62.4666 34.4328 61.8317 34.9738 60.8062C35.4164 59.9272 35.9573 59.4389 36.6458 59.2924V59.2436C36.3015 59.1459 35.9573 58.9506 35.7114 58.7064C35.4164 58.4134 35.318 58.0716 35.318 57.6809C35.318 56.1671 36.5474 55.4346 38.9571 55.4346C39.7931 55.4346 40.5308 55.4834 41.2192 55.5811ZM39.0063 58.7064L39.3997 56.6066C39.1046 56.5577 38.8587 56.5577 38.662 56.5577C37.5801 56.5577 37.0884 56.9484 37.0884 57.6809C37.0884 58.0227 37.2359 58.2669 37.531 58.4134C37.826 58.6087 38.1703 58.6576 38.5145 58.6576H39.0063V58.7064Z" fill="white"/>
<path d="M43.4815 55.5322H45.4978L45.842 58.6087C45.8912 59.1459 45.9403 59.7807 45.9895 60.5132H46.0387C46.2354 60.1226 46.5797 59.3901 47.1206 58.3646L48.5959 55.5322H50.6121L49.6778 62.6619H48.1533L48.5959 59.6831C48.7434 58.6087 48.891 57.7786 48.9893 57.1926V57.1926C48.7926 57.6321 48.4484 58.4134 47.8582 59.4877L46.2354 62.6131H44.9568L44.6126 59.5854C44.5142 58.6087 44.4651 57.8274 44.4159 57.1926H44.3667C44.17 58.1692 43.9733 59.0482 43.7766 59.7807L43.0389 62.7596H41.6128L43.4815 55.5322Z" fill="white"/>
</svg>
