<svg width="150" height="150" viewBox="0 0 150 150" fill="none" xmlns="http://www.w3.org/2000/svg">
<path d="M12.066 81.5903L10.1138 84.5574V103.401H14.0181V84.5574L12.066 81.5903Z" fill="#121C36"/>
<path d="M18.6313 81.5903L16.6853 84.5574V103.401H20.5897V84.5574L18.6313 81.5903Z" fill="#121C36"/>
<path d="M25.2028 81.5903L23.2568 84.5574V103.401H27.155V84.5574L25.2028 81.5903Z" fill="#121C36"/>
<path d="M31.7744 81.5903L29.8223 84.5574V103.401H33.7266V84.5574L31.7744 81.5903Z" fill="#121C36"/>
<path d="M38.3395 81.5903L36.3936 84.5574V103.401H40.2917V84.5574L38.3395 81.5903Z" fill="#121C36"/>
<path d="M44.9113 81.5903L42.9653 84.5574V103.401H46.8573V84.5574L44.9113 81.5903Z" fill="#121C36"/>
<path d="M51.4765 81.5903L49.5305 84.5574V103.401H53.4287V84.5574L51.4765 81.5903Z" fill="#121C36"/>
<path d="M56.1021 95.6963V103.401H60.0002V84.5574L58.048 81.5903L56.1021 84.5574V95.6963Z" fill="#121C36"/>
<path d="M64.6134 81.5903L62.6675 84.5574V103.401H66.5656V84.5574L64.6134 81.5903Z" fill="#121C36"/>
<path d="M71.1847 81.5903L69.2388 84.5574V103.401H73.1369V84.5574L71.1847 81.5903Z" fill="#121C36"/>
<path d="M77.7564 81.5903L75.8042 84.5574V103.401H79.7023V84.5574L77.7564 81.5903Z" fill="#121C36"/>
<path d="M84.3217 81.5903L82.3757 84.5574V103.401H86.2739V84.5574L84.3217 81.5903Z" fill="#121C36"/>
<path d="M89.5876 98.2893H8V99.8726H89.5876V98.2893Z" fill="#121C36"/>
<path d="M89.5876 87.6055H8V89.1887H89.5876V87.6055Z" fill="#121C36"/>
<path d="M117.938 61.3818H42.5239V106.698H117.938V61.3818Z" fill="#121C36"/>
<path d="M35.6973 59.2191H124.764L80.2307 22L35.6973 59.2191Z" fill="#121C36"/>
<path d="M94.0628 89.564H108.567V69.019H94.0628V89.564Z" fill="white"/>
<path d="M100.553 89.564H102.077V69.019H100.553V89.564Z" fill="#121C36"/>
<path d="M94.0627 78.53V80.0571H108.567V78.53H94.0627Z" fill="#121C36"/>
<path d="M56.7534 106.7H72.2217V80.059H56.7534V106.7Z" fill="white"/>
<path d="M59.652 96.781C60.1877 96.781 60.6219 96.3456 60.6219 95.8086C60.6219 95.2715 60.1877 94.8362 59.652 94.8362C59.1164 94.8362 58.6821 95.2715 58.6821 95.8086C58.6821 96.3456 59.1164 96.781 59.652 96.781Z" fill="#121C36"/>
<path d="M98.4658 35.7818L106.641 42.6135V30.1968H98.4658V35.7818Z" fill="#121C36"/>
<path d="M97.6711 31.2769H107.426V29.1139H97.6711V31.2769Z" fill="#121C36"/>
<path d="M39.4311 112.741L121.025 112.741V108.958L39.4311 108.958V112.741Z" fill="#121C36"/>
<path d="M90.7919 122.731C86.7693 122.035 83.0765 119.959 80.3926 116.886C73.917 109.477 74.6951 98.2008 82.1269 91.7383C86.2088 88.1918 91.6162 86.6879 96.9576 87.6139C98.3226 87.8503 99.6481 88.2444 100.914 88.7829L127.127 66L132.152 67.898L134.275 66.046L138.001 70.3083L136.326 78.5703L132.264 82.0971L129.527 81.9461L127.911 83.345L127.918 85.8735L123.223 89.952L120.513 88.5925L120.73 90.6021L115.87 94.8185L113.859 93.7743L113.556 94.037L113.714 98.2074L111.116 100.46C112.909 106.988 110.812 114.088 105.616 118.6C101.541 122.153 96.1333 123.657 90.7919 122.731Z" fill="white"/>
<path d="M134.024 69.7568L132.698 70.9127L127.673 69.0146L101.322 91.9092C95.8622 88.8619 88.8459 89.3873 83.8605 93.7219C77.5102 99.2386 76.8508 108.84 82.3834 115.165C87.9161 121.49 97.5504 122.146 103.894 116.63C108.879 112.295 110.357 105.438 108.075 99.6327L111.036 97.0582L110.878 92.8878L113.482 90.622L115.494 91.6662L117.96 89.5252L117.736 87.4301L120.05 85.4205L122.827 86.8128L125.273 84.6849L125.266 82.1564L128.597 79.2666L131.333 79.4177L133.912 77.1781L135.151 71.0572L134.024 69.7568Z" fill="#951A4A"/>
<path d="M96.4623 102.923C97.7086 104.348 97.5635 106.509 96.1325 107.757C94.7016 109.004 92.532 108.853 91.2857 107.428C90.0394 105.997 90.191 103.842 91.6154 102.595C93.0464 101.347 95.2225 101.498 96.4623 102.923Z" fill="white"/>
<path d="M130.107 73.1979C130.074 73.3424 130.001 73.4803 129.883 73.5854L105.299 95.1796C105.002 95.4357 104.554 95.4095 104.296 95.1139C104.039 94.8184 104.066 94.3718 104.356 94.1156L128.94 72.528C129.236 72.2719 129.685 72.2982 129.942 72.5937C130.094 72.7579 130.146 72.9877 130.107 73.1979Z" fill="white"/>
</svg>
