<svg width="150" height="150" viewBox="0 0 150 150" fill="none" xmlns="http://www.w3.org/2000/svg">
<path d="M117.217 104.434H114.434V101.65C114.434 100.112 113.189 98.8671 111.65 98.8671H30.5665C30.5665 101.65 30.5665 100.112 30.5665 101.65V104.434H25C25 108.5 25.0001 105.679 25.0001 107.217C25.0001 108.756 25.0001 107.217 25.0002 110H117.217C118.756 110 120 108.756 120 107.217C120 105.679 118.756 104.434 117.217 104.434Z" fill="#121C36"/>
<path d="M36.1331 71.0354H47.4516V93.3006H36.1331V71.0354Z" fill="#121C36"/>
<path d="M97.7349 71.0354H108.867V93.3006H97.7349V71.0354Z" fill="#121C36"/>
<path d="M66.9336 71.0354H78.0666V93.3006H66.9336V71.0354Z" fill="#121C36"/>
<path d="M114.434 62.6857V54.3359H30.5666V62.6857C30.5666 64.2237 30.5664 62.6857 30.5664 65.4689H114.434C114.434 61.5001 114.434 64.2237 114.434 62.6857Z" fill="#121C36"/>
<path d="M114.431 137.632C131.07 133.728 141.355 117.229 137.405 100.781C133.455 84.3334 116.765 74.1655 100.126 78.0703C83.4881 81.9751 73.2022 98.4741 77.1523 114.922C81.1025 131.369 97.7927 141.537 114.431 137.632Z" fill="white"/>
<path d="M134.035 107.989C134.11 93.3787 122.189 81.4748 107.41 81.4009C92.6301 81.327 80.5881 93.111 80.5134 107.721C80.4386 122.331 92.3592 134.235 107.139 134.309C121.919 134.383 133.96 122.599 134.035 107.989Z" fill="white"/>
<path d="M107.273 83.1307C121.063 83.1307 132.28 94.2187 132.28 107.851C132.28 121.484 121.063 132.572 107.273 132.572C93.482 132.572 82.2654 121.484 82.2654 107.851C82.2654 94.2187 93.482 83.1307 107.273 83.1307ZM107.273 79.6633C91.5264 79.6633 78.7578 92.2855 78.7578 107.851C78.7578 123.417 91.5264 136.039 107.273 136.039C123.019 136.039 135.787 123.417 135.787 107.851C135.787 92.2855 123.025 79.6633 107.273 79.6633Z" fill="#951A4A"/>
<path d="M125.101 96.8169H94.897C94.2673 96.8169 93.7568 97.3231 93.7568 97.9475V99.6024H121.585C123.471 99.6024 125.006 101.124 125.006 102.994V114.722H125.101C125.731 114.722 126.241 114.216 126.241 113.592V97.9475C126.241 97.3231 125.731 96.8169 125.101 96.8169V96.8169Z" fill="#951A4A"/>
<path d="M91.3813 107.588C93.9359 107.588 96.0142 105.527 96.0142 102.994V101.864H91.3813C90.7517 101.864 90.2412 102.37 90.2412 102.994V107.588H91.3813Z" fill="#951A4A"/>
<path d="M114.672 102.994V101.864H98.2944V102.994C98.2944 106.774 95.1932 109.849 91.3813 109.849H90.2412V111.783H91.3813C95.1933 111.783 98.2944 114.858 98.2944 118.638V119.769H114.672V118.638C114.672 114.858 117.773 111.783 121.585 111.783H122.726V109.849H121.585C117.773 109.849 114.672 106.774 114.672 102.994V102.994ZM109.376 113.685C107.777 115.27 105.19 115.27 103.591 113.685C101.992 112.099 101.992 109.533 103.591 107.948C105.186 106.366 107.781 106.366 109.376 107.948C110.971 109.529 110.971 112.103 109.376 113.685Z" fill="#951A4A"/>
<path d="M116.953 102.994C116.953 105.527 119.031 107.588 121.586 107.588H122.726V102.994C122.726 102.37 122.215 101.864 121.586 101.864H116.953V102.994Z" fill="#951A4A"/>
<path d="M121.585 114.044C119.031 114.044 116.952 116.105 116.952 118.638V119.769H121.585C122.215 119.769 122.725 119.263 122.725 118.638V114.044H121.585Z" fill="#951A4A"/>
<path d="M96.0142 118.638C96.0142 116.105 93.9359 114.044 91.3813 114.044H90.2412V118.638C90.2412 119.263 90.7517 119.769 91.3813 119.769H96.0142V118.638Z" fill="#951A4A"/>
<path d="M72.5 23L120 52H25L72.5 23Z" fill="#121C36"/>
<path d="M64.1506 39.6683C64.1506 44.2723 67.8964 48.2029 72.5004 48.2029C77.1043 48.2029 80.8501 44.2723 80.8501 39.6683C80.8501 35.0637 77.1043 31.3186 72.5004 31.3186C67.8964 31.3186 64.1506 35.0637 64.1506 39.6683Z" fill="white"/>
<path d="M72.5 36.885C70.9649 36.885 69.7168 38.1324 69.7168 39.6683C69.7168 41.2034 70.9649 42.4508 72.5 42.4508C74.0359 42.4508 75.2833 41.2034 75.2833 39.6683C75.2833 38.1324 74.0359 36.885 72.5 36.885Z" fill="#121C36"/>
</svg>
