<svg width="150" height="150" viewBox="0 0 150 150" fill="none" xmlns="http://www.w3.org/2000/svg">
<path d="M104.139 49.4174H99.0999V56.7979H104.139V49.4174Z" fill="white"/>
<path d="M111.931 49.4174H106.892V56.7979H111.931V49.4174Z" fill="white"/>
<path d="M119.724 49.4174H114.685V56.7979H119.724V49.4174Z" fill="white"/>
<path d="M127.516 49.4174H122.477V56.7979H127.516V49.4174Z" fill="white"/>
<path d="M135.317 49.4174H130.278V56.7979H135.317V49.4174Z" fill="white"/>
<path d="M104.139 62.1506H99.0999V69.5311H104.139V62.1506Z" fill="white"/>
<path d="M111.931 62.1506H106.892V69.5311H111.931V62.1506Z" fill="white"/>
<path d="M119.724 62.1506H114.685V69.5311H119.724V62.1506Z" fill="white"/>
<path d="M127.516 62.1506H122.477V69.5311H127.516V62.1506Z" fill="white"/>
<path d="M135.317 62.1506H130.278V69.5311H135.317V62.1506Z" fill="white"/>
<path d="M104.139 74.8762H99.0999V82.2567H104.139V74.8762Z" fill="white"/>
<path d="M111.931 74.8762H106.892V82.2567H111.931V74.8762Z" fill="white"/>
<path d="M119.724 74.8762H114.685V82.2567H119.724V74.8762Z" fill="white"/>
<path d="M127.516 74.8762H122.477V82.2567H127.516V74.8762Z" fill="white"/>
<path d="M135.317 74.8762H130.278V82.2567H135.317V74.8762Z" fill="white"/>
<path d="M104.139 87.6095H99.0999V94.99H104.139V87.6095Z" fill="white"/>
<path d="M111.931 87.6095H106.892V94.99H111.931V87.6095Z" fill="white"/>
<path d="M119.724 87.6095H114.685V94.99H119.724V87.6095Z" fill="white"/>
<path d="M127.516 87.6095H122.477V94.99H127.516V87.6095Z" fill="white"/>
<path d="M135.317 87.6095H130.278V94.99H135.317V87.6095Z" fill="white"/>
<path d="M120.051 115.104H114.357V123.37H120.051V115.104Z" fill="white"/>
<path d="M64.5835 46.1078H23V123.37H64.5835V46.1078Z" fill="#951A4A"/>
<path d="M30.7224 49.4174H25.6833V56.7979H30.7224V49.4174Z" fill="white"/>
<path d="M38.5148 49.4174H33.4758V56.7979H38.5148V49.4174Z" fill="white"/>
<path d="M46.3073 49.4174H41.2683V56.7979H46.3073V49.4174Z" fill="white"/>
<path d="M54.1076 49.4174H49.0686V56.7979H54.1076V49.4174Z" fill="white"/>
<path d="M61.9001 49.4174H56.8611V56.7979H61.9001V49.4174Z" fill="white"/>
<path d="M30.7224 62.1506H25.6833V69.5311H30.7224V62.1506Z" fill="white"/>
<path d="M38.5148 62.1506H33.4758V69.5311H38.5148V62.1506Z" fill="white"/>
<path d="M46.3073 62.1506H41.2683V69.5311H46.3073V62.1506Z" fill="white"/>
<path d="M54.1076 62.1506H49.0686V69.5311H54.1076V62.1506Z" fill="white"/>
<path d="M61.9001 62.1506H56.8611V69.5311H61.9001V62.1506Z" fill="white"/>
<path d="M30.7224 74.8762H25.6833V82.2567H30.7224V74.8762Z" fill="white"/>
<path d="M38.5148 74.8762H33.4758V82.2567H38.5148V74.8762Z" fill="white"/>
<path d="M46.3073 74.8762H41.2683V82.2567H46.3073V74.8762Z" fill="white"/>
<path d="M54.1076 74.8762H49.0686V82.2567H54.1076V74.8762Z" fill="white"/>
<path d="M61.9001 74.8762H56.8611V82.2567H61.9001V74.8762Z" fill="white"/>
<path d="M30.7224 87.6095H25.6833V94.99H30.7224V87.6095Z" fill="white"/>
<path d="M38.5148 87.6095H33.4758V94.99H38.5148V87.6095Z" fill="white"/>
<path d="M46.3073 87.6095H41.2683V94.99H46.3073V87.6095Z" fill="white"/>
<path d="M54.1076 87.6095H49.0686V94.99H54.1076V87.6095Z" fill="white"/>
<path d="M61.9001 87.6095H56.8611V94.99H61.9001V87.6095Z" fill="white"/>
<path d="M46.6349 115.104H40.9407V123.37H46.6349V115.104Z" fill="white"/>
<path d="M109.549 135.004L109.549 13.8551L51.4526 13.8551L51.4526 135.004H109.549Z" fill="white"/>
<path d="M105.832 18.2795H55.1763V130.58H105.832V18.2795Z" fill="#121C36"/>
<path d="M64.5834 41.2134H58.4446V50.202H64.5834V41.2134Z" fill="white"/>
<path d="M74.0764 41.2134H67.9375V50.202H74.0764V41.2134Z" fill="white"/>
<path d="M83.5695 41.2134H77.4307V50.202H83.5695V41.2134Z" fill="white"/>
<path d="M93.0624 41.2134H86.9236V50.202H93.0624V41.2134Z" fill="white"/>
<path d="M102.555 41.2134H96.4165V50.202H102.555V41.2134Z" fill="white"/>
<path d="M64.5834 56.7202H58.4446V65.7089H64.5834V56.7202Z" fill="white"/>
<path d="M74.0764 56.7202H67.9375V65.7089H74.0764V56.7202Z" fill="white"/>
<path d="M83.5695 56.7202H77.4307V65.7089H83.5695V56.7202Z" fill="white"/>
<path d="M93.0624 56.7202H86.9236V65.7089H93.0624V56.7202Z" fill="white"/>
<path d="M102.555 56.7202H96.4165V65.7089H102.555V56.7202Z" fill="white"/>
<path d="M64.5834 25.7065H58.4446V34.6952H64.5834V25.7065Z" fill="white"/>
<path d="M74.0764 25.7065H67.9375V34.6952H74.0764V25.7065Z" fill="white"/>
<path d="M83.5695 25.7065H77.4307V34.6952H83.5695V25.7065Z" fill="white"/>
<path d="M93.0624 25.7065H86.9236V34.6952H93.0624V25.7065Z" fill="white"/>
<path d="M102.555 25.7065H96.4165V34.6952H102.555V25.7065Z" fill="white"/>
<path d="M64.5834 72.2269H58.4446V81.2156H64.5834V72.2269Z" fill="white"/>
<path d="M74.0764 72.2269H67.9375V81.2156H74.0764V72.2269Z" fill="white"/>
<path d="M83.5695 72.2269H77.4307V81.2156H83.5695V72.2269Z" fill="white"/>
<path d="M93.0624 72.2269H86.9236V81.2156H93.0624V72.2269Z" fill="white"/>
<path d="M102.555 72.2269H96.4165V81.2156H102.555V72.2269Z" fill="white"/>
<path d="M64.5834 87.7338H58.4446V96.7224H64.5834V87.7338Z" fill="white"/>
<path d="M74.0764 87.7338H67.9375V96.7224H74.0764V87.7338Z" fill="white"/>
<path d="M83.5695 87.7338H77.4307V96.7224H83.5695V87.7338Z" fill="white"/>
<path d="M93.0624 87.7338H86.9236V96.7224H93.0624V87.7338Z" fill="white"/>
<path d="M102.555 87.7338H96.4165V96.7224H102.555V87.7338Z" fill="white"/>
<path d="M83.975 121.218H77.0327V131.286H83.975V121.218Z" fill="white"/>
<path d="M98.0703 11H62.9221V16.7102H98.0703V11Z" fill="#121C36"/>
<path d="M63.9127 107.708H59.1077V112.493H63.9127V107.708Z" fill="white"/>
<path d="M73.4134 107.708H68.6084V112.493H73.4134V107.708Z" fill="white"/>
<path d="M82.9063 107.708H78.1013V112.493H82.9063V107.708Z" fill="white"/>
<path d="M92.3992 107.708H87.5942V112.493H92.3992V107.708Z" fill="white"/>
<path d="M101.892 107.708H97.0874V112.493H101.892V107.708Z" fill="white"/>
<path d="M79.7899 142.731C75.7674 142.035 72.0745 139.959 69.3906 136.886C62.915 129.477 63.6931 118.201 71.125 111.738C75.2068 108.192 80.6142 106.688 85.9556 107.614C87.3207 107.85 88.6461 108.244 89.9122 108.783L116.125 86L121.15 87.898L123.273 86.046L126.999 90.3083L125.324 98.5703L121.262 102.097L118.525 101.946L116.909 103.345L116.916 105.873L112.221 109.952L109.511 108.592L109.728 110.602L104.868 114.819L102.857 113.774L102.554 114.037L102.712 118.207L100.114 120.46C101.907 126.988 99.8103 134.088 94.614 138.6C90.5387 142.153 85.1313 143.657 79.7899 142.731Z" fill="white"/>
<path d="M123.022 89.7567L121.696 90.9126L116.671 89.0145L90.3204 111.909C84.8603 108.862 77.8439 109.387 72.8586 113.722C66.5082 119.239 65.8488 128.84 71.3815 135.165C76.9141 141.489 86.5484 142.146 92.8922 136.629C97.8775 132.295 99.3547 125.438 97.073 119.633L100.034 117.058L99.8756 112.888L102.48 110.622L104.492 111.666L106.958 109.525L106.734 107.43L109.048 105.42L111.825 106.813L114.271 104.685L114.264 102.156L117.595 99.2665L120.331 99.4176L122.91 97.178L124.149 91.057L123.022 89.7567Z" fill="#951A4A"/>
<path d="M85.4603 122.923C86.7066 124.348 86.5616 126.509 85.1306 127.757C83.6996 129.004 81.5301 128.853 80.2837 127.428C79.0374 125.997 79.1891 123.842 80.6135 122.595C82.0444 121.347 84.2206 121.498 85.4603 122.923Z" fill="white"/>
<path d="M119.105 93.198C119.072 93.3425 118.999 93.4804 118.881 93.5855L94.2968 115.18C94.0001 115.436 93.5517 115.41 93.2945 115.114C93.0373 114.818 93.0637 114.372 93.3539 114.116L117.938 92.5281C118.234 92.272 118.683 92.2983 118.94 92.5938C119.092 92.758 119.144 92.9879 119.105 93.198Z" fill="white"/>
</svg>
