<svg width="150" height="150" viewBox="0 0 150 150" fill="none" xmlns="http://www.w3.org/2000/svg">
<path d="M6.12591 81.6184L4.14502 84.5869V103.439H8.1068V84.5869L6.12591 81.6184Z" fill="#121C36"/>
<path d="M12.7876 81.6184L10.813 84.5869V103.439H14.7748V84.5869L12.7876 81.6184Z" fill="#121C36"/>
<path d="M19.4558 81.6184L17.4812 84.5869V103.439H21.4367V84.5869L19.4558 81.6184Z" fill="#121C36"/>
<path d="M26.124 81.6184L24.1431 84.5869V103.439H28.1049V84.5869L26.124 81.6184Z" fill="#121C36"/>
<path d="M32.7859 81.6184L30.8113 84.5869V103.439H34.7668V84.5869L32.7859 81.6184Z" fill="#121C36"/>
<path d="M39.4541 81.6184L37.4795 84.5869V103.439H41.4287V84.5869L39.4541 81.6184Z" fill="#121C36"/>
<path d="M46.1157 81.6184L44.1411 84.5869V103.439H48.0966V84.5869L46.1157 81.6184Z" fill="#121C36"/>
<path d="M50.8093 95.731V103.439H54.7648V84.5869L52.7839 81.6184L50.8093 84.5869V95.731Z" fill="#121C36"/>
<path d="M59.4458 81.6184L57.4712 84.5869V103.439H61.4267V84.5869L59.4458 81.6184Z" fill="#121C36"/>
<path d="M66.114 81.6184L64.1394 84.5869V103.439H68.0949V84.5869L66.114 81.6184Z" fill="#121C36"/>
<path d="M72.7822 81.6184L70.8013 84.5869V103.439H74.7567V84.5869L72.7822 81.6184Z" fill="#121C36"/>
<path d="M79.4441 81.6184L77.4695 84.5869V103.439H81.425V84.5869L79.4441 81.6184Z" fill="#121C36"/>
<path d="M84.7874 98.3252H2V99.9092H84.7874V98.3252Z" fill="#121C36"/>
<path d="M84.7874 87.6365H2V89.2205H84.7874V87.6365Z" fill="#121C36"/>
<path d="M113.554 61.4006H37.0315V106.738H113.554V61.4006Z" fill="#121C36"/>
<path d="M30.1047 59.2366H120.481L75.293 22L30.1047 59.2366Z" fill="#121C36"/>
<path d="M89.3285 89.5957H104.046V69.0411H89.3285V89.5957Z" fill="white"/>
<path d="M95.9144 89.5957H97.46V69.0411H95.9144V89.5957Z" fill="#121C36"/>
<path d="M89.3284 78.5566V80.0845H104.046V78.5566H89.3284Z" fill="#121C36"/>
<path d="M51.4703 106.74H67.166V80.0865H51.4703V106.74Z" fill="white"/>
<path d="M54.4116 96.8161C54.9552 96.8161 55.3958 96.3805 55.3958 95.8432C55.3958 95.3059 54.9552 94.8704 54.4116 94.8704C53.8681 94.8704 53.4275 95.3059 53.4275 95.8432C53.4275 96.3805 53.8681 96.8161 54.4116 96.8161Z" fill="#121C36"/>
<path d="M93.7959 35.7884L102.092 42.6233V30.2007H93.7959V35.7884Z" fill="#121C36"/>
<path d="M92.9896 31.281H102.888V29.117H92.9896V31.281Z" fill="#121C36"/>
<path d="M33.8933 112.784L116.687 112.784V108.999L33.8933 108.999V112.784Z" fill="#121C36"/>
<path d="M116.19 133.22C132.828 129.315 143.114 112.817 139.164 96.3689C135.214 79.9213 118.524 69.7534 101.885 73.6582C85.2469 77.563 74.961 94.0619 78.9111 110.51C82.8612 126.957 99.5515 137.125 116.19 133.22Z" fill="white"/>
<path d="M135.794 103.577C135.869 88.9666 123.948 77.0627 109.169 76.9888C94.3889 76.9149 82.3469 88.6988 82.2721 103.309C82.1973 117.919 94.118 129.823 108.898 129.897C123.677 129.971 135.719 118.187 135.794 103.577Z" fill="white"/>
<path d="M109.031 78.7186C122.822 78.7186 134.039 89.8066 134.039 103.439C134.039 117.071 122.822 128.159 109.031 128.159C95.2408 128.159 84.0242 117.071 84.0242 103.439C84.0242 89.8066 95.2408 78.7186 109.031 78.7186ZM109.031 75.2512C93.2852 75.2512 80.5166 87.8734 80.5166 103.439C80.5166 119.005 93.2852 131.627 109.031 131.627C124.778 131.627 137.546 119.005 137.546 103.439C137.546 87.8734 124.784 75.2512 109.031 75.2512Z" fill="#951A4A"/>
<path d="M126.86 92.4048H96.6558C96.0261 92.4048 95.5156 92.911 95.5156 93.5354V95.1903H123.344C125.23 95.1903 126.765 96.7118 126.765 98.582V110.31H126.86C127.49 110.31 128 109.804 128 109.179V93.5354C128 92.911 127.49 92.4048 126.86 92.4048V92.4048Z" fill="#951A4A"/>
<path d="M93.1401 103.176C95.6947 103.176 97.7729 101.115 97.7729 98.582V97.4514H93.1401C92.5105 97.4514 92 97.9576 92 98.582V103.176H93.1401Z" fill="#951A4A"/>
<path d="M116.431 98.582V97.4514H100.053V98.582C100.053 102.362 96.952 105.437 93.1401 105.437H92V107.371H93.1401C96.952 107.371 100.053 110.446 100.053 114.226V115.357H116.431V114.226C116.431 110.446 119.532 107.371 123.344 107.371H124.484V105.437H123.344C119.532 105.437 116.431 102.362 116.431 98.582V98.582ZM111.135 109.273C109.536 110.858 106.948 110.858 105.349 109.273C103.75 107.687 103.75 105.121 105.349 103.535C106.944 101.954 109.54 101.954 111.135 103.535C112.73 105.117 112.73 107.691 111.135 109.273Z" fill="#951A4A"/>
<path d="M118.711 98.582C118.711 101.115 120.79 103.176 123.344 103.176H124.484V98.582C124.484 97.9576 123.974 97.4514 123.344 97.4514H118.711V98.582Z" fill="#951A4A"/>
<path d="M123.344 109.632C120.789 109.632 118.711 111.693 118.711 114.226V115.357H123.344C123.974 115.357 124.484 114.85 124.484 114.226V109.632H123.344Z" fill="#951A4A"/>
<path d="M97.7729 114.226C97.7729 111.693 95.6947 109.632 93.1401 109.632H92V114.226C92 114.85 92.5105 115.357 93.1401 115.357H97.7729V114.226Z" fill="#951A4A"/>
</svg>
