<svg width="150" height="150" viewBox="0 0 150 150" fill="none" xmlns="http://www.w3.org/2000/svg">
<path d="M64.71 68.8292V69.5292L55.33 70.8192V66.2692L56.78 66.0292C55.28 65.2292 53.85 64.2792 52.51 63.1792V64.4892L44.24 65.9192V61.6492L49.73 60.5592C49.16 59.9592 48.64 59.3292 48.14 58.6892L44.24 59.5092V55.2292L45.71 54.8892C45.37 54.2592 45.06 53.6192 44.78 52.9592L44.24 53.0892V51.6292C43.64 49.9992 43.2 48.3192 42.93 46.6192L32 49.7492V110.859L68.04 114.049V69.2192C66.92 69.1592 65.81 69.0292 64.71 68.8292ZM41.74 97.9892L34.4 97.9192V93.8892L41.74 93.7692V97.9892ZM41.74 91.6592L34.4 91.8692V87.8292L41.74 87.4392V91.6592ZM41.74 85.3392L34.4 85.8092V81.7692L41.74 81.1192V85.3392ZM41.74 79.0092L34.4 79.7492V75.7092L41.74 74.7892V79.0092ZM41.74 72.6892L34.4 73.6892V69.6592L41.74 68.4692V72.6892ZM41.74 66.3592L34.4 67.6392V63.5992L41.74 62.1392V66.3592ZM41.74 60.0292L34.4 61.5792V57.5392L41.74 55.8092V60.0292ZM41.74 53.7092L34.4 55.5192V51.4892L41.74 49.4892V53.7092ZM52.51 98.0892L44.24 98.0092V93.7292L52.51 93.6092V98.0892ZM52.51 91.3692L44.24 91.5892V87.3192L52.51 86.8892V91.3692ZM52.51 84.6492L44.24 85.1792V80.8992L52.51 80.1692V84.6492ZM52.51 77.9292L44.24 78.7592V74.4792L52.51 73.4492V77.9292ZM52.51 71.2092L44.24 72.3392V68.0592L52.51 66.7192V71.2092ZM64.71 98.1992L55.33 98.1092V93.5592L64.71 93.4192V98.1992ZM64.71 91.0292L55.33 91.2892V86.7392L64.71 86.2592V91.0292ZM64.71 83.8692L55.33 84.4692V79.9192L64.71 79.0892V83.8692ZM64.71 76.6992L55.33 77.6392V73.0992L64.71 71.9192V76.6992ZM54.01 43.4492C54.14 45.2392 54.59 46.9992 55.33 48.6592V45.7992L64.71 43.2492V48.0292L56.1 50.1592C56.5 50.8392 56.96 51.4992 57.47 52.1192L64.71 50.4192V55.1992L61.83 55.8092C63.73 56.8992 65.85 57.5792 68.04 57.7892V39.4392L54.01 43.4492Z" fill="#121C36"/>
<path d="M42.93 46.6191L32 49.7491L33.67 44.8891L42.57 42.1091C42.56 43.6191 42.68 45.1291 42.93 46.6191Z" fill="#121C36"/>
<path d="M68.0399 34.1492V39.4392L54.0099 43.4492C53.8799 41.7592 54.0199 40.0592 54.4399 38.3992L68.0399 34.1492Z" fill="#121C36"/>
<path d="M84.96 39.4392C85.26 41.0392 85.3 42.6892 85.09 44.3192L68.04 39.4392V34.1492L84.96 39.4392Z" fill="#121C36"/>
<path d="M104.07 49.7491L96.1099 47.4691C96.3899 46.0191 96.5499 44.5491 96.5899 43.0791L102.7 44.9891L104.07 49.7491Z" fill="#121C36"/>
<path d="M101.77 55.5492L95.95 54.1192L98.98 56.9092L101.77 57.5592V59.4692L104.07 61.5892V49.7492L96.11 47.4692C95.95 48.2592 95.76 49.0392 95.53 49.8192L101.77 51.5092V55.5492Z" fill="#121C36"/>
<path d="M94.08 57.0792L94.43 56.4392V55.8392L94.72 55.9092L95.72 54.0592L94.43 53.7392V52.9092C93.76 54.4792 92.93 55.9992 91.94 57.4492V59.5292L90.6 59.2492C90.24 59.6992 89.86 60.1292 89.47 60.5592C89.31 60.7392 89.14 60.9092 88.97 61.0792L91 61.4792C92.19 60.1292 93.23 58.6592 94.08 57.0792Z" fill="#121C36"/>
<path d="M101.77 84.7892V85.8192L94.43 85.3392V81.1292L98.15 81.4592L95.63 79.1392L94.43 79.0192V78.0292L91.94 75.7392V78.7692L83.68 77.9392V73.4592L90.38 74.2992L87.62 71.7592L83.68 71.2192V68.1392L83.15 67.6492L83.68 67.2992V66.7492L84.35 66.8592L86.12 65.6992C86.42 65.5092 86.71 65.2992 87 65.0892L84.63 64.6792C83.43 65.4892 82.16 66.1992 80.85 66.7892V70.8392L71.49 69.5492V69.1892C70.85 69.2492 70.21 69.2692 69.57 69.2692C69.05 69.2692 68.54 69.2592 68.03 69.2192V114.049L104.06 110.859V86.9092L101.77 84.7892ZM80.86 98.1092L71.5 98.1992V93.4192L80.86 93.5592V98.1092ZM80.86 91.2892L71.5 91.0392V86.2592L80.86 86.7492V91.2892ZM80.86 84.4692L71.5 83.8692V79.0992L80.86 79.9292V84.4692ZM80.86 77.6592L71.5 76.7092V71.9392L80.86 73.1092V77.6592ZM91.94 98.0092L83.68 98.0892V93.6092L91.94 93.7292V98.0092ZM91.94 91.5992L83.68 91.3692V86.8992L91.94 87.3192V91.5992ZM91.94 85.1892L83.68 84.6492V80.1792L91.94 80.9092V85.1892ZM101.77 97.9192L94.43 97.9892V93.7792L101.77 93.8892V97.9192ZM101.77 91.8692L94.43 91.6692V87.4492L101.77 87.8292V91.8692Z" fill="#121C36"/>
<path d="M71.5 57.7392V57.6092L71.91 57.6892C73.5 57.4592 75.04 56.9692 76.47 56.2792L71.5 55.2292V50.4492L80.86 52.6492V53.0692C80.95 52.9892 81.02 52.9192 81.09 52.8392C82.16 51.6692 83.03 50.3792 83.68 49.0192V46.5992L84.53 46.8292C84.79 46.0092 84.97 45.1692 85.09 44.3192L68.04 39.4392V57.7892C68.55 57.8392 69.06 57.8692 69.58 57.8692C70.22 57.8692 70.86 57.8292 71.5 57.7392ZM71.5 43.2892L80.86 45.8292V50.3792L71.5 48.0692V43.2892Z" fill="#121C36"/>
<path d="M92.6801 63.7592C91.1501 65.4192 89.4501 66.8392 87.6401 68.0192L106.9 85.7492C109.09 87.7692 112.5 87.6292 114.52 85.4392L116.09 83.7392C118.11 81.5492 117.97 78.1392 115.78 76.1292L96.5201 58.3992C95.4901 60.2992 94.2101 62.0992 92.6801 63.7592Z" fill="#951A4A"/>
<path d="M51.7501 25.8191C42.6701 35.6591 43.2901 50.9992 53.1501 60.0792C63.0101 69.1592 78.3601 68.5292 87.4401 58.6791C96.5201 48.8391 95.9001 33.4991 86.0401 24.4191C76.1801 15.3391 60.8301 15.9691 51.7501 25.8191ZM83.1201 54.7091C76.2301 62.1791 64.5901 62.6491 57.1101 55.7691C49.6401 48.8791 49.1601 37.2491 56.0501 29.7791C62.9401 22.3091 74.5801 21.8391 82.0601 28.7191C89.5401 35.6091 90.0101 47.2391 83.1201 54.7091Z" fill="#951A4A"/>
</svg>
