<svg width="150" height="150" viewBox="0 0 150 150" fill="none" xmlns="http://www.w3.org/2000/svg">
<path d="M91.7202 41.1602H68.4702V43.5802H91.7202V41.1602Z" fill="#121C36"/>
<path d="M97.23 47.3301H62.96V49.7501H97.23V47.3301Z" fill="#121C36"/>
<path d="M80.0899 63.5H43.3999V65.92H80.0899V63.5Z" fill="#121C36"/>
<path d="M99.4899 71.99H43.3999V74.41H99.4899V71.99Z" fill="#121C36"/>
<path d="M71.4399 80.47H43.3999V82.89H71.4399V80.47Z" fill="#121C36"/>
<path d="M56.91 30L56.32 30.82L37.35 57.91L37 58.4V59.01L37.02 115.9V117.81H109.81V85.44C109.59 85.52 109.37 85.59 109.14 85.63L108.91 85.87C108.82 86.64 108.49 87.35 107.95 87.92L107.89 87.98V115.9H38.94L38.92 59.01L57.89 31.91H107.89V70.75L109.81 68.64V30H56.91Z" fill="#121C36"/>
<path d="M57.8899 31.9102V32.1802V59.0102H38.9199L57.8899 31.9102Z" fill="#121C36"/>
<path d="M47.6499 98.47V107.36H53.5399V102.57H56.5899V107.36H62.4799V98.47H47.6499ZM52.2999 103.17H49.4499V100.13H52.2999V103.17ZM60.6699 103.17H57.8099V100.13H60.6699V103.17Z" fill="#121C36"/>
<path d="M46.3 98.05H63.83L55.07 90.74L46.3 98.05Z" fill="#121C36"/>
<path d="M59.0867 103.16H59.3867V100.12H59.0867V103.16Z" fill="#121C36"/>
<path d="M57.8135 101.493V101.793H60.6635V101.493H57.8135Z" fill="#121C36"/>
<path d="M50.7205 103.16H51.0205V100.12H50.7205V103.16Z" fill="#121C36"/>
<path d="M49.4502 101.49V101.79H52.3002V101.49H49.4502Z" fill="#121C36"/>
<path d="M53.9199 105.4C53.9199 105.5 54.0099 105.58 54.1099 105.58C54.2199 105.58 54.2999 105.5 54.2999 105.4C54.2999 105.3 54.2099 105.22 54.1099 105.22C54.0099 105.23 53.9199 105.31 53.9199 105.4Z" fill="#121C36"/>
<path d="M58.6499 93.31L60.2599 94.66V92.22H58.6499V93.31Z" fill="#121C36"/>
<path d="M58.4938 92.4263H60.4138V92.0063H58.4938V92.4263Z" fill="#121C36"/>
<path d="M47.0413 108.551H63.0913V107.811H47.0413V108.551Z" fill="#121C36"/>
<path d="M67.37 112.19H42.77V87.5898H67.37V112.19ZM44.04 110.91H66.09V88.8698H44.04V110.91Z" fill="#121C36"/>
<path d="M100.71 107.38H76.0898V108.97H100.71V107.38Z" fill="#951A4A"/>
<path d="M123.24 53.95C123.21 53.92 123.18 53.89 123.16 53.85C123.03 53.65 123.1 53.38 123.3 53.25C126.96 50.97 127.22 50.58 128.17 49.11C128.69 48.32 129.39 47.23 130.87 45.44C132.51 43.45 134.04 42.55 135.44 42.76C137.17 43.02 137.95 44.89 137.99 44.96C138.08 45.18 137.97 45.44 137.75 45.53C137.53 45.62 137.27 45.51 137.18 45.29C137.17 45.28 136.55 43.8 135.3 43.62C134.24 43.46 132.94 44.28 131.54 45.99C130.1 47.75 129.41 48.81 128.9 49.58C127.89 51.13 127.58 51.6 123.76 53.98C123.59 54.09 123.38 54.07 123.24 53.95Z" fill="#951A4A"/>
<path d="M142.21 45.77L138.02 42.07L140.77 39.02L144.96 42.72L142.21 45.77Z" fill="#951A4A"/>
<path d="M144.96 42.7199C144.78 42.9299 143.69 42.2699 142.53 41.2499C141.37 40.2299 140.58 39.2299 140.77 39.0199C140.95 38.8099 142.04 39.4699 143.2 40.4899C144.36 41.5099 145.15 42.5099 144.96 42.7199Z" fill="#951A4A"/>
<path d="M95.7999 96.0901L95.9299 95.9401L91.8799 92.2201L97.6299 85.8701C97.6799 86.0001 97.7599 86.1101 97.8599 86.2101L101.46 89.5301C101.56 89.6201 101.67 89.6801 101.79 89.7201L95.7999 96.0901Z" fill="#951A4A"/>
<path d="M104.99 86.3102L102.92 88.5102C102.88 88.3902 102.81 88.2802 102.71 88.1902L99.09 84.8502C98.98 84.7602 98.86 84.6902 98.73 84.6602L100.76 82.4102C100.81 82.5402 100.88 82.6602 100.99 82.7502L104.66 86.1302C104.76 86.2202 104.87 86.2802 104.99 86.3102Z" fill="#951A4A"/>
<path d="M107.87 82.7202C107.96 82.8002 108.07 82.8702 108.19 82.9102L107.69 83.4402L106.13 85.1002C106.09 84.9802 106.01 84.8802 105.92 84.7902L102.22 81.3902C102.12 81.3002 102 81.2302 101.87 81.1902L103.4 79.5002L103.9 78.9502C103.95 79.0802 104.03 79.1902 104.13 79.2802L107.87 82.7202Z" fill="#951A4A"/>
<path d="M141.7 47.2401L124.17 65.8901L123.42 66.7101L115.1 75.5601L114.09 76.6301L111.89 78.9701L110.89 80.0401L109.34 81.6901C109.29 81.5801 109.22 81.4801 109.12 81.3901L105.36 77.9301C105.26 77.8301 105.13 77.7701 105 77.7301L106.54 76.0401L107.53 74.9501L109.68 72.5801L110.67 71.4901L136.74 42.7401C136.96 42.5001 137.32 42.4801 137.56 42.7001L141.67 46.4301C141.91 46.6401 141.92 47.0101 141.7 47.2401Z" fill="#951A4A"/>
<path d="M85.75 103.83L84.9799 104.31L84.7 104.06L85.08 103.25L85.75 103.83Z" fill="#951A4A"/>
<path d="M84.99 104.31C84.97 104.33 84.89 104.29 84.81 104.22C84.73 104.15 84.68 104.08 84.7 104.05C84.72 104.03 84.8 104.07 84.88 104.14C84.96 104.22 85.01 104.29 84.99 104.31Z" fill="#951A4A"/>
<path d="M91.58 92.54L85.14 102.67C85.07 102.75 85.3 103.05 85.63 103.35C85.97 103.65 86.29 103.81 86.36 103.73L95.62 96.27L91.58 92.54Z" fill="#951A4A"/>
<path d="M104.76 77.88C104.93 77.88 105.1 77.94 105.24 78.07L109 81.52C109.29 81.78 109.3 82.23 109.04 82.52L109 82.55C108.86 82.7 108.67 82.77 108.48 82.77C108.31 82.77 108.13 82.71 107.99 82.58L104.25 79.14C103.96 78.88 103.94 78.42 104.2 78.13L104.23 78.09C104.38 77.95 104.57 77.88 104.76 77.88ZM104.76 77.51C104.46 77.51 104.17 77.64 103.97 77.86L103.94 77.9C103.54 78.34 103.58 79.02 104.01 79.42L107.75 82.86C107.95 83.04 108.21 83.14 108.48 83.14C108.78 83.14 109.06 83.02 109.27 82.8L109.3 82.76C109.5 82.55 109.6 82.28 109.59 81.99C109.58 81.7 109.46 81.44 109.25 81.25L105.49 77.79C105.29 77.61 105.03 77.51 104.76 77.51Z" fill="#951A4A"/>
<path d="M101.62 81.34C101.79 81.34 101.96 81.4 102.1 81.53L105.79 84.93C106.08 85.19 106.09 85.64 105.83 85.93L105.8 85.97C105.66 86.12 105.47 86.19 105.28 86.19C105.11 86.19 104.93 86.13 104.79 86L101.12 82.62C100.83 82.36 100.81 81.9 101.07 81.61L101.1 81.57C101.24 81.42 101.43 81.34 101.62 81.34ZM101.62 80.98C101.32 80.98 101.03 81.11 100.83 81.33L100.8 81.37C100.4 81.81 100.44 82.49 100.87 82.89L104.54 86.27C104.74 86.45 105 86.55 105.27 86.55C105.57 86.55 105.85 86.43 106.06 86.21L106.09 86.17C106.29 85.96 106.39 85.69 106.38 85.4C106.37 85.11 106.25 84.85 106.04 84.66L102.35 81.26C102.15 81.08 101.89 80.98 101.62 80.98Z" fill="#951A4A"/>
<path d="M98.49 84.7999C98.66 84.7999 98.83 84.8599 98.97 84.9899L102.59 88.3199C102.88 88.5799 102.89 89.0299 102.63 89.3199L102.6 89.3599C102.46 89.5099 102.27 89.5899 102.08 89.5899C101.91 89.5899 101.73 89.5299 101.6 89.3999L97.9999 86.0799C97.7099 85.8199 97.6899 85.3599 97.9499 85.0699L97.9799 85.0299C98.0999 84.8799 98.3 84.7999 98.49 84.7999ZM98.49 84.4399C98.19 84.4399 97.8999 84.5699 97.6999 84.7899L97.6699 84.8299C97.2699 85.2699 97.31 85.9499 97.74 86.3499L101.34 89.6699C101.54 89.8499 101.8 89.9499 102.07 89.9499C102.37 89.9499 102.66 89.8299 102.86 89.6099L102.89 89.5699C103.09 89.3599 103.19 89.0899 103.18 88.7999C103.17 88.5099 103.05 88.2499 102.84 88.0599L99.22 84.7299C99.01 84.5399 98.76 84.4399 98.49 84.4399Z" fill="#951A4A"/>
</svg>
