<svg width="150" height="150" viewBox="0 0 150 150" fill="none" xmlns="http://www.w3.org/2000/svg">
<path d="M101.139 49.4174H96.0999V56.7979H101.139V49.4174Z" fill="white"/>
<path d="M108.931 49.4174H103.892V56.7979H108.931V49.4174Z" fill="white"/>
<path d="M116.724 49.4174H111.685V56.7979H116.724V49.4174Z" fill="white"/>
<path d="M124.516 49.4174H119.477V56.7979H124.516V49.4174Z" fill="white"/>
<path d="M132.317 49.4174H127.278V56.7979H132.317V49.4174Z" fill="white"/>
<path d="M101.139 62.1506H96.0999V69.5311H101.139V62.1506Z" fill="white"/>
<path d="M108.931 62.1506H103.892V69.5311H108.931V62.1506Z" fill="white"/>
<path d="M116.724 62.1506H111.685V69.5311H116.724V62.1506Z" fill="white"/>
<path d="M124.516 62.1506H119.477V69.5311H124.516V62.1506Z" fill="white"/>
<path d="M132.317 62.1506H127.278V69.5311H132.317V62.1506Z" fill="white"/>
<path d="M101.139 74.8762H96.0999V82.2567H101.139V74.8762Z" fill="white"/>
<path d="M108.931 74.8762H103.892V82.2567H108.931V74.8762Z" fill="white"/>
<path d="M116.724 74.8762H111.685V82.2567H116.724V74.8762Z" fill="white"/>
<path d="M124.516 74.8762H119.477V82.2567H124.516V74.8762Z" fill="white"/>
<path d="M132.317 74.8762H127.278V82.2567H132.317V74.8762Z" fill="white"/>
<path d="M101.139 87.6095H96.0999V94.99H101.139V87.6095Z" fill="white"/>
<path d="M108.931 87.6095H103.892V94.99H108.931V87.6095Z" fill="white"/>
<path d="M116.724 87.6095H111.685V94.99H116.724V87.6095Z" fill="white"/>
<path d="M124.516 87.6095H119.477V94.99H124.516V87.6095Z" fill="white"/>
<path d="M132.317 87.6095H127.278V94.99H132.317V87.6095Z" fill="white"/>
<path d="M117.051 115.104H111.357V123.37H117.051V115.104Z" fill="white"/>
<path d="M61.5835 46.1078H20V123.37H61.5835V46.1078Z" fill="#951A4A"/>
<path d="M27.7224 49.4174H22.6833V56.7979H27.7224V49.4174Z" fill="white"/>
<path d="M35.5148 49.4174H30.4758V56.7979H35.5148V49.4174Z" fill="white"/>
<path d="M43.3073 49.4174H38.2683V56.7979H43.3073V49.4174Z" fill="white"/>
<path d="M51.1076 49.4174H46.0686V56.7979H51.1076V49.4174Z" fill="white"/>
<path d="M58.9001 49.4174H53.8611V56.7979H58.9001V49.4174Z" fill="white"/>
<path d="M27.7224 62.1506H22.6833V69.5311H27.7224V62.1506Z" fill="white"/>
<path d="M35.5148 62.1506H30.4758V69.5311H35.5148V62.1506Z" fill="white"/>
<path d="M43.3073 62.1506H38.2683V69.5311H43.3073V62.1506Z" fill="white"/>
<path d="M51.1076 62.1506H46.0686V69.5311H51.1076V62.1506Z" fill="white"/>
<path d="M58.9001 62.1506H53.8611V69.5311H58.9001V62.1506Z" fill="white"/>
<path d="M27.7224 74.8762H22.6833V82.2567H27.7224V74.8762Z" fill="white"/>
<path d="M35.5148 74.8762H30.4758V82.2567H35.5148V74.8762Z" fill="white"/>
<path d="M43.3073 74.8762H38.2683V82.2567H43.3073V74.8762Z" fill="white"/>
<path d="M51.1076 74.8762H46.0686V82.2567H51.1076V74.8762Z" fill="white"/>
<path d="M58.9001 74.8762H53.8611V82.2567H58.9001V74.8762Z" fill="white"/>
<path d="M27.7224 87.6095H22.6833V94.99H27.7224V87.6095Z" fill="white"/>
<path d="M35.5148 87.6095H30.4758V94.99H35.5148V87.6095Z" fill="white"/>
<path d="M43.3073 87.6095H38.2683V94.99H43.3073V87.6095Z" fill="white"/>
<path d="M51.1076 87.6095H46.0686V94.99H51.1076V87.6095Z" fill="white"/>
<path d="M58.9001 87.6095H53.8611V94.99H58.9001V87.6095Z" fill="white"/>
<path d="M43.6349 115.104H37.9407V123.37H43.6349V115.104Z" fill="white"/>
<path d="M106.549 135.004L106.549 13.8551L48.4526 13.8551L48.4526 135.004H106.549Z" fill="white"/>
<path d="M102.832 18.2795H52.1763V130.58H102.832V18.2795Z" fill="#121C36"/>
<path d="M61.5834 41.2134H55.4446V50.202H61.5834V41.2134Z" fill="white"/>
<path d="M71.0764 41.2134H64.9375V50.202H71.0764V41.2134Z" fill="white"/>
<path d="M80.5695 41.2134H74.4307V50.202H80.5695V41.2134Z" fill="white"/>
<path d="M90.0624 41.2134H83.9236V50.202H90.0624V41.2134Z" fill="white"/>
<path d="M99.5553 41.2134H93.4165V50.202H99.5553V41.2134Z" fill="white"/>
<path d="M61.5834 56.7202H55.4446V65.7089H61.5834V56.7202Z" fill="white"/>
<path d="M71.0764 56.7202H64.9375V65.7089H71.0764V56.7202Z" fill="white"/>
<path d="M80.5695 56.7202H74.4307V65.7089H80.5695V56.7202Z" fill="white"/>
<path d="M90.0624 56.7202H83.9236V65.7089H90.0624V56.7202Z" fill="white"/>
<path d="M99.5553 56.7202H93.4165V65.7089H99.5553V56.7202Z" fill="white"/>
<path d="M61.5834 25.7065H55.4446V34.6952H61.5834V25.7065Z" fill="white"/>
<path d="M71.0764 25.7065H64.9375V34.6952H71.0764V25.7065Z" fill="white"/>
<path d="M80.5695 25.7065H74.4307V34.6952H80.5695V25.7065Z" fill="white"/>
<path d="M90.0624 25.7065H83.9236V34.6952H90.0624V25.7065Z" fill="white"/>
<path d="M99.5553 25.7065H93.4165V34.6952H99.5553V25.7065Z" fill="white"/>
<path d="M61.5834 72.2269H55.4446V81.2156H61.5834V72.2269Z" fill="white"/>
<path d="M71.0764 72.2269H64.9375V81.2156H71.0764V72.2269Z" fill="white"/>
<path d="M80.5695 72.2269H74.4307V81.2156H80.5695V72.2269Z" fill="white"/>
<path d="M90.0624 72.2269H83.9236V81.2156H90.0624V72.2269Z" fill="white"/>
<path d="M99.5553 72.2269H93.4165V81.2156H99.5553V72.2269Z" fill="white"/>
<path d="M61.5834 87.7338H55.4446V96.7224H61.5834V87.7338Z" fill="white"/>
<path d="M71.0764 87.7338H64.9375V96.7224H71.0764V87.7338Z" fill="white"/>
<path d="M80.5695 87.7338H74.4307V96.7224H80.5695V87.7338Z" fill="white"/>
<path d="M90.0624 87.7338H83.9236V96.7224H90.0624V87.7338Z" fill="white"/>
<path d="M99.5553 87.7338H93.4165V96.7224H99.5553V87.7338Z" fill="white"/>
<path d="M80.975 121.218H74.0327V131.286H80.975V121.218Z" fill="white"/>
<path d="M95.0703 11H59.9221V16.7102H95.0703V11Z" fill="#121C36"/>
<path d="M60.9127 107.708H56.1077V112.493H60.9127V107.708Z" fill="white"/>
<path d="M70.4134 107.708H65.6084V112.493H70.4134V107.708Z" fill="white"/>
<path d="M79.9063 107.708H75.1013V112.493H79.9063V107.708Z" fill="white"/>
<path d="M89.3992 107.708H84.5942V112.493H89.3992V107.708Z" fill="white"/>
<path d="M98.8924 107.708H94.0874V112.493H98.8924V107.708Z" fill="white"/>
<path d="M105.431 137.632C122.07 133.728 132.355 117.229 128.405 100.781C124.455 84.3334 107.765 74.1655 91.1265 78.0703C74.4881 81.9751 64.2022 98.4741 68.1523 114.922C72.1025 131.369 88.7927 141.537 105.431 137.632Z" fill="white"/>
<path d="M125.035 107.989C125.11 93.3787 113.189 81.4748 98.4097 81.4009C83.6301 81.327 71.5881 93.111 71.5134 107.721C71.4386 122.331 83.3592 134.235 98.1389 134.309C112.919 134.383 124.96 122.599 125.035 107.989Z" fill="white"/>
<path d="M98.2726 83.1307C112.063 83.1307 123.28 94.2187 123.28 107.851C123.28 121.484 112.063 132.572 98.2726 132.572C84.482 132.572 73.2654 121.484 73.2654 107.851C73.2654 94.2187 84.482 83.1307 98.2726 83.1307ZM98.2726 79.6633C82.5264 79.6633 69.7578 92.2855 69.7578 107.851C69.7578 123.417 82.5264 136.039 98.2726 136.039C114.019 136.039 126.787 123.417 126.787 107.851C126.787 92.2855 114.025 79.6633 98.2726 79.6633Z" fill="#951A4A"/>
<path d="M116.101 96.8169H85.897C85.2673 96.8169 84.7568 97.3231 84.7568 97.9475V99.6024H112.585C114.471 99.6024 116.006 101.124 116.006 102.994V114.722H116.101C116.731 114.722 117.241 114.216 117.241 113.592V97.9475C117.241 97.3231 116.731 96.8169 116.101 96.8169V96.8169Z" fill="#951A4A"/>
<path d="M82.3813 107.588C84.9359 107.588 87.0142 105.527 87.0142 102.994V101.864H82.3813C81.7517 101.864 81.2412 102.37 81.2412 102.994V107.588H82.3813Z" fill="#951A4A"/>
<path d="M105.672 102.994V101.864H89.2944V102.994C89.2944 106.774 86.1932 109.849 82.3813 109.849H81.2412V111.783H82.3813C86.1933 111.783 89.2944 114.858 89.2944 118.638V119.769H105.672V118.638C105.672 114.858 108.773 111.783 112.585 111.783H113.726V109.849H112.585C108.773 109.849 105.672 106.774 105.672 102.994V102.994ZM100.376 113.685C98.7775 115.27 96.1896 115.27 94.5905 113.685C92.9917 112.099 92.9916 109.533 94.5905 107.948C96.1856 106.366 98.781 106.366 100.376 107.948C101.971 109.529 101.971 112.103 100.376 113.685Z" fill="#951A4A"/>
<path d="M107.953 102.994C107.953 105.527 110.031 107.588 112.586 107.588H113.726V102.994C113.726 102.37 113.215 101.864 112.586 101.864H107.953V102.994Z" fill="#951A4A"/>
<path d="M112.585 114.044C110.031 114.044 107.952 116.105 107.952 118.638V119.769H112.585C113.215 119.769 113.725 119.263 113.725 118.638V114.044H112.585Z" fill="#951A4A"/>
<path d="M87.0142 118.638C87.0142 116.105 84.9359 114.044 82.3813 114.044H81.2412V118.638C81.2412 119.263 81.7517 119.769 82.3813 119.769H87.0142V118.638Z" fill="#951A4A"/>
</svg>
