<svg width="150" height="150" viewBox="0 0 150 150" fill="none" xmlns="http://www.w3.org/2000/svg">
<path d="M29 18.0514V122.709L46.2996 124.237V11L29 18.0514ZM34.0949 100.442L30.2809 100.499V93.6471L34.0949 93.4615V100.442ZM34.0949 89.9644L30.2809 90.2213V83.3697L34.0949 82.9986V89.9644ZM34.0949 79.5015L30.2809 79.9297V73.0781L34.0949 72.5214V79.5015ZM34.0949 69.0243L30.2809 69.638V62.7865L34.0949 62.0442V69.0243ZM34.0949 58.5471L30.2809 59.3464V52.4806L34.0949 51.567V58.5471ZM34.0949 48.0841L30.2809 49.0691V42.2175L34.0949 41.1041V48.0841ZM34.0949 37.6069L30.2809 38.7774V31.9258L34.0949 30.6269V37.6069ZM34.0949 27.144L30.2809 28.5001V21.6485L34.0949 20.164V27.144ZM39.3481 100.342L35.347 100.399V93.3759L39.3481 93.176V100.342V100.342ZM39.3481 89.6218L35.347 89.893V82.8701L39.3481 82.4705V89.6218V89.6218ZM39.3481 78.9019L35.347 79.3587V72.3359L39.3481 71.7506V78.9019V78.9019ZM39.3481 68.1678L35.347 68.8101V61.7873L39.3481 61.0022V68.1678V68.1678ZM39.3481 57.448L35.347 58.2901V51.2673L39.3481 50.2966V57.448V57.448ZM39.3481 46.7281L35.347 47.7558V40.7472L39.3481 39.5768V46.7281V46.7281ZM39.3481 35.994L35.347 37.2215V30.1987L39.3481 28.8426V35.994V35.994ZM39.3481 25.2741L35.347 26.7015V19.6787L39.3481 18.1371V25.2741V25.2741ZM44.8603 100.256L40.6722 100.327V93.1332L44.8603 92.9334V100.256ZM44.8603 89.2649L40.6722 89.5362V82.342L44.8603 81.928V89.2649ZM44.8603 78.2596L40.6722 78.7449V71.5508L44.8603 70.937V78.2596ZM44.8603 67.2828L40.6722 67.9537V60.7595L44.8603 59.9459V67.2828ZM44.8603 56.2775L40.6722 57.1625V49.9683L44.8603 48.9406V56.2775ZM44.8603 45.2864L40.6722 46.3712V39.1771L44.8603 37.9495V45.2864ZM44.8603 34.2953L40.6722 35.5943V28.4001L44.8603 26.9727V34.2953ZM44.8603 23.3043L40.6722 24.8031V17.6089L44.8603 15.9817V23.3043Z" fill="#121C36"/>
<path d="M89.9084 90.8779C97.853 90.8779 104.301 88.7511 104.301 86.1389C104.301 83.5267 97.853 81.3999 89.9084 81.3999C81.9639 81.3999 75.5161 83.5125 75.5161 86.1389C75.5161 88.7511 81.9639 90.8779 89.9084 90.8779Z" fill="#951A4A"/>
<path d="M102.933 91.4346C101.926 92.1911 100.343 92.8477 98.3566 93.333C95.9531 93.9326 92.9739 94.2751 89.7356 94.2751C86.4973 94.2751 83.5181 93.9326 81.1146 93.333C79.1428 92.8477 77.5453 92.1911 76.5378 91.4346C75.7606 90.8636 75.3433 90.207 75.3433 89.5361V93.333C75.3433 95.9595 81.791 98.072 89.7356 98.072C97.6945 98.072 104.128 95.9452 104.128 93.333V89.5361C104.128 90.2213 103.696 90.8636 102.933 91.4346Z" fill="#951A4A"/>
<path d="M102.933 120.582C101.926 121.339 100.343 121.995 98.3565 122.481C95.953 123.08 92.9737 123.423 89.7355 123.423C87.7062 123.423 85.7776 123.28 84.0073 123.023C84.0073 124.379 84.0217 125.664 84.0217 126.82C85.7776 127.077 87.7062 127.22 89.7355 127.22C97.6944 127.22 104.128 125.093 104.128 122.481V118.684C104.128 119.355 103.696 120.011 102.933 120.582Z" fill="#951A4A"/>
<path d="M102.933 113.303C101.926 114.059 100.343 114.716 98.3567 115.201C95.9532 115.786 92.974 116.143 89.7357 116.143C87.692 116.143 85.749 116 83.9932 115.743C83.9932 117.014 84.0076 118.284 84.0076 119.54C85.7634 119.797 87.7064 119.94 89.7357 119.94C97.6947 119.94 104.128 117.827 104.128 115.201V111.404C104.128 112.075 103.696 112.717 102.933 113.303Z" fill="#951A4A"/>
<path d="M102.933 106.008C101.926 106.765 100.343 107.422 98.3567 107.907C95.9532 108.506 92.974 108.849 89.7357 108.849C87.692 108.849 85.7346 108.706 83.9644 108.449C83.9644 109.62 83.9644 110.904 83.9644 112.246C85.7346 112.503 87.6776 112.646 89.7213 112.646C97.6802 112.646 104.114 110.533 104.114 107.907V104.11C104.128 104.795 103.696 105.423 102.933 106.008Z" fill="#951A4A"/>
<path d="M102.933 98.7287C101.926 99.4709 100.343 100.128 98.3566 100.627C95.9531 101.212 92.9739 101.569 89.7356 101.569C86.4973 101.569 83.5181 101.212 81.1146 100.627C79.1428 100.128 77.5453 99.4852 76.5378 98.7287C75.7606 98.1434 75.3433 97.5011 75.3433 96.8302V100.442C78.6823 101.112 81.9493 102.411 83.3022 104.867C85.2452 105.195 87.4184 105.366 89.7356 105.366C97.6945 105.366 104.128 103.239 104.128 100.627V96.8302C104.128 97.5011 103.696 98.1434 102.933 98.7287Z" fill="#951A4A"/>
<path d="M47.8971 107.479C47.8971 103.782 51.38 101.512 55.9424 100.27L49.3075 100.242V92.8906L57.9285 93.0048V99.7992C58.8209 99.6279 59.742 99.4852 60.6631 99.371V93.0333L69.0538 93.1475V99.1569C69.9461 99.214 70.8385 99.2996 71.7164 99.4138V93.176H71.8171V89.5932H71.7164V82.4562L73.2132 82.499C74.5085 80.986 76.6098 79.8726 79.114 79.1161L71.7164 78.8877V71.7363L79.8912 72.0646V78.9019C80.7548 78.6736 81.6471 78.4737 82.5682 78.3167V15.0538L46.2708 11V124.237L47.7244 124.208L47.8971 107.479ZM71.7164 18.1371L79.8912 19.0078V26.0877L71.7164 25.2741V18.1371ZM71.7164 28.8569L79.8912 29.6134V36.6934L71.7164 36.0082V28.8569ZM71.7164 39.5768L79.8912 40.2334V47.3133L71.7164 46.7424V39.5768ZM71.7164 50.2966L79.8912 50.839V57.919L71.7164 57.448V50.2966ZM71.7164 61.0308L79.8912 61.4733V68.5532L71.7164 68.1964V61.0308ZM60.6631 16.9523L69.0538 17.8373V25.0172L60.6631 24.2036V16.9523ZM60.6631 27.8292L69.0538 28.6143V35.7799L60.6631 35.0804V27.8292ZM60.6631 38.6918L69.0538 39.3627V46.5425L60.6631 45.943V38.6918ZM60.6631 49.5686L69.0538 50.1253V57.3052L60.6631 56.8056V49.5686ZM60.6631 60.4312L69.0538 60.8737V68.0536L60.6631 67.6825V60.4312ZM60.6631 71.3081L69.0538 71.6507V78.8306L60.6631 78.5594V71.3081ZM60.6631 82.185L69.0538 82.4134V89.579L60.6631 89.422V82.185ZM49.3075 15.7533L57.9285 16.6668V23.9323L49.3075 23.0902V15.7533V15.7533ZM49.3075 26.7729L57.9285 27.5722V34.8378L49.3075 34.1098V26.7729V26.7729ZM49.3075 37.7925L57.9285 38.4777V45.7575L49.3075 45.1437V37.7925V37.7925ZM49.3075 48.8121L57.9285 49.3974V56.6629L49.3075 56.1633V48.8121V48.8121ZM49.3075 59.8317L57.9285 60.2885V67.554L49.3075 67.1686V59.8317V59.8317ZM49.3075 70.8513L57.9285 71.1939V78.4594L49.3075 78.1882V70.8513V70.8513ZM49.3075 81.871L57.9285 82.0993V89.3791L49.3075 89.2221V81.871V81.871Z" fill="#121C36"/>
<path d="M65.9883 112.218C73.9328 112.218 80.395 110.091 80.395 107.479C80.395 104.852 73.9472 102.74 65.9883 102.74C58.0437 102.74 51.5959 104.852 51.5959 107.479C51.5959 110.105 58.0437 112.218 65.9883 112.218Z" fill="#951A4A"/>
<path d="M78.999 112.789C77.9915 113.545 76.4084 114.202 74.4222 114.687C72.0187 115.287 69.0395 115.629 65.8012 115.629C62.563 115.629 59.5838 115.287 57.1802 114.687C55.1941 114.202 53.6109 113.545 52.6035 112.789C51.8263 112.218 51.3945 111.561 51.3945 110.89V114.687C51.3945 117.314 57.8423 119.426 65.7869 119.426C73.7314 119.426 80.1792 117.299 80.1792 114.687V110.89C80.208 111.561 79.7762 112.203 78.999 112.789Z" fill="#951A4A"/>
<path d="M78.999 120.069C77.9915 120.825 76.4084 121.482 74.4222 121.967C72.0187 122.566 69.0395 122.909 65.8012 122.909C62.563 122.909 59.5838 122.552 57.1802 121.967C55.1941 121.482 53.6109 120.825 52.6035 120.069C51.8263 119.483 51.3945 118.841 51.3945 118.17V121.967C51.3945 124.593 57.8423 126.706 65.7869 126.706C73.7314 126.706 80.1792 124.579 80.1792 121.967V118.17C80.208 118.841 79.7762 119.483 78.999 120.069Z" fill="#951A4A"/>
<path d="M78.999 127.363C77.9915 128.105 76.4084 128.776 74.4222 129.261C72.0187 129.861 69.0395 130.203 65.8012 130.203C62.563 130.203 59.5838 129.861 57.1802 129.261C55.1941 128.776 53.6109 128.119 52.6035 127.363C51.8263 126.777 51.3945 126.135 51.3945 125.464V129.261C51.3945 131.873 57.8423 134 65.7869 134C73.7314 134 80.1792 131.873 80.1792 129.261V125.464C80.208 126.135 79.7762 126.777 78.999 127.363Z" fill="#951A4A"/>
<path d="M122.593 118.855C130.538 118.855 136.986 116.728 136.986 114.116C136.986 111.504 130.538 109.377 122.593 109.377C114.649 109.377 108.201 111.504 108.201 114.116C108.215 116.728 114.649 118.855 122.593 118.855Z" fill="#951A4A"/>
<path d="M135.618 119.426C134.611 120.183 133.013 120.839 131.042 121.31C128.638 121.91 125.659 122.267 122.421 122.267C119.182 122.267 116.203 121.91 113.8 121.31C111.813 120.825 110.23 120.168 109.223 119.426C108.46 118.841 108.014 118.199 108.014 117.528V121.325C108.014 123.951 114.462 126.064 122.406 126.064C130.365 126.064 136.799 123.937 136.799 121.325V117.528C136.813 118.199 136.396 118.841 135.618 119.426Z" fill="#951A4A"/>
<path d="M135.618 126.706C134.611 127.462 133.013 128.119 131.042 128.604C128.638 129.204 125.659 129.546 122.421 129.546C119.182 129.546 116.203 129.204 113.8 128.604C111.813 128.119 110.23 127.462 109.223 126.706C108.46 126.135 108.014 125.478 108.014 124.807V128.604C108.014 131.231 114.462 133.343 122.406 133.343C130.365 133.343 136.799 131.217 136.799 128.604V124.807C136.813 125.478 136.396 126.135 135.618 126.706Z" fill="#951A4A"/>
</svg>
